<ttFont>
    <TTGlyph name=".notdef" xMin="50" yMin="0" xMax="450" yMax="750">
      <contour>
        <pt x="50" y="0" on="1"/>
        <pt x="50" y="750" on="1"/>
        <pt x="450" y="750" on="1"/>
        <pt x="450" y="0" on="1"/>
      </contour>
      <contour>
        <pt x="400" y="50" on="1"/>
        <pt x="400" y="700" on="1"/>
        <pt x="100" y="700" on="1"/>
        <pt x="100" y="50" on="1"/>
      </contour>
    </TTGlyph>
    <TTGlyph name="A" xMin="8" yMin="0" xMax="655" yMax="693">
      <contour>
        <pt x="549" y="0" on="1"/>
        <pt x="532" y="45" on="0"/>
        <pt x="502" y="132" on="0"/>
        <pt x="486" y="177" on="1"/>
        <pt x="172" y="177" on="1"/>
        <pt x="109" y="0" on="1"/>
        <pt x="8" y="0" on="1"/>
        <pt x="48" y="110" on="0"/>
        <pt x="118" y="297" on="0"/>
        <pt x="185" y="465" on="0"/>
        <pt x="251" y="618" on="0"/>
        <pt x="287" y="693" on="1"/>
        <pt x="376" y="693" on="1"/>
        <pt x="412" y="618" on="0"/>
        <pt x="478" y="465" on="0"/>
        <pt x="545" y="297" on="0"/>
        <pt x="615" y="110" on="0"/>
        <pt x="655" y="0" on="1"/>
      </contour>
      <contour>
        <pt x="458" y="257" on="1"/>
        <pt x="426" y="344" on="0"/>
        <pt x="363" y="507" on="0"/>
        <pt x="329" y="582" on="1"/>
        <pt x="294" y="507" on="0"/>
        <pt x="231" y="344" on="0"/>
        <pt x="200" y="257" on="1"/>
      </contour>
    </TTGlyph>
    <TTGlyph name="AE" xMin="6" yMin="0" xMax="898" yMax="693">
      <contour>
        <pt x="873" y="612" on="1"/>
        <pt x="572" y="612" on="1"/>
        <pt x="572" y="403" on="1"/>
        <pt x="837" y="403" on="1"/>
        <pt x="837" y="324" on="1"/>
        <pt x="572" y="324" on="1"/>
        <pt x="572" y="81" on="1"/>
        <pt x="898" y="81" on="1"/>
        <pt x="898" y="0" on="1"/>
        <pt x="476" y="0" on="1"/>
        <pt x="476" y="178" on="1"/>
        <pt x="203" y="178" on="1"/>
        <pt x="179" y="134" on="0"/>
        <pt x="132" y="45" on="0"/>
        <pt x="110" y="0" on="1"/>
        <pt x="6" y="0" on="1"/>
        <pt x="63" y="108" on="0"/>
        <pt x="172" y="299" on="0"/>
        <pt x="276" y="469" on="0"/>
        <pt x="377" y="622" on="0"/>
        <pt x="427" y="693" on="1"/>
        <pt x="873" y="693" on="1"/>
      </contour>
      <contour>
        <pt x="476" y="617" on="1"/>
        <pt x="423" y="545" on="0"/>
        <pt x="309" y="363" on="0"/>
        <pt x="248" y="257" on="1"/>
        <pt x="476" y="257" on="1"/>
      </contour>
    </TTGlyph>
    <TTGlyph name="AEacute" xMin="6" yMin="0" xMax="898" yMax="932">
      <component glyphName="AE" x="0" y="0" flags="0x204"/>
      <component glyphName="acute" x="375" y="156" flags="0x4"/>
    </TTGlyph>
    <TTGlyph name="Aacute" xMin="8" yMin="0" xMax="655" yMax="932">
      <component glyphName="A" x="0" y="0" flags="0x204"/>
      <component glyphName="acute" x="142" y="156" flags="0x4"/>
    </TTGlyph>
    <TTGlyph name="Abreve" xMin="8" yMin="0" xMax="655" yMax="905">
      <component glyphName="A" x="0" y="0" flags="0x204"/>
      <component glyphName="breve" x="141" y="156" flags="0x4"/>
    </TTGlyph>
    <TTGlyph name="Acircumflex" xMin="8" yMin="0" xMax="655" yMax="925">
      <component glyphName="A" x="0" y="0" flags="0x204"/>
      <component glyphName="circumflex" x="143" y="156" flags="0x4"/>
    </TTGlyph>
    <TTGlyph name="Adieresis" xMin="8" yMin="0" xMax="655" yMax="890">
      <component glyphName="A" x="0" y="0" flags="0x204"/>
      <component glyphName="dieresis" x="143" y="156" flags="0x4"/>
    </TTGlyph>
    <TTGlyph name="Agrave" xMin="8" yMin="0" xMax="655" yMax="932">
      <component glyphName="A" x="0" y="0" flags="0x204"/>
      <component glyphName="grave" x="150" y="156" flags="0x4"/>
    </TTGlyph>
    <TTGlyph name="Alpha" xMin="8" yMin="0" xMax="655" yMax="693">
      <component glyphName="A" x="0" y="0" flags="0x214"/>
    </TTGlyph>
    <TTGlyph name="Alphatonos" xMin="8" yMin="0" xMax="655" yMax="709">
      <component glyphName="A" x="0" y="0" flags="0x214"/>
      <component glyphName="tonos.cap" x="-57" y="0" flags="0x4"/>
    </TTGlyph>
    <TTGlyph name="Amacron" xMin="8" yMin="0" xMax="655" yMax="867">
      <component glyphName="A" x="0" y="0" flags="0x204"/>
      <component glyphName="macron" x="143" y="156" flags="0x4"/>
    </TTGlyph>
    <TTGlyph name="Aogonek" xMin="8" yMin="-187" xMax="658" yMax="693">
      <contour>
        <pt x="550" y="-2" on="1"/>
        <pt x="533" y="43" on="0"/>
        <pt x="502" y="132" on="0"/>
        <pt x="486" y="177" on="1"/>
        <pt x="172" y="177" on="1"/>
        <pt x="109" y="0" on="1"/>
        <pt x="8" y="0" on="1"/>
        <pt x="48" y="110" on="0"/>
        <pt x="118" y="297" on="0"/>
        <pt x="185" y="465" on="0"/>
        <pt x="251" y="618" on="0"/>
        <pt x="287" y="693" on="1"/>
        <pt x="376" y="693" on="1"/>
        <pt x="412" y="618" on="0"/>
        <pt x="478" y="465" on="0"/>
        <pt x="544" y="298" on="0"/>
        <pt x="614" y="111" on="0"/>
        <pt x="654" y="2" on="1"/>
        <pt x="645" y="-3" on="0"/>
        <pt x="615" y="-23" on="0"/>
        <pt x="600" y="-39" on="1"/>
        <pt x="586" y="-55" on="0"/>
        <pt x="570" y="-79" on="0"/>
        <pt x="570" y="-93" on="1"/>
        <pt x="570" y="-122" on="0"/>
        <pt x="610" y="-122" on="1"/>
        <pt x="617" y="-122" on="0"/>
        <pt x="640" y="-119" on="0"/>
        <pt x="651" y="-115" on="1"/>
        <pt x="658" y="-176" on="1"/>
        <pt x="647" y="-181" on="0"/>
        <pt x="612" y="-187" on="0"/>
        <pt x="592" y="-187" on="1"/>
        <pt x="536" y="-187" on="0"/>
        <pt x="482" y="-146" on="0"/>
        <pt x="482" y="-111" on="1"/>
        <pt x="482" y="-88" on="0"/>
        <pt x="507" y="-45" on="0"/>
        <pt x="524" y="-27" on="1"/>
        <pt x="532" y="-19" on="0"/>
        <pt x="545" y="-7" on="0"/>
      </contour>
      <contour>
        <pt x="458" y="257" on="1"/>
        <pt x="426" y="344" on="0"/>
        <pt x="363" y="507" on="0"/>
        <pt x="329" y="582" on="1"/>
        <pt x="294" y="507" on="0"/>
        <pt x="231" y="344" on="0"/>
        <pt x="200" y="257" on="1"/>
      </contour>
    </TTGlyph>
    <TTGlyph name="Aring" xMin="8" yMin="0" xMax="655" yMax="839">
      <contour>
        <pt x="172" y="178" on="1"/>
        <pt x="109" y="0" on="1"/>
        <pt x="8" y="0" on="1"/>
        <pt x="45" y="102" on="0"/>
        <pt x="111" y="279" on="0"/>
        <pt x="174" y="438" on="0"/>
        <pt x="235" y="582" on="0"/>
        <pt x="268" y="653" on="1"/>
        <pt x="249" y="667" on="0"/>
        <pt x="227" y="709" on="0"/>
        <pt x="227" y="737" on="1"/>
        <pt x="227" y="761" on="0"/>
        <pt x="244" y="798" on="0"/>
        <pt x="272" y="825" on="0"/>
        <pt x="309" y="839" on="0"/>
        <pt x="330" y="839" on="1"/>
        <pt x="351" y="839" on="0"/>
        <pt x="388" y="825" on="0"/>
        <pt x="416" y="798" on="0"/>
        <pt x="433" y="761" on="0"/>
        <pt x="433" y="737" on="1"/>
        <pt x="433" y="710" on="0"/>
        <pt x="411" y="669" on="0"/>
        <pt x="393" y="655" on="1"/>
        <pt x="426" y="584" on="0"/>
        <pt x="488" y="439" on="0"/>
        <pt x="551" y="280" on="0"/>
        <pt x="617" y="103" on="0"/>
        <pt x="655" y="0" on="1"/>
        <pt x="549" y="0" on="1"/>
        <pt x="532" y="45" on="0"/>
        <pt x="502" y="133" on="0"/>
        <pt x="486" y="178" on="1"/>
      </contour>
      <contour>
        <pt x="458" y="257" on="1"/>
        <pt x="426" y="344" on="0"/>
        <pt x="363" y="507" on="0"/>
        <pt x="329" y="582" on="1"/>
        <pt x="294" y="507" on="0"/>
        <pt x="231" y="345" on="0"/>
        <pt x="200" y="257" on="1"/>
      </contour>
      <contour>
        <pt x="383" y="737" on="1"/>
        <pt x="383" y="763" on="0"/>
        <pt x="352" y="792" on="0"/>
        <pt x="330" y="792" on="1"/>
        <pt x="308" y="792" on="0"/>
        <pt x="277" y="763" on="0"/>
        <pt x="277" y="737" on="1"/>
        <pt x="277" y="711" on="0"/>
        <pt x="308" y="682" on="0"/>
        <pt x="330" y="682" on="1"/>
        <pt x="352" y="682" on="0"/>
        <pt x="383" y="711" on="0"/>
      </contour>
    </TTGlyph>
    <TTGlyph name="Aringacute" xMin="8" yMin="0" xMax="655" yMax="962">
      <contour>
        <pt x="172" y="178" on="1"/>
        <pt x="109" y="0" on="1"/>
        <pt x="8" y="0" on="1"/>
        <pt x="45" y="103" on="0"/>
        <pt x="112" y="281" on="0"/>
        <pt x="175" y="440" on="0"/>
        <pt x="237" y="586" on="0"/>
        <pt x="270" y="657" on="1"/>
        <pt x="255" y="669" on="0"/>
        <pt x="237" y="705" on="0"/>
        <pt x="237" y="729" on="1"/>
        <pt x="237" y="772" on="0"/>
        <pt x="292" y="821" on="0"/>
        <pt x="330" y="821" on="1"/>
        <pt x="367" y="821" on="0"/>
        <pt x="423" y="772" on="0"/>
        <pt x="423" y="729" on="1"/>
        <pt x="423" y="706" on="0"/>
        <pt x="406" y="671" on="0"/>
        <pt x="392" y="659" on="1"/>
        <pt x="425" y="588" on="0"/>
        <pt x="487" y="442" on="0"/>
        <pt x="550" y="282" on="0"/>
        <pt x="617" y="103" on="0"/>
        <pt x="655" y="0" on="1"/>
        <pt x="549" y="0" on="1"/>
        <pt x="532" y="45" on="0"/>
        <pt x="502" y="133" on="0"/>
        <pt x="486" y="178" on="1"/>
      </contour>
      <contour>
        <pt x="458" y="257" on="1"/>
        <pt x="426" y="345" on="0"/>
        <pt x="363" y="507" on="0"/>
        <pt x="329" y="582" on="1"/>
        <pt x="294" y="507" on="0"/>
        <pt x="231" y="345" on="0"/>
        <pt x="200" y="257" on="1"/>
      </contour>
      <contour>
        <pt x="378" y="729" on="1"/>
        <pt x="378" y="752" on="0"/>
        <pt x="350" y="778" on="0"/>
        <pt x="330" y="778" on="1"/>
        <pt x="310" y="778" on="0"/>
        <pt x="282" y="752" on="0"/>
        <pt x="282" y="729" on="1"/>
        <pt x="282" y="706" on="0"/>
        <pt x="310" y="679" on="0"/>
        <pt x="330" y="679" on="1"/>
        <pt x="350" y="679" on="0"/>
        <pt x="378" y="706" on="0"/>
      </contour>
      <contour>
        <pt x="423" y="889" on="1"/>
        <pt x="265" y="829" on="1"/>
        <pt x="244" y="884" on="1"/>
        <pt x="395" y="962" on="1"/>
      </contour>
    </TTGlyph>
    <TTGlyph name="At" xMin="65" yMin="-85" xMax="885" yMax="777">
      <component glyphName="at" x="0" y="68" flags="0x214"/>
    </TTGlyph>
    <TTGlyph name="Atilde" xMin="8" yMin="0" xMax="655" yMax="891">
      <component glyphName="A" x="0" y="0" flags="0x204"/>
      <component glyphName="tilde" x="144" y="156" flags="0x4"/>
    </TTGlyph>
    <TTGlyph name="B" xMin="86" yMin="-6" xMax="592" yMax="700">
      <contour>
        <pt x="273" y="-6" on="1"/>
        <pt x="252" y="-6" on="0"/>
        <pt x="203" y="-4" on="0"/>
        <pt x="154" y="0" on="0"/>
        <pt x="106" y="6" on="0"/>
        <pt x="86" y="11" on="1"/>
        <pt x="86" y="683" on="1"/>
        <pt x="106" y="688" on="0"/>
        <pt x="154" y="694" on="0"/>
        <pt x="203" y="698" on="0"/>
        <pt x="251" y="700" on="0"/>
        <pt x="272" y="700" on="1"/>
        <pt x="332" y="700" on="0"/>
        <pt x="437" y="682" on="0"/>
        <pt x="514" y="639" on="0"/>
        <pt x="558" y="569" on="0"/>
        <pt x="558" y="518" on="1"/>
        <pt x="558" y="461" on="0"/>
        <pt x="504" y="388" on="0"/>
        <pt x="459" y="370" on="1"/>
        <pt x="520" y="352" on="0"/>
        <pt x="592" y="274" on="0"/>
        <pt x="592" y="203" on="1"/>
        <pt x="592" y="99" on="0"/>
        <pt x="439" y="-6" on="0"/>
      </contour>
      <contour>
        <pt x="182" y="323" on="1"/>
        <pt x="182" y="79" on="1"/>
        <pt x="193" y="78" on="0"/>
        <pt x="208" y="77" on="1"/>
        <pt x="221" y="76" on="0"/>
        <pt x="256" y="75" on="0"/>
        <pt x="279" y="75" on="1"/>
        <pt x="322" y="75" on="0"/>
        <pt x="399" y="86" on="0"/>
        <pt x="457" y="114" on="0"/>
        <pt x="492" y="164" on="0"/>
        <pt x="492" y="202" on="1"/>
        <pt x="492" y="236" on="0"/>
        <pt x="466" y="283" on="0"/>
        <pt x="417" y="311" on="0"/>
        <pt x="349" y="323" on="0"/>
        <pt x="307" y="323" on="1"/>
      </contour>
      <contour>
        <pt x="182" y="401" on="1"/>
        <pt x="284" y="401" on="1"/>
        <pt x="320" y="401" on="0"/>
        <pt x="384" y="411" on="0"/>
        <pt x="431" y="437" on="0"/>
        <pt x="458" y="479" on="0"/>
        <pt x="458" y="511" on="1"/>
        <pt x="458" y="541" on="0"/>
        <pt x="430" y="582" on="0"/>
        <pt x="381" y="607" on="0"/>
        <pt x="315" y="619" on="0"/>
        <pt x="278" y="619" on="1"/>
        <pt x="241" y="619" on="0"/>
        <pt x="199" y="617" on="0"/>
        <pt x="182" y="615" on="1"/>
      </contour>
    </TTGlyph>
    <TTGlyph name="Backslash" xMin="-24" yMin="-138" xMax="408" yMax="830">
      <component glyphName="backslash" x="0" y="47" flags="0x214"/>
    </TTGlyph>
    <TTGlyph name="Beta" xMin="86" yMin="-6" xMax="592" yMax="700">
      <component glyphName="B" x="0" y="0" flags="0x214"/>
    </TTGlyph>
    <TTGlyph name="Braceleft" xMin="40" yMin="-138" xMax="325" yMax="830">
      <component glyphName="braceleft" x="0" y="47" flags="0x214"/>
    </TTGlyph>
    <TTGlyph name="Braceright" xMin="8" yMin="-138" xMax="293" yMax="830">
      <component glyphName="braceright" x="0" y="47" flags="0x214"/>
    </TTGlyph>
    <TTGlyph name="Bracketleft" xMin="96" yMin="-138" xMax="321" yMax="830">
      <component glyphName="bracketleft" x="0" y="47" flags="0x214"/>
    </TTGlyph>
    <TTGlyph name="Bracketright" xMin="8" yMin="-138" xMax="233" yMax="830">
      <component glyphName="bracketright" x="0" y="47" flags="0x214"/>
    </TTGlyph>
    <TTGlyph name="Bullet" xMin="52" yMin="226" xMax="308" yMax="480">
      <component glyphName="bullet" x="0" y="0" flags="0x214"/>
    </TTGlyph>
    <TTGlyph name="C" xMin="58" yMin="-15" xMax="595" yMax="709">
      <contour>
        <pt x="384" y="-15" on="1"/>
        <pt x="311" y="-15" on="0"/>
        <pt x="191" y="33" on="0"/>
        <pt x="105" y="125" on="0"/>
        <pt x="58" y="260" on="0"/>
        <pt x="58" y="347" on="1"/>
        <pt x="58" y="434" on="0"/>
        <pt x="111" y="569" on="0"/>
        <pt x="201" y="661" on="0"/>
        <pt x="321" y="709" on="0"/>
        <pt x="389" y="709" on="1"/>
        <pt x="432" y="709" on="0"/>
        <pt x="501" y="697" on="0"/>
        <pt x="552" y="681" on="0"/>
        <pt x="584" y="665" on="0"/>
        <pt x="590" y="661" on="1"/>
        <pt x="562" y="581" on="1"/>
        <pt x="553" y="587" on="0"/>
        <pt x="519" y="601" on="0"/>
        <pt x="476" y="615" on="0"/>
        <pt x="425" y="624" on="0"/>
        <pt x="399" y="624" on="1"/>
        <pt x="344" y="624" on="0"/>
        <pt x="256" y="586" on="0"/>
        <pt x="194" y="514" on="0"/>
        <pt x="161" y="411" on="0"/>
        <pt x="161" y="347" on="1"/>
        <pt x="161" y="285" on="0"/>
        <pt x="190" y="183" on="0"/>
        <pt x="248" y="110" on="0"/>
        <pt x="335" y="70" on="0"/>
        <pt x="393" y="70" on="1"/>
        <pt x="460" y="70" on="0"/>
        <pt x="548" y="98" on="0"/>
        <pt x="570" y="109" on="1"/>
        <pt x="595" y="29" on="1"/>
        <pt x="588" y="24" on="0"/>
        <pt x="552" y="9" on="0"/>
        <pt x="498" y="-5" on="0"/>
        <pt x="426" y="-15" on="0"/>
      </contour>
    </TTGlyph>
    <TTGlyph name="Cacute" xMin="58" yMin="-15" xMax="595" yMax="932">
      <component glyphName="C" x="0" y="0" flags="0x204"/>
      <component glyphName="acute" x="173" y="156" flags="0x4"/>
    </TTGlyph>
    <TTGlyph name="Ccaron" xMin="58" yMin="-15" xMax="595" yMax="929">
      <component glyphName="C" x="0" y="0" flags="0x204"/>
      <component glyphName="caron" x="179" y="156" flags="0x4"/>
    </TTGlyph>
    <TTGlyph name="Ccedilla" xMin="58" yMin="-189" xMax="595" yMax="709">
      <contour>
        <pt x="330" y="-11" on="1"/>
        <pt x="268" y="-3" on="0"/>
        <pt x="168" y="52" on="0"/>
        <pt x="97" y="143" on="0"/>
        <pt x="58" y="268" on="0"/>
        <pt x="58" y="347" on="1"/>
        <pt x="58" y="434" on="0"/>
        <pt x="111" y="569" on="0"/>
        <pt x="201" y="661" on="0"/>
        <pt x="321" y="709" on="0"/>
        <pt x="389" y="709" on="1"/>
        <pt x="432" y="709" on="0"/>
        <pt x="501" y="697" on="0"/>
        <pt x="552" y="681" on="0"/>
        <pt x="584" y="665" on="0"/>
        <pt x="590" y="661" on="1"/>
        <pt x="562" y="581" on="1"/>
        <pt x="553" y="587" on="0"/>
        <pt x="519" y="601" on="0"/>
        <pt x="476" y="615" on="0"/>
        <pt x="425" y="624" on="0"/>
        <pt x="399" y="624" on="1"/>
        <pt x="344" y="624" on="0"/>
        <pt x="256" y="586" on="0"/>
        <pt x="194" y="514" on="0"/>
        <pt x="161" y="411" on="0"/>
        <pt x="161" y="347" on="1"/>
        <pt x="161" y="285" on="0"/>
        <pt x="190" y="183" on="0"/>
        <pt x="248" y="110" on="0"/>
        <pt x="335" y="70" on="0"/>
        <pt x="393" y="70" on="1"/>
        <pt x="460" y="70" on="0"/>
        <pt x="548" y="98" on="0"/>
        <pt x="570" y="109" on="1"/>
        <pt x="595" y="29" on="1"/>
        <pt x="581" y="18" on="0"/>
        <pt x="474" y="-13" on="0"/>
        <pt x="392" y="-15" on="1"/>
        <pt x="389" y="-21" on="0"/>
        <pt x="384" y="-32" on="0"/>
        <pt x="382" y="-37" on="1"/>
        <pt x="411" y="-51" on="0"/>
        <pt x="437" y="-84" on="0"/>
        <pt x="437" y="-116" on="1"/>
        <pt x="437" y="-127" on="0"/>
        <pt x="427" y="-153" on="0"/>
        <pt x="403" y="-175" on="0"/>
        <pt x="363" y="-189" on="0"/>
        <pt x="334" y="-189" on="1"/>
        <pt x="308" y="-189" on="0"/>
        <pt x="265" y="-181" on="0"/>
        <pt x="252" y="-176" on="1"/>
        <pt x="263" y="-119" on="1"/>
        <pt x="275" y="-123" on="0"/>
        <pt x="302" y="-129" on="0"/>
        <pt x="319" y="-129" on="1"/>
        <pt x="355" y="-129" on="0"/>
        <pt x="355" y="-106" on="1"/>
        <pt x="355" y="-95" on="0"/>
        <pt x="333" y="-80" on="0"/>
        <pt x="313" y="-72" on="1"/>
        <pt x="306" y="-69" on="1"/>
        <pt x="310" y="-57" on="0"/>
        <pt x="323" y="-25" on="0"/>
      </contour>
    </TTGlyph>
    <TTGlyph name="Ccircumflex" xMin="58" yMin="-15" xMax="595" yMax="925">
      <component glyphName="C" x="0" y="0" flags="0x204"/>
      <component glyphName="circumflex" x="179" y="156" flags="0x4"/>
    </TTGlyph>
    <TTGlyph name="Cdotaccent" xMin="58" yMin="-15" xMax="595" yMax="892">
      <component glyphName="C" x="0" y="0" flags="0x204"/>
      <component glyphName="dotaccent" x="179" y="156" flags="0x4"/>
    </TTGlyph>
    <TTGlyph name="Chi" xMin="23" yMin="0" xMax="611" yMax="693">
      <component glyphName="X" x="0" y="0" flags="0x214"/>
    </TTGlyph>
    <TTGlyph name="D" xMin="86" yMin="-6" xMax="655" yMax="700">
      <contour>
        <pt x="655" y="347" on="1"/>
        <pt x="655" y="257" on="0"/>
        <pt x="599" y="124" on="0"/>
        <pt x="497" y="37" on="0"/>
        <pt x="355" y="-6" on="0"/>
        <pt x="270" y="-6" on="1"/>
        <pt x="228" y="-6" on="0"/>
        <pt x="127" y="1" on="0"/>
        <pt x="86" y="11" on="1"/>
        <pt x="86" y="683" on="1"/>
        <pt x="127" y="693" on="0"/>
        <pt x="228" y="700" on="0"/>
        <pt x="270" y="700" on="1"/>
        <pt x="355" y="700" on="0"/>
        <pt x="497" y="657" on="0"/>
        <pt x="599" y="570" on="0"/>
        <pt x="655" y="437" on="0"/>
      </contour>
      <contour>
        <pt x="278" y="79" on="1"/>
        <pt x="416" y="79" on="0"/>
        <pt x="552" y="220" on="0"/>
        <pt x="552" y="347" on="1"/>
        <pt x="552" y="474" on="0"/>
        <pt x="416" y="615" on="0"/>
        <pt x="278" y="615" on="1"/>
        <pt x="237" y="615" on="0"/>
        <pt x="192" y="613" on="0"/>
        <pt x="183" y="612" on="1"/>
        <pt x="183" y="82" on="1"/>
        <pt x="192" y="81" on="0"/>
        <pt x="237" y="79" on="0"/>
      </contour>
    </TTGlyph>
    <TTGlyph name="Dcaron" xMin="86" yMin="-6" xMax="655" yMax="929">
      <component glyphName="D" x="0" y="0" flags="0x204"/>
      <component glyphName="caron" x="143" y="156" flags="0x4"/>
    </TTGlyph>
    <TTGlyph name="Dcroat" xMin="19" yMin="-6" xMax="668" yMax="700">
      <component glyphName="Eth" x="0" y="0" flags="0x204"/>
    </TTGlyph>
    <TTGlyph name="Delta" xMin="8" yMin="0" xMax="643" yMax="693">
      <contour>
        <pt x="8" y="0" on="1"/>
        <pt x="42" y="108" on="0"/>
        <pt x="107" y="290" on="0"/>
        <pt x="173" y="455" on="0"/>
        <pt x="242" y="611" on="0"/>
        <pt x="281" y="693" on="1"/>
        <pt x="370" y="693" on="1"/>
        <pt x="409" y="611" on="0"/>
        <pt x="478" y="455" on="0"/>
        <pt x="544" y="290" on="0"/>
        <pt x="609" y="108" on="0"/>
        <pt x="643" y="0" on="1"/>
      </contour>
      <contour>
        <pt x="323" y="582" on="1"/>
        <pt x="301" y="537" on="0"/>
        <pt x="201" y="294" on="0"/>
        <pt x="131" y="82" on="1"/>
        <pt x="514" y="82" on="1"/>
        <pt x="444" y="294" on="0"/>
        <pt x="344" y="537" on="0"/>
      </contour>
    </TTGlyph>
    <TTGlyph name="E" xMin="86" yMin="0" xMax="534" yMax="693">
      <contour>
        <pt x="86" y="0" on="1"/>
        <pt x="86" y="693" on="1"/>
        <pt x="509" y="693" on="1"/>
        <pt x="509" y="610" on="1"/>
        <pt x="183" y="610" on="1"/>
        <pt x="183" y="404" on="1"/>
        <pt x="473" y="404" on="1"/>
        <pt x="473" y="323" on="1"/>
        <pt x="183" y="323" on="1"/>
        <pt x="183" y="83" on="1"/>
        <pt x="534" y="83" on="1"/>
        <pt x="534" y="0" on="1"/>
      </contour>
    </TTGlyph>
    <TTGlyph name="Eacute" xMin="86" yMin="0" xMax="534" yMax="932">
      <component glyphName="E" x="0" y="0" flags="0x204"/>
      <component glyphName="acute" x="126" y="156" flags="0x4"/>
    </TTGlyph>
    <TTGlyph name="Ebreve" xMin="86" yMin="0" xMax="534" yMax="905">
      <component glyphName="E" x="0" y="0" flags="0x204"/>
      <component glyphName="breve" x="97" y="156" flags="0x4"/>
    </TTGlyph>
    <TTGlyph name="Ecaron" xMin="86" yMin="0" xMax="534" yMax="929">
      <component glyphName="E" x="0" y="0" flags="0x204"/>
      <component glyphName="caron" x="100" y="156" flags="0x4"/>
    </TTGlyph>
    <TTGlyph name="Ecircumflex" xMin="86" yMin="0" xMax="534" yMax="925">
      <component glyphName="E" x="0" y="0" flags="0x204"/>
      <component glyphName="circumflex" x="109" y="156" flags="0x4"/>
    </TTGlyph>
    <TTGlyph name="Edieresis" xMin="86" yMin="0" xMax="534" yMax="890">
      <component glyphName="E" x="0" y="0" flags="0x204"/>
      <component glyphName="dieresis" x="109" y="156" flags="0x4"/>
    </TTGlyph>
    <TTGlyph name="Edotaccent" xMin="86" yMin="0" xMax="534" yMax="892">
      <component glyphName="E" x="0" y="0" flags="0x204"/>
      <component glyphName="dotaccent" x="109" y="156" flags="0x4"/>
    </TTGlyph>
    <TTGlyph name="Egrave" xMin="86" yMin="0" xMax="534" yMax="932">
      <component glyphName="E" x="0" y="0" flags="0x204"/>
      <component glyphName="grave" x="139" y="156" flags="0x4"/>
    </TTGlyph>
    <TTGlyph name="Emacron" xMin="86" yMin="0" xMax="534" yMax="867">
      <component glyphName="E" x="0" y="0" flags="0x204"/>
      <component glyphName="macron" x="109" y="156" flags="0x4"/>
    </TTGlyph>
    <TTGlyph name="Emdash" xMin="-2" yMin="307" xMax="998" yMax="386">
      <component glyphName="emdash" x="0" y="47" flags="0x214"/>
    </TTGlyph>
    <TTGlyph name="Endash" xMin="-2" yMin="307" xMax="498" yMax="386">
      <component glyphName="endash" x="0" y="47" flags="0x214"/>
    </TTGlyph>
    <TTGlyph name="Eng" xMin="86" yMin="-187" xMax="642" yMax="693">
      <contour>
        <pt x="547" y="24" on="1"/>
        <pt x="512" y="81" on="0"/>
        <pt x="419" y="223" on="0"/>
        <pt x="319" y="365" on="0"/>
        <pt x="221" y="496" on="0"/>
        <pt x="181" y="541" on="1"/>
        <pt x="181" y="0" on="1"/>
        <pt x="86" y="0" on="1"/>
        <pt x="86" y="693" on="1"/>
        <pt x="163" y="693" on="1"/>
        <pt x="210" y="643" on="0"/>
        <pt x="317" y="510" on="0"/>
        <pt x="422" y="369" on="0"/>
        <pt x="515" y="233" on="0"/>
        <pt x="547" y="180" on="1"/>
        <pt x="547" y="693" on="1"/>
        <pt x="642" y="693" on="1"/>
        <pt x="642" y="0" on="1"/>
        <pt x="642" y="-46" on="0"/>
        <pt x="630" y="-116" on="0"/>
        <pt x="598" y="-163" on="0"/>
        <pt x="540" y="-187" on="0"/>
        <pt x="495" y="-187" on="1"/>
        <pt x="481" y="-187" on="0"/>
        <pt x="444" y="-182" on="0"/>
        <pt x="433" y="-179" on="1"/>
        <pt x="442" y="-106" on="1"/>
        <pt x="450" y="-109" on="0"/>
        <pt x="477" y="-111" on="0"/>
        <pt x="485" y="-111" on="1"/>
        <pt x="522" y="-111" on="0"/>
        <pt x="547" y="-62" on="0"/>
        <pt x="547" y="-17" on="1"/>
      </contour>
    </TTGlyph>
    <TTGlyph name="Eogonek" xMin="86" yMin="-187" xMax="538" yMax="693">
      <contour>
        <pt x="86" y="0" on="1"/>
        <pt x="86" y="693" on="1"/>
        <pt x="509" y="693" on="1"/>
        <pt x="509" y="610" on="1"/>
        <pt x="183" y="610" on="1"/>
        <pt x="183" y="404" on="1"/>
        <pt x="473" y="404" on="1"/>
        <pt x="473" y="323" on="1"/>
        <pt x="183" y="323" on="1"/>
        <pt x="183" y="83" on="1"/>
        <pt x="534" y="83" on="1"/>
        <pt x="534" y="2" on="1"/>
        <pt x="525" y="-3" on="0"/>
        <pt x="495" y="-23" on="0"/>
        <pt x="480" y="-39" on="1"/>
        <pt x="466" y="-55" on="0"/>
        <pt x="450" y="-79" on="0"/>
        <pt x="450" y="-93" on="1"/>
        <pt x="450" y="-122" on="0"/>
        <pt x="490" y="-122" on="1"/>
        <pt x="497" y="-122" on="0"/>
        <pt x="520" y="-119" on="0"/>
        <pt x="531" y="-115" on="1"/>
        <pt x="538" y="-176" on="1"/>
        <pt x="527" y="-181" on="0"/>
        <pt x="492" y="-187" on="0"/>
        <pt x="472" y="-187" on="1"/>
        <pt x="416" y="-187" on="0"/>
        <pt x="362" y="-146" on="0"/>
        <pt x="362" y="-111" on="1"/>
        <pt x="362" y="-88" on="0"/>
        <pt x="387" y="-45" on="0"/>
        <pt x="404" y="-27" on="1"/>
        <pt x="412" y="-19" on="0"/>
        <pt x="425" y="-6" on="0"/>
        <pt x="433" y="0" on="1"/>
      </contour>
    </TTGlyph>
    <TTGlyph name="Epsilon" xMin="86" yMin="0" xMax="534" yMax="693">
      <component glyphName="E" x="0" y="0" flags="0x214"/>
    </TTGlyph>
    <TTGlyph name="Epsilontonos" xMin="-29" yMin="0" xMax="597" yMax="709">
      <component glyphName="E" x="63" y="0" flags="0x4"/>
      <component glyphName="tonos.cap" x="-148" y="0" flags="0x4"/>
    </TTGlyph>
    <TTGlyph name="Eta" xMin="86" yMin="0" xMax="619" yMax="693">
      <component glyphName="H" x="0" y="0" flags="0x214"/>
    </TTGlyph>
    <TTGlyph name="Etatonos" xMin="-29" yMin="0" xMax="687" yMax="709">
      <component glyphName="H" x="68" y="0" flags="0x4"/>
      <component glyphName="tonos.cap" x="-148" y="0" flags="0x4"/>
    </TTGlyph>
    <TTGlyph name="Eth" xMin="19" yMin="-6" xMax="668" yMax="700">
      <contour>
        <pt x="668" y="347" on="1"/>
        <pt x="668" y="257" on="0"/>
        <pt x="612" y="124" on="0"/>
        <pt x="510" y="37" on="0"/>
        <pt x="368" y="-6" on="0"/>
        <pt x="283" y="-6" on="1"/>
        <pt x="241" y="-6" on="0"/>
        <pt x="140" y="1" on="0"/>
        <pt x="99" y="11" on="1"/>
        <pt x="99" y="324" on="1"/>
        <pt x="19" y="324" on="1"/>
        <pt x="19" y="399" on="1"/>
        <pt x="99" y="399" on="1"/>
        <pt x="99" y="683" on="1"/>
        <pt x="140" y="693" on="0"/>
        <pt x="241" y="700" on="0"/>
        <pt x="283" y="700" on="1"/>
        <pt x="368" y="700" on="0"/>
        <pt x="510" y="657" on="0"/>
        <pt x="612" y="570" on="0"/>
        <pt x="668" y="437" on="0"/>
      </contour>
      <contour>
        <pt x="291" y="79" on="1"/>
        <pt x="429" y="79" on="0"/>
        <pt x="565" y="220" on="0"/>
        <pt x="565" y="347" on="1"/>
        <pt x="565" y="474" on="0"/>
        <pt x="429" y="615" on="0"/>
        <pt x="291" y="615" on="1"/>
        <pt x="250" y="615" on="0"/>
        <pt x="205" y="613" on="0"/>
        <pt x="196" y="612" on="1"/>
        <pt x="196" y="399" on="1"/>
        <pt x="326" y="399" on="1"/>
        <pt x="326" y="324" on="1"/>
        <pt x="196" y="324" on="1"/>
        <pt x="196" y="82" on="1"/>
        <pt x="205" y="81" on="0"/>
        <pt x="250" y="79" on="0"/>
      </contour>
    </TTGlyph>
    <TTGlyph name="Euro" xMin="45" yMin="-13" xMax="551" yMax="706">
      <contour>
        <pt x="137" y="472" on="1"/>
        <pt x="160" y="589" on="0"/>
        <pt x="296" y="706" on="0"/>
        <pt x="402" y="706" on="1"/>
        <pt x="446" y="706" on="0"/>
        <pt x="504" y="695" on="0"/>
        <pt x="533" y="686" on="1"/>
        <pt x="513" y="606" on="1"/>
        <pt x="489" y="615" on="0"/>
        <pt x="432" y="626" on="0"/>
        <pt x="402" y="626" on="1"/>
        <pt x="364" y="626" on="0"/>
        <pt x="307" y="604" on="0"/>
        <pt x="266" y="564" on="0"/>
        <pt x="240" y="507" on="0"/>
        <pt x="233" y="472" on="1"/>
        <pt x="466" y="472" on="1"/>
        <pt x="452" y="400" on="1"/>
        <pt x="223" y="400" on="1"/>
        <pt x="222" y="387" on="0"/>
        <pt x="222" y="361" on="0"/>
        <pt x="222" y="347" on="1"/>
        <pt x="222" y="334" on="0"/>
        <pt x="222" y="310" on="0"/>
        <pt x="223" y="299" on="1"/>
        <pt x="432" y="299" on="1"/>
        <pt x="418" y="227" on="1"/>
        <pt x="231" y="227" on="1"/>
        <pt x="248" y="138" on="0"/>
        <pt x="337" y="68" on="0"/>
        <pt x="404" y="68" on="1"/>
        <pt x="446" y="68" on="0"/>
        <pt x="507" y="84" on="0"/>
        <pt x="531" y="95" on="1"/>
        <pt x="551" y="16" on="1"/>
        <pt x="534" y="7" on="0"/>
        <pt x="450" y="-13" on="0"/>
        <pt x="399" y="-13" on="1"/>
        <pt x="282" y="-13" on="0"/>
        <pt x="154" y="114" on="0"/>
        <pt x="135" y="227" on="1"/>
        <pt x="45" y="227" on="1"/>
        <pt x="45" y="299" on="1"/>
        <pt x="127" y="299" on="1"/>
        <pt x="126" y="310" on="0"/>
        <pt x="126" y="334" on="0"/>
        <pt x="126" y="347" on="1"/>
        <pt x="126" y="361" on="0"/>
        <pt x="126" y="387" on="0"/>
        <pt x="127" y="400" on="1"/>
        <pt x="45" y="400" on="1"/>
        <pt x="45" y="472" on="1"/>
      </contour>
    </TTGlyph>
    <TTGlyph name="Exclamdown" xMin="71" yMin="0" xMax="205" yMax="705">
      <component glyphName="exclamdown" x="0" y="185" flags="0x214"/>
    </TTGlyph>
    <TTGlyph name="F" xMin="86" yMin="0" xMax="504" yMax="693">
      <contour>
        <pt x="86" y="0" on="1"/>
        <pt x="86" y="693" on="1"/>
        <pt x="504" y="693" on="1"/>
        <pt x="504" y="610" on="1"/>
        <pt x="183" y="610" on="1"/>
        <pt x="183" y="401" on="1"/>
        <pt x="468" y="401" on="1"/>
        <pt x="468" y="319" on="1"/>
        <pt x="183" y="319" on="1"/>
        <pt x="183" y="0" on="1"/>
      </contour>
    </TTGlyph>
    <TTGlyph name="G" xMin="58" yMin="-14" xMax="606" yMax="709">
      <contour>
        <pt x="509" y="341" on="1"/>
        <pt x="606" y="341" on="1"/>
        <pt x="606" y="17" on="1"/>
        <pt x="594" y="13" on="0"/>
        <pt x="549" y="3" on="0"/>
        <pt x="490" y="-7" on="0"/>
        <pt x="420" y="-14" on="0"/>
        <pt x="384" y="-14" on="1"/>
        <pt x="311" y="-14" on="0"/>
        <pt x="191" y="34" on="0"/>
        <pt x="105" y="126" on="0"/>
        <pt x="58" y="260" on="0"/>
        <pt x="58" y="347" on="1"/>
        <pt x="58" y="434" on="0"/>
        <pt x="111" y="569" on="0"/>
        <pt x="201" y="661" on="0"/>
        <pt x="322" y="709" on="0"/>
        <pt x="391" y="709" on="1"/>
        <pt x="438" y="709" on="0"/>
        <pt x="511" y="697" on="0"/>
        <pt x="563" y="681" on="0"/>
        <pt x="596" y="665" on="0"/>
        <pt x="602" y="661" on="1"/>
        <pt x="571" y="580" on="1"/>
        <pt x="542" y="599" on="0"/>
        <pt x="446" y="624" on="0"/>
        <pt x="396" y="624" on="1"/>
        <pt x="343" y="624" on="0"/>
        <pt x="256" y="586" on="0"/>
        <pt x="195" y="514" on="0"/>
        <pt x="161" y="411" on="0"/>
        <pt x="161" y="347" on="1"/>
        <pt x="161" y="285" on="0"/>
        <pt x="190" y="183" on="0"/>
        <pt x="249" y="110" on="0"/>
        <pt x="336" y="70" on="0"/>
        <pt x="395" y="70" on="1"/>
        <pt x="437" y="70" on="0"/>
        <pt x="496" y="79" on="0"/>
        <pt x="509" y="83" on="1"/>
      </contour>
    </TTGlyph>
    <TTGlyph name="Gamma" xMin="86" yMin="0" xMax="493" yMax="693">
      <component glyphName="afii10020" x="0" y="0" flags="0x214"/>
    </TTGlyph>
    <TTGlyph name="Gbreve" xMin="58" yMin="-14" xMax="606" yMax="905">
      <component glyphName="G" x="0" y="0" flags="0x204"/>
      <component glyphName="breve" x="184" y="156" flags="0x4"/>
    </TTGlyph>
    <TTGlyph name="Gcaron" xMin="58" yMin="-14" xMax="606" yMax="929">
      <component glyphName="G" x="0" y="0" flags="0x204"/>
      <component glyphName="caron" x="188" y="156" flags="0x4"/>
    </TTGlyph>
    <TTGlyph name="Gcircumflex" xMin="58" yMin="-14" xMax="606" yMax="925">
      <component glyphName="G" x="0" y="0" flags="0x204"/>
      <component glyphName="circumflex" x="187" y="156" flags="0x4"/>
    </TTGlyph>
    <TTGlyph name="Gcommaaccent" xMin="58" yMin="-188" xMax="606" yMax="709">
      <component glyphName="G" x="0" y="0" flags="0x204"/>
      <component glyphName="commaaccent" x="249" y="0" flags="0x4"/>
    </TTGlyph>
    <TTGlyph name="Gdotaccent" xMin="58" yMin="-14" xMax="606" yMax="892">
      <component glyphName="G" x="0" y="0" flags="0x204"/>
      <component glyphName="dotaccent" x="187" y="156" flags="0x4"/>
    </TTGlyph>
    <TTGlyph name="Guillemotleft" xMin="30" yMin="125" xMax="459" yMax="567">
      <component glyphName="guilsinglleft" x="0" y="62" flags="0x4"/>
      <component glyphName="guilsinglleft" x="208" y="62" flags="0x4"/>
    </TTGlyph>
    <TTGlyph name="Guillemotright" xMin="40" yMin="125" xMax="469" yMax="567">
      <component glyphName="guilsinglright" x="0" y="62" flags="0x4"/>
      <component glyphName="guilsinglright" x="208" y="62" flags="0x4"/>
    </TTGlyph>
    <TTGlyph name="Guilsinglleft" xMin="30" yMin="125" xMax="251" yMax="567">
      <component glyphName="guilsinglleft" x="0" y="62" flags="0x214"/>
    </TTGlyph>
    <TTGlyph name="Guilsinglright" xMin="40" yMin="125" xMax="261" yMax="567">
      <component glyphName="guilsinglright" x="0" y="62" flags="0x214"/>
    </TTGlyph>
    <TTGlyph name="H" xMin="86" yMin="0" xMax="619" yMax="693">
      <contour>
        <pt x="522" y="693" on="1"/>
        <pt x="619" y="693" on="1"/>
        <pt x="619" y="0" on="1"/>
        <pt x="522" y="0" on="1"/>
        <pt x="522" y="320" on="1"/>
        <pt x="183" y="320" on="1"/>
        <pt x="183" y="0" on="1"/>
        <pt x="86" y="0" on="1"/>
        <pt x="86" y="693" on="1"/>
        <pt x="183" y="693" on="1"/>
        <pt x="183" y="404" on="1"/>
        <pt x="522" y="404" on="1"/>
      </contour>
    </TTGlyph>
    <TTGlyph name="Hbar" xMin="19" yMin="0" xMax="712" yMax="693">
      <contour>
        <pt x="19" y="594" on="1"/>
        <pt x="99" y="594" on="1"/>
        <pt x="99" y="693" on="1"/>
        <pt x="196" y="693" on="1"/>
        <pt x="196" y="594" on="1"/>
        <pt x="535" y="594" on="1"/>
        <pt x="535" y="693" on="1"/>
        <pt x="632" y="693" on="1"/>
        <pt x="632" y="594" on="1"/>
        <pt x="712" y="594" on="1"/>
        <pt x="712" y="523" on="1"/>
        <pt x="632" y="523" on="1"/>
        <pt x="632" y="0" on="1"/>
        <pt x="535" y="0" on="1"/>
        <pt x="535" y="320" on="1"/>
        <pt x="196" y="320" on="1"/>
        <pt x="196" y="0" on="1"/>
        <pt x="99" y="0" on="1"/>
        <pt x="99" y="523" on="1"/>
        <pt x="19" y="523" on="1"/>
      </contour>
      <contour>
        <pt x="535" y="523" on="1"/>
        <pt x="196" y="523" on="1"/>
        <pt x="196" y="404" on="1"/>
        <pt x="535" y="404" on="1"/>
      </contour>
    </TTGlyph>
    <TTGlyph name="Hcircumflex" xMin="86" yMin="0" xMax="619" yMax="925">
      <component glyphName="H" x="0" y="0" flags="0x204"/>
      <component glyphName="circumflex" x="164" y="156" flags="0x4"/>
    </TTGlyph>
    <TTGlyph name="Hyphen" xMin="26" yMin="303" xMax="273" yMax="390">
      <component glyphName="hyphen" x="0" y="47" flags="0x214"/>
    </TTGlyph>
    <TTGlyph name="I" xMin="86" yMin="0" xMax="183" yMax="693">
      <contour>
        <pt x="86" y="693" on="1"/>
        <pt x="183" y="693" on="1"/>
        <pt x="183" y="0" on="1"/>
        <pt x="86" y="0" on="1"/>
      </contour>
    </TTGlyph>
    <TTGlyph name="IJ" xMin="86" yMin="-15" xMax="692" yMax="693">
      <component glyphName="I" x="0" y="0" flags="0x4"/>
      <component glyphName="J" x="273" y="0" flags="0x4"/>
    </TTGlyph>
    <TTGlyph name="Iacute" xMin="68" yMin="0" xMax="256" yMax="932">
      <component glyphName="I" x="0" y="0" flags="0x204"/>
      <component glyphName="acute" x="-59" y="156" flags="0x4"/>
    </TTGlyph>
    <TTGlyph name="Ibreve" xMin="1" yMin="0" xMax="269" yMax="905">
      <component glyphName="I" x="0" y="0" flags="0x204"/>
      <component glyphName="breve" x="-56" y="156" flags="0x4"/>
    </TTGlyph>
    <TTGlyph name="Icircumflex" xMin="-1" yMin="0" xMax="271" yMax="925">
      <component glyphName="I" x="0" y="0" flags="0x204"/>
      <component glyphName="circumflex" x="-53" y="156" flags="0x4"/>
    </TTGlyph>
    <TTGlyph name="Idieresis" xMin="-18" yMin="0" xMax="288" yMax="890">
      <component glyphName="I" x="0" y="0" flags="0x204"/>
      <component glyphName="dieresis" x="-53" y="156" flags="0x4"/>
    </TTGlyph>
    <TTGlyph name="Idotaccent" xMin="75" yMin="0" xMax="195" yMax="892">
      <component glyphName="I" x="0" y="0" flags="0x204"/>
      <component glyphName="dotaccent" x="-53" y="156" flags="0x4"/>
    </TTGlyph>
    <TTGlyph name="Igrave" xMin="15" yMin="0" xMax="203" yMax="932">
      <component glyphName="I" x="0" y="0" flags="0x204"/>
      <component glyphName="grave" x="-46" y="156" flags="0x4"/>
    </TTGlyph>
    <TTGlyph name="Imacron" xMin="-7" yMin="0" xMax="277" yMax="867">
      <component glyphName="I" x="0" y="0" flags="0x204"/>
      <component glyphName="macron" x="-53" y="156" flags="0x4"/>
    </TTGlyph>
    <TTGlyph name="Iogonek" xMin="17" yMin="-187" xMax="193" yMax="693">
      <contour>
        <pt x="86" y="693" on="1"/>
        <pt x="183" y="693" on="1"/>
        <pt x="183" y="0" on="1"/>
        <pt x="172" y="-8" on="0"/>
        <pt x="149" y="-26" on="0"/>
        <pt x="137" y="-39" on="1"/>
        <pt x="123" y="-55" on="0"/>
        <pt x="105" y="-79" on="0"/>
        <pt x="105" y="-93" on="1"/>
        <pt x="105" y="-122" on="0"/>
        <pt x="145" y="-122" on="1"/>
        <pt x="152" y="-122" on="0"/>
        <pt x="175" y="-119" on="0"/>
        <pt x="186" y="-115" on="1"/>
        <pt x="193" y="-176" on="1"/>
        <pt x="169" y="-187" on="0"/>
        <pt x="127" y="-187" on="1"/>
        <pt x="70" y="-187" on="0"/>
        <pt x="17" y="-146" on="0"/>
        <pt x="17" y="-111" on="1"/>
        <pt x="17" y="-88" on="0"/>
        <pt x="43" y="-45" on="0"/>
        <pt x="60" y="-27" on="1"/>
        <pt x="68" y="-19" on="0"/>
        <pt x="81" y="-6" on="0"/>
        <pt x="86" y="-2" on="1"/>
      </contour>
    </TTGlyph>
    <TTGlyph name="Iota" xMin="86" yMin="0" xMax="183" yMax="693">
      <component glyphName="I" x="0" y="0" flags="0x214"/>
    </TTGlyph>
    <TTGlyph name="Iotadieresis" xMin="-18" yMin="0" xMax="288" yMax="890">
      <component glyphName="I" x="0" y="0" flags="0x204"/>
      <component glyphName="dieresis" x="-53" y="156" flags="0x4"/>
    </TTGlyph>
    <TTGlyph name="Iotatonos" xMin="-29" yMin="0" xMax="251" yMax="709">
      <component glyphName="I" x="68" y="0" flags="0x4"/>
      <component glyphName="tonos.cap" x="-148" y="0" flags="0x4"/>
    </TTGlyph>
    <TTGlyph name="Itilde" xMin="-29" yMin="0" xMax="300" yMax="891">
      <component glyphName="I" x="0" y="0" flags="0x204"/>
      <component glyphName="tilde" x="-52" y="156" flags="0x4"/>
    </TTGlyph>
    <TTGlyph name="J" xMin="8" yMin="-15" xMax="419" yMax="693">
      <contour>
        <pt x="419" y="223" on="1"/>
        <pt x="419" y="173" on="0"/>
        <pt x="398" y="87" on="0"/>
        <pt x="345" y="22" on="0"/>
        <pt x="256" y="-15" on="0"/>
        <pt x="189" y="-15" on="1"/>
        <pt x="155" y="-15" on="0"/>
        <pt x="98" y="-4" on="0"/>
        <pt x="52" y="13" on="0"/>
        <pt x="18" y="32" on="0"/>
        <pt x="8" y="41" on="1"/>
        <pt x="46" y="118" on="1"/>
        <pt x="67" y="103" on="0"/>
        <pt x="134" y="70" on="0"/>
        <pt x="184" y="70" on="1"/>
        <pt x="256" y="70" on="0"/>
        <pt x="322" y="143" on="0"/>
        <pt x="322" y="232" on="1"/>
        <pt x="322" y="693" on="1"/>
        <pt x="419" y="693" on="1"/>
      </contour>
    </TTGlyph>
    <TTGlyph name="Jcircumflex" xMin="8" yMin="-15" xMax="506" yMax="925">
      <component glyphName="J" x="0" y="0" flags="0x204"/>
      <component glyphName="circumflex" x="182" y="156" flags="0x4"/>
    </TTGlyph>
    <TTGlyph name="K" xMin="86" yMin="0" xMax="623" yMax="693">
      <contour>
        <pt x="599" y="693" on="1"/>
        <pt x="568" y="659" on="0"/>
        <pt x="490" y="576" on="0"/>
        <pt x="405" y="489" on="0"/>
        <pt x="321" y="405" on="0"/>
        <pt x="284" y="369" on="1"/>
        <pt x="327" y="339" on="0"/>
        <pt x="423" y="251" on="0"/>
        <pt x="515" y="151" on="0"/>
        <pt x="596" y="47" on="0"/>
        <pt x="623" y="0" on="1"/>
        <pt x="509" y="0" on="1"/>
        <pt x="479" y="47" on="0"/>
        <pt x="401" y="142" on="0"/>
        <pt x="314" y="229" on="0"/>
        <pt x="225" y="303" on="0"/>
        <pt x="183" y="329" on="1"/>
        <pt x="183" y="0" on="1"/>
        <pt x="86" y="0" on="1"/>
        <pt x="86" y="693" on="1"/>
        <pt x="183" y="693" on="1"/>
        <pt x="183" y="387" on="1"/>
        <pt x="218" y="420" on="0"/>
        <pt x="302" y="503" on="0"/>
        <pt x="384" y="587" on="0"/>
        <pt x="457" y="664" on="0"/>
        <pt x="482" y="693" on="1"/>
      </contour>
    </TTGlyph>
    <TTGlyph name="Kappa" xMin="86" yMin="0" xMax="623" yMax="693">
      <component glyphName="K" x="0" y="0" flags="0x214"/>
    </TTGlyph>
    <TTGlyph name="Kcommaaccent" xMin="86" yMin="-188" xMax="623" yMax="693">
      <component glyphName="K" x="0" y="0" flags="0x204"/>
      <component glyphName="commaaccent" x="204" y="0" flags="0x4"/>
    </TTGlyph>
    <TTGlyph name="L" xMin="86" yMin="0" xMax="503" yMax="693">
      <contour>
        <pt x="503" y="84" on="1"/>
        <pt x="503" y="0" on="1"/>
        <pt x="86" y="0" on="1"/>
        <pt x="86" y="693" on="1"/>
        <pt x="183" y="693" on="1"/>
        <pt x="183" y="84" on="1"/>
      </contour>
    </TTGlyph>
    <TTGlyph name="Lacute" xMin="86" yMin="0" xMax="503" yMax="932">
      <component glyphName="L" x="0" y="0" flags="0x204"/>
      <component glyphName="acute" x="-35" y="156" flags="0x4"/>
    </TTGlyph>
    <TTGlyph name="Lambda" xMin="8" yMin="0" xMax="644" yMax="693">
      <contour>
        <pt x="8" y="0" on="1"/>
        <pt x="45" y="110" on="0"/>
        <pt x="115" y="297" on="0"/>
        <pt x="181" y="465" on="0"/>
        <pt x="246" y="618" on="0"/>
        <pt x="280" y="693" on="1"/>
        <pt x="371" y="693" on="1"/>
        <pt x="405" y="618" on="0"/>
        <pt x="470" y="465" on="0"/>
        <pt x="537" y="297" on="0"/>
        <pt x="606" y="110" on="0"/>
        <pt x="644" y="0" on="1"/>
        <pt x="537" y="0" on="1"/>
        <pt x="483" y="158" on="0"/>
        <pt x="379" y="450" on="0"/>
        <pt x="324" y="578" on="1"/>
        <pt x="269" y="451" on="0"/>
        <pt x="165" y="158" on="0"/>
        <pt x="112" y="0" on="1"/>
      </contour>
    </TTGlyph>
    <TTGlyph name="Lcaron" xMin="86" yMin="0" xMax="503" yMax="694">
      <component glyphName="L" x="0" y="0" flags="0x204"/>
      <component glyphName="caron.alt" x="123" y="-82" flags="0x4"/>
    </TTGlyph>
    <TTGlyph name="Lcommaaccent" xMin="86" yMin="-188" xMax="503" yMax="693">
      <component glyphName="L" x="0" y="0" flags="0x204"/>
      <component glyphName="commaaccent" x="168" y="0" flags="0x4"/>
    </TTGlyph>
    <TTGlyph name="Ldot" xMin="86" yMin="0" xMax="503" yMax="693">
      <component glyphName="L" x="0" y="0" flags="0x204"/>
      <component glyphName="dotaccent" x="207" y="-312" flags="0x4"/>
    </TTGlyph>
    <TTGlyph name="Lslash" xMin="-2" yMin="0" xMax="521" yMax="693">
      <contour>
        <pt x="521" y="84" on="1"/>
        <pt x="521" y="0" on="1"/>
        <pt x="104" y="0" on="1"/>
        <pt x="104" y="286" on="1"/>
        <pt x="31" y="249" on="1"/>
        <pt x="-2" y="315" on="1"/>
        <pt x="104" y="369" on="1"/>
        <pt x="104" y="693" on="1"/>
        <pt x="201" y="693" on="1"/>
        <pt x="201" y="419" on="1"/>
        <pt x="317" y="479" on="1"/>
        <pt x="349" y="413" on="1"/>
        <pt x="201" y="336" on="1"/>
        <pt x="201" y="84" on="1"/>
      </contour>
    </TTGlyph>
    <TTGlyph name="M" xMin="67" yMin="0" xMax="805" yMax="693">
      <contour>
        <pt x="397" y="96" on="1"/>
        <pt x="387" y="120" on="0"/>
        <pt x="354" y="194" on="0"/>
        <pt x="316" y="280" on="0"/>
        <pt x="273" y="371" on="0"/>
        <pt x="235" y="452" on="0"/>
        <pt x="202" y="516" on="0"/>
        <pt x="192" y="533" on="1"/>
        <pt x="181" y="415" on="0"/>
        <pt x="167" y="140" on="0"/>
        <pt x="162" y="0" on="1"/>
        <pt x="67" y="0" on="1"/>
        <pt x="71" y="90" on="0"/>
        <pt x="81" y="273" on="0"/>
        <pt x="94" y="450" on="0"/>
        <pt x="109" y="618" on="0"/>
        <pt x="118" y="693" on="1"/>
        <pt x="203" y="693" on="1"/>
        <pt x="230" y="649" on="0"/>
        <pt x="292" y="529" on="0"/>
        <pt x="354" y="398" on="0"/>
        <pt x="412" y="267" on="0"/>
        <pt x="436" y="213" on="1"/>
        <pt x="460" y="267" on="0"/>
        <pt x="518" y="398" on="0"/>
        <pt x="580" y="529" on="0"/>
        <pt x="642" y="649" on="0"/>
        <pt x="669" y="693" on="1"/>
        <pt x="754" y="693" on="1"/>
        <pt x="788" y="358" on="0"/>
        <pt x="805" y="0" on="1"/>
        <pt x="710" y="0" on="1"/>
        <pt x="705" y="140" on="0"/>
        <pt x="691" y="415" on="0"/>
        <pt x="680" y="533" on="1"/>
        <pt x="670" y="516" on="0"/>
        <pt x="637" y="452" on="0"/>
        <pt x="599" y="371" on="0"/>
        <pt x="556" y="280" on="0"/>
        <pt x="518" y="194" on="0"/>
        <pt x="485" y="120" on="0"/>
        <pt x="475" y="96" on="1"/>
      </contour>
    </TTGlyph>
    <TTGlyph name="Mu" xMin="67" yMin="0" xMax="805" yMax="693">
      <component glyphName="M" x="0" y="0" flags="0x214"/>
    </TTGlyph>
    <TTGlyph name="N" xMin="86" yMin="0" xMax="642" yMax="693">
      <contour>
        <pt x="561" y="0" on="1"/>
        <pt x="539" y="37" on="0"/>
        <pt x="482" y="129" on="0"/>
        <pt x="416" y="228" on="0"/>
        <pt x="345" y="330" on="0"/>
        <pt x="275" y="425" on="0"/>
        <pt x="209" y="509" on="0"/>
        <pt x="181" y="541" on="1"/>
        <pt x="181" y="0" on="1"/>
        <pt x="86" y="0" on="1"/>
        <pt x="86" y="693" on="1"/>
        <pt x="163" y="693" on="1"/>
        <pt x="210" y="643" on="0"/>
        <pt x="317" y="510" on="0"/>
        <pt x="422" y="369" on="0"/>
        <pt x="515" y="233" on="0"/>
        <pt x="547" y="180" on="1"/>
        <pt x="547" y="693" on="1"/>
        <pt x="642" y="693" on="1"/>
        <pt x="642" y="0" on="1"/>
      </contour>
    </TTGlyph>
    <TTGlyph name="Nacute" xMin="86" yMin="0" xMax="642" yMax="932">
      <component glyphName="N" x="0" y="0" flags="0x204"/>
      <component glyphName="acute" x="170" y="156" flags="0x4"/>
    </TTGlyph>
    <TTGlyph name="Ncaron" xMin="86" yMin="0" xMax="642" yMax="929">
      <component glyphName="N" x="0" y="0" flags="0x204"/>
      <component glyphName="caron" x="176" y="156" flags="0x4"/>
    </TTGlyph>
    <TTGlyph name="Ncommaaccent" xMin="86" yMin="-188" xMax="642" yMax="693">
      <component glyphName="N" x="0" y="0" flags="0x204"/>
      <component glyphName="commaaccent" x="238" y="0" flags="0x4"/>
    </TTGlyph>
    <TTGlyph name="Ntilde" xMin="86" yMin="0" xMax="642" yMax="891">
      <component glyphName="N" x="0" y="0" flags="0x204"/>
      <component glyphName="tilde" x="177" y="156" flags="0x4"/>
    </TTGlyph>
    <TTGlyph name="Nu" xMin="86" yMin="0" xMax="642" yMax="693">
      <component glyphName="N" x="0" y="0" flags="0x214"/>
    </TTGlyph>
    <TTGlyph name="O" xMin="58" yMin="-15" xMax="720" yMax="709">
      <contour>
        <pt x="58" y="347" on="1"/>
        <pt x="58" y="436" on="0"/>
        <pt x="111" y="572" on="0"/>
        <pt x="202" y="663" on="0"/>
        <pt x="323" y="709" on="0"/>
        <pt x="391" y="709" on="1"/>
        <pt x="458" y="709" on="0"/>
        <pt x="577" y="663" on="0"/>
        <pt x="667" y="572" on="0"/>
        <pt x="720" y="436" on="0"/>
        <pt x="720" y="347" on="1"/>
        <pt x="720" y="258" on="0"/>
        <pt x="667" y="122" on="0"/>
        <pt x="577" y="31" on="0"/>
        <pt x="458" y="-15" on="0"/>
        <pt x="391" y="-15" on="1"/>
        <pt x="323" y="-15" on="0"/>
        <pt x="202" y="31" on="0"/>
        <pt x="111" y="122" on="0"/>
        <pt x="58" y="258" on="0"/>
      </contour>
      <contour>
        <pt x="160" y="347" on="1"/>
        <pt x="160" y="284" on="0"/>
        <pt x="192" y="181" on="0"/>
        <pt x="251" y="109" on="0"/>
        <pt x="336" y="70" on="0"/>
        <pt x="389" y="70" on="1"/>
        <pt x="442" y="70" on="0"/>
        <pt x="526" y="109" on="0"/>
        <pt x="585" y="181" on="0"/>
        <pt x="617" y="284" on="0"/>
        <pt x="617" y="347" on="1"/>
        <pt x="617" y="410" on="0"/>
        <pt x="585" y="513" on="0"/>
        <pt x="526" y="585" on="0"/>
        <pt x="442" y="624" on="0"/>
        <pt x="389" y="624" on="1"/>
        <pt x="336" y="624" on="0"/>
        <pt x="251" y="585" on="0"/>
        <pt x="192" y="513" on="0"/>
        <pt x="160" y="410" on="0"/>
      </contour>
    </TTGlyph>
    <TTGlyph name="OE" xMin="58" yMin="-7" xMax="956" yMax="700">
      <contour>
        <pt x="161" y="347" on="1"/>
        <pt x="161" y="283" on="0"/>
        <pt x="199" y="183" on="0"/>
        <pt x="270" y="114" on="0"/>
        <pt x="372" y="77" on="0"/>
        <pt x="435" y="77" on="1"/>
        <pt x="458" y="77" on="0"/>
        <pt x="491" y="78" on="0"/>
        <pt x="502" y="79" on="1"/>
        <pt x="514" y="80" on="0"/>
        <pt x="523" y="82" on="1"/>
        <pt x="523" y="611" on="1"/>
        <pt x="501" y="614" on="0"/>
        <pt x="457" y="616" on="0"/>
        <pt x="435" y="616" on="1"/>
        <pt x="372" y="616" on="0"/>
        <pt x="270" y="579" on="0"/>
        <pt x="199" y="510" on="0"/>
        <pt x="161" y="410" on="0"/>
      </contour>
      <contour>
        <pt x="435" y="-7" on="1"/>
        <pt x="354" y="-7" on="0"/>
        <pt x="216" y="37" on="0"/>
        <pt x="115" y="125" on="0"/>
        <pt x="58" y="258" on="0"/>
        <pt x="58" y="347" on="1"/>
        <pt x="58" y="436" on="0"/>
        <pt x="116" y="568" on="0"/>
        <pt x="217" y="656" on="0"/>
        <pt x="355" y="700" on="0"/>
        <pt x="436" y="700" on="1"/>
        <pt x="459" y="700" on="0"/>
        <pt x="515" y="696" on="0"/>
        <pt x="540" y="693" on="1"/>
        <pt x="931" y="693" on="1"/>
        <pt x="931" y="612" on="1"/>
        <pt x="620" y="612" on="1"/>
        <pt x="620" y="403" on="1"/>
        <pt x="895" y="403" on="1"/>
        <pt x="895" y="324" on="1"/>
        <pt x="620" y="324" on="1"/>
        <pt x="620" y="81" on="1"/>
        <pt x="956" y="81" on="1"/>
        <pt x="956" y="0" on="1"/>
        <pt x="540" y="0" on="1"/>
        <pt x="515" y="-3" on="0"/>
        <pt x="458" y="-7" on="0"/>
      </contour>
    </TTGlyph>
    <TTGlyph name="Oacute" xMin="58" yMin="-15" xMax="720" yMax="932">
      <component glyphName="O" x="0" y="0" flags="0x204"/>
      <component glyphName="acute" x="195" y="156" flags="0x4"/>
    </TTGlyph>
    <TTGlyph name="Obreve" xMin="58" yMin="-15" xMax="720" yMax="905">
      <component glyphName="O" x="0" y="0" flags="0x204"/>
      <component glyphName="breve" x="198" y="156" flags="0x4"/>
    </TTGlyph>
    <TTGlyph name="Ocircumflex" xMin="58" yMin="-15" xMax="720" yMax="925">
      <component glyphName="O" x="0" y="0" flags="0x204"/>
      <component glyphName="circumflex" x="201" y="156" flags="0x4"/>
    </TTGlyph>
    <TTGlyph name="Odieresis" xMin="58" yMin="-15" xMax="720" yMax="890">
      <component glyphName="O" x="0" y="0" flags="0x204"/>
      <component glyphName="dieresis" x="201" y="156" flags="0x4"/>
    </TTGlyph>
    <TTGlyph name="Ograve" xMin="58" yMin="-15" xMax="720" yMax="932">
      <component glyphName="O" x="0" y="0" flags="0x204"/>
      <component glyphName="grave" x="208" y="156" flags="0x4"/>
    </TTGlyph>
    <TTGlyph name="Ohorn" xMin="58" yMin="-15" xMax="721" yMax="801">
      <contour>
        <pt x="160" y="347" on="1"/>
        <pt x="160" y="284" on="0"/>
        <pt x="192" y="181" on="0"/>
        <pt x="251" y="109" on="0"/>
        <pt x="336" y="70" on="0"/>
        <pt x="389" y="70" on="1"/>
        <pt x="441" y="70" on="0"/>
        <pt x="526" y="109" on="0"/>
        <pt x="585" y="181" on="0"/>
        <pt x="617" y="284" on="0"/>
        <pt x="617" y="347" on="1"/>
        <pt x="617" y="410" on="0"/>
        <pt x="585" y="513" on="0"/>
        <pt x="526" y="585" on="0"/>
        <pt x="441" y="624" on="0"/>
        <pt x="389" y="624" on="1"/>
        <pt x="336" y="624" on="0"/>
        <pt x="251" y="585" on="0"/>
        <pt x="192" y="513" on="0"/>
        <pt x="160" y="410" on="0"/>
      </contour>
      <contour>
        <pt x="721" y="765" on="1"/>
        <pt x="721" y="717" on="0"/>
        <pt x="680" y="631" on="0"/>
        <pt x="642" y="595" on="1"/>
        <pt x="678" y="550" on="0"/>
        <pt x="720" y="426" on="0"/>
        <pt x="720" y="347" on="1"/>
        <pt x="720" y="258" on="0"/>
        <pt x="667" y="122" on="0"/>
        <pt x="577" y="31" on="0"/>
        <pt x="458" y="-15" on="0"/>
        <pt x="391" y="-15" on="1"/>
        <pt x="323" y="-15" on="0"/>
        <pt x="202" y="31" on="0"/>
        <pt x="111" y="122" on="0"/>
        <pt x="58" y="258" on="0"/>
        <pt x="58" y="347" on="1"/>
        <pt x="58" y="436" on="0"/>
        <pt x="111" y="572" on="0"/>
        <pt x="202" y="663" on="0"/>
        <pt x="323" y="709" on="0"/>
        <pt x="391" y="709" on="1"/>
        <pt x="446" y="709" on="0"/>
        <pt x="546" y="678" on="0"/>
        <pt x="588" y="646" on="1"/>
        <pt x="614" y="675" on="0"/>
        <pt x="628" y="728" on="0"/>
        <pt x="628" y="763" on="1"/>
        <pt x="628" y="773" on="0"/>
        <pt x="627" y="795" on="0"/>
        <pt x="626" y="801" on="1"/>
        <pt x="720" y="801" on="1"/>
        <pt x="721" y="790" on="0"/>
        <pt x="721" y="771" on="0"/>
      </contour>
    </TTGlyph>
    <TTGlyph name="Ohungarumlaut" xMin="58" yMin="-15" xMax="720" yMax="932">
      <component glyphName="O" x="0" y="0" flags="0x204"/>
      <component glyphName="hungarumlaut" x="227" y="156" flags="0x4"/>
    </TTGlyph>
    <TTGlyph name="Omacron" xMin="58" yMin="-15" xMax="720" yMax="867">
      <component glyphName="O" x="0" y="0" flags="0x204"/>
      <component glyphName="macron" x="201" y="156" flags="0x4"/>
    </TTGlyph>
    <TTGlyph name="Omega" xMin="52" yMin="0" xMax="732" yMax="709">
      <contour>
        <pt x="392" y="709" on="1"/>
        <pt x="456" y="709" on="0"/>
        <pt x="574" y="666" on="0"/>
        <pt x="663" y="581" on="0"/>
        <pt x="716" y="455" on="0"/>
        <pt x="716" y="372" on="1"/>
        <pt x="716" y="325" on="0"/>
        <pt x="694" y="239" on="0"/>
        <pt x="658" y="165" on="0"/>
        <pt x="612" y="104" on="0"/>
        <pt x="589" y="82" on="1"/>
        <pt x="732" y="82" on="1"/>
        <pt x="732" y="0" on="1"/>
        <pt x="465" y="0" on="1"/>
        <pt x="465" y="68" on="1"/>
        <pt x="496" y="93" on="0"/>
        <pt x="551" y="155" on="0"/>
        <pt x="591" y="229" on="0"/>
        <pt x="614" y="318" on="0"/>
        <pt x="614" y="372" on="1"/>
        <pt x="614" y="431" on="0"/>
        <pt x="582" y="525" on="0"/>
        <pt x="524" y="590" on="0"/>
        <pt x="442" y="624" on="0"/>
        <pt x="392" y="624" on="1"/>
        <pt x="342" y="624" on="0"/>
        <pt x="260" y="590" on="0"/>
        <pt x="202" y="525" on="0"/>
        <pt x="170" y="431" on="0"/>
        <pt x="170" y="372" on="1"/>
        <pt x="170" y="318" on="0"/>
        <pt x="193" y="229" on="0"/>
        <pt x="233" y="155" on="0"/>
        <pt x="287" y="93" on="0"/>
        <pt x="319" y="68" on="1"/>
        <pt x="319" y="0" on="1"/>
        <pt x="52" y="0" on="1"/>
        <pt x="52" y="82" on="1"/>
        <pt x="195" y="82" on="1"/>
        <pt x="172" y="104" on="0"/>
        <pt x="126" y="165" on="0"/>
        <pt x="90" y="239" on="0"/>
        <pt x="68" y="325" on="0"/>
        <pt x="68" y="372" on="1"/>
        <pt x="68" y="455" on="0"/>
        <pt x="121" y="581" on="0"/>
        <pt x="210" y="666" on="0"/>
        <pt x="327" y="709" on="0"/>
      </contour>
    </TTGlyph>
    <TTGlyph name="Omegatonos" xMin="-29" yMin="0" xMax="754" yMax="709">
      <component glyphName="Omega" x="22" y="0" flags="0x4"/>
      <component glyphName="tonos.cap" x="-148" y="0" flags="0x4"/>
    </TTGlyph>
    <TTGlyph name="Omicron" xMin="58" yMin="-15" xMax="720" yMax="709">
      <component glyphName="O" x="0" y="0" flags="0x214"/>
    </TTGlyph>
    <TTGlyph name="Omicrontonos" xMin="-29" yMin="-15" xMax="745" yMax="709">
      <component glyphName="O" x="25" y="0" flags="0x4"/>
      <component glyphName="tonos.cap" x="-148" y="0" flags="0x4"/>
    </TTGlyph>
    <TTGlyph name="Oslash" xMin="58" yMin="-36" xMax="720" yMax="730">
      <contour>
        <pt x="58" y="347" on="1"/>
        <pt x="58" y="436" on="0"/>
        <pt x="111" y="572" on="0"/>
        <pt x="202" y="663" on="0"/>
        <pt x="323" y="709" on="0"/>
        <pt x="391" y="709" on="1"/>
        <pt x="497" y="709" on="0"/>
        <pt x="579" y="653" on="1"/>
        <pt x="638" y="730" on="1"/>
        <pt x="700" y="684" on="1"/>
        <pt x="636" y="601" on="1"/>
        <pt x="675" y="556" on="0"/>
        <pt x="720" y="429" on="0"/>
        <pt x="720" y="347" on="1"/>
        <pt x="720" y="258" on="0"/>
        <pt x="667" y="122" on="0"/>
        <pt x="577" y="31" on="0"/>
        <pt x="458" y="-15" on="0"/>
        <pt x="391" y="-15" on="1"/>
        <pt x="338" y="-15" on="0"/>
        <pt x="243" y="12" on="0"/>
        <pt x="202" y="39" on="1"/>
        <pt x="144" y="-36" on="1"/>
        <pt x="82" y="10" on="1"/>
        <pt x="144" y="90" on="1"/>
        <pt x="104" y="135" on="0"/>
        <pt x="58" y="263" on="0"/>
      </contour>
      <contour>
        <pt x="160" y="347" on="1"/>
        <pt x="160" y="238" on="0"/>
        <pt x="204" y="168" on="1"/>
        <pt x="523" y="581" on="1"/>
        <pt x="468" y="624" on="0"/>
        <pt x="389" y="624" on="1"/>
        <pt x="336" y="624" on="0"/>
        <pt x="251" y="585" on="0"/>
        <pt x="192" y="513" on="0"/>
        <pt x="160" y="410" on="0"/>
      </contour>
      <contour>
        <pt x="389" y="70" on="1"/>
        <pt x="442" y="70" on="0"/>
        <pt x="526" y="109" on="0"/>
        <pt x="585" y="181" on="0"/>
        <pt x="617" y="284" on="0"/>
        <pt x="617" y="347" on="1"/>
        <pt x="617" y="400" on="0"/>
        <pt x="595" y="487" on="0"/>
        <pt x="575" y="522" on="1"/>
        <pt x="257" y="111" on="1"/>
        <pt x="310" y="70" on="0"/>
      </contour>
    </TTGlyph>
    <TTGlyph name="Oslashacute" xMin="58" yMin="-36" xMax="720" yMax="932">
      <component glyphName="Oslash" x="0" y="0" flags="0x204"/>
      <component glyphName="acute" x="195" y="156" flags="0x4"/>
    </TTGlyph>
    <TTGlyph name="Otilde" xMin="58" yMin="-15" xMax="720" yMax="891">
      <component glyphName="O" x="0" y="0" flags="0x204"/>
      <component glyphName="tilde" x="202" y="156" flags="0x4"/>
    </TTGlyph>
    <TTGlyph name="P" xMin="86" yMin="0" xMax="573" yMax="700">
      <contour>
        <pt x="270" y="700" on="1"/>
        <pt x="416" y="700" on="0"/>
        <pt x="573" y="589" on="0"/>
        <pt x="573" y="479" on="1"/>
        <pt x="573" y="419" on="0"/>
        <pt x="530" y="334" on="0"/>
        <pt x="449" y="281" on="0"/>
        <pt x="333" y="257" on="0"/>
        <pt x="260" y="257" on="1"/>
        <pt x="183" y="257" on="1"/>
        <pt x="183" y="0" on="1"/>
        <pt x="86" y="0" on="1"/>
        <pt x="86" y="683" on="1"/>
        <pt x="127" y="693" on="0"/>
        <pt x="228" y="700" on="0"/>
      </contour>
      <contour>
        <pt x="278" y="615" on="1"/>
        <pt x="216" y="615" on="0"/>
        <pt x="183" y="612" on="1"/>
        <pt x="183" y="340" on="1"/>
        <pt x="256" y="340" on="1"/>
        <pt x="306" y="340" on="0"/>
        <pt x="386" y="353" on="0"/>
        <pt x="441" y="384" on="0"/>
        <pt x="471" y="438" on="0"/>
        <pt x="471" y="480" on="1"/>
        <pt x="471" y="520" on="0"/>
        <pt x="440" y="572" on="0"/>
        <pt x="387" y="603" on="0"/>
        <pt x="317" y="615" on="0"/>
      </contour>
    </TTGlyph>
    <TTGlyph name="Parenleft" xMin="78" yMin="-138" xMax="317" yMax="830">
      <component glyphName="parenleft" x="0" y="47" flags="0x214"/>
    </TTGlyph>
    <TTGlyph name="Parenright" xMin="7" yMin="-138" xMax="246" yMax="830">
      <component glyphName="parenright" x="0" y="47" flags="0x214"/>
    </TTGlyph>
    <TTGlyph name="Phi" xMin="56" yMin="0" xMax="808" yMax="738">
      <contour>
        <pt x="479" y="164" on="1"/>
        <pt x="527" y="164" on="0"/>
        <pt x="610" y="191" on="0"/>
        <pt x="671" y="244" on="0"/>
        <pt x="707" y="321" on="0"/>
        <pt x="707" y="371" on="1"/>
        <pt x="707" y="421" on="0"/>
        <pt x="671" y="498" on="0"/>
        <pt x="610" y="551" on="0"/>
        <pt x="527" y="578" on="0"/>
        <pt x="479" y="578" on="1"/>
      </contour>
      <contour>
        <pt x="385" y="84" on="1"/>
        <pt x="321" y="84" on="0"/>
        <pt x="202" y="122" on="0"/>
        <pt x="111" y="195" on="0"/>
        <pt x="56" y="302" on="0"/>
        <pt x="56" y="371" on="1"/>
        <pt x="56" y="440" on="0"/>
        <pt x="111" y="546" on="0"/>
        <pt x="202" y="619" on="0"/>
        <pt x="321" y="657" on="0"/>
        <pt x="385" y="658" on="1"/>
        <pt x="385" y="738" on="1"/>
        <pt x="479" y="738" on="1"/>
        <pt x="479" y="658" on="1"/>
        <pt x="543" y="657" on="0"/>
        <pt x="661" y="619" on="0"/>
        <pt x="753" y="546" on="0"/>
        <pt x="808" y="440" on="0"/>
        <pt x="808" y="371" on="1"/>
        <pt x="808" y="302" on="0"/>
        <pt x="753" y="195" on="0"/>
        <pt x="661" y="122" on="0"/>
        <pt x="543" y="84" on="0"/>
        <pt x="479" y="84" on="1"/>
        <pt x="479" y="0" on="1"/>
        <pt x="385" y="0" on="1"/>
      </contour>
      <contour>
        <pt x="385" y="578" on="1"/>
        <pt x="337" y="578" on="0"/>
        <pt x="254" y="551" on="0"/>
        <pt x="193" y="498" on="0"/>
        <pt x="157" y="421" on="0"/>
        <pt x="157" y="371" on="1"/>
        <pt x="157" y="321" on="0"/>
        <pt x="193" y="244" on="0"/>
        <pt x="254" y="191" on="0"/>
        <pt x="337" y="164" on="0"/>
        <pt x="385" y="164" on="1"/>
      </contour>
    </TTGlyph>
    <TTGlyph name="Pi" xMin="86" yMin="0" xMax="613" yMax="693">
      <component glyphName="afii10033" x="0" y="0" flags="0x214"/>
    </TTGlyph>
    <TTGlyph name="Psi" xMin="65" yMin="0" xMax="750" yMax="693">
      <contour>
        <pt x="455" y="0" on="1"/>
        <pt x="360" y="0" on="1"/>
        <pt x="360" y="177" on="1"/>
        <pt x="279" y="177" on="0"/>
        <pt x="167" y="220" on="0"/>
        <pt x="96" y="295" on="0"/>
        <pt x="65" y="399" on="0"/>
        <pt x="65" y="459" on="1"/>
        <pt x="65" y="693" on="1"/>
        <pt x="159" y="693" on="1"/>
        <pt x="159" y="472" on="1"/>
        <pt x="159" y="359" on="0"/>
        <pt x="266" y="262" on="0"/>
        <pt x="360" y="262" on="1"/>
        <pt x="360" y="693" on="1"/>
        <pt x="455" y="693" on="1"/>
        <pt x="455" y="262" on="1"/>
        <pt x="549" y="262" on="0"/>
        <pt x="656" y="359" on="0"/>
        <pt x="656" y="472" on="1"/>
        <pt x="656" y="693" on="1"/>
        <pt x="750" y="693" on="1"/>
        <pt x="750" y="459" on="1"/>
        <pt x="750" y="399" on="0"/>
        <pt x="719" y="295" on="0"/>
        <pt x="648" y="220" on="0"/>
        <pt x="536" y="177" on="0"/>
        <pt x="455" y="177" on="1"/>
      </contour>
    </TTGlyph>
    <TTGlyph name="Q" xMin="58" yMin="-185" xMax="720" yMax="709">
      <contour>
        <pt x="58" y="347" on="1"/>
        <pt x="58" y="436" on="0"/>
        <pt x="111" y="572" on="0"/>
        <pt x="202" y="663" on="0"/>
        <pt x="323" y="709" on="0"/>
        <pt x="391" y="709" on="1"/>
        <pt x="458" y="709" on="0"/>
        <pt x="577" y="663" on="0"/>
        <pt x="667" y="572" on="0"/>
        <pt x="720" y="436" on="0"/>
        <pt x="720" y="347" on="1"/>
        <pt x="720" y="269" on="0"/>
        <pt x="680" y="147" on="0"/>
        <pt x="609" y="58" on="0"/>
        <pt x="514" y="3" on="0"/>
        <pt x="460" y="-7" on="1"/>
        <pt x="461" y="-30" on="0"/>
        <pt x="500" y="-65" on="0"/>
        <pt x="560" y="-89" on="0"/>
        <pt x="634" y="-105" on="0"/>
        <pt x="671" y="-109" on="1"/>
        <pt x="648" y="-185" on="1"/>
        <pt x="596" y="-178" on="0"/>
        <pt x="501" y="-155" on="0"/>
        <pt x="424" y="-117" on="0"/>
        <pt x="372" y="-58" on="0"/>
        <pt x="363" y="-14" on="1"/>
        <pt x="300" y="-10" on="0"/>
        <pt x="188" y="41" on="0"/>
        <pt x="106" y="132" on="0"/>
        <pt x="58" y="262" on="0"/>
      </contour>
      <contour>
        <pt x="160" y="347" on="1"/>
        <pt x="160" y="284" on="0"/>
        <pt x="192" y="181" on="0"/>
        <pt x="251" y="109" on="0"/>
        <pt x="336" y="70" on="0"/>
        <pt x="389" y="70" on="1"/>
        <pt x="442" y="70" on="0"/>
        <pt x="526" y="109" on="0"/>
        <pt x="585" y="181" on="0"/>
        <pt x="617" y="284" on="0"/>
        <pt x="617" y="347" on="1"/>
        <pt x="617" y="410" on="0"/>
        <pt x="585" y="513" on="0"/>
        <pt x="526" y="585" on="0"/>
        <pt x="442" y="624" on="0"/>
        <pt x="389" y="624" on="1"/>
        <pt x="336" y="624" on="0"/>
        <pt x="251" y="585" on="0"/>
        <pt x="192" y="513" on="0"/>
        <pt x="160" y="410" on="0"/>
      </contour>
    </TTGlyph>
    <TTGlyph name="Questiondown" xMin="28" yMin="-3" xMax="385" yMax="705">
      <component glyphName="questiondown" x="0" y="185" flags="0x214"/>
    </TTGlyph>
    <TTGlyph name="R" xMin="86" yMin="0" xMax="611" yMax="700">
      <contour>
        <pt x="425" y="290" on="1"/>
        <pt x="441" y="270" on="0"/>
        <pt x="490" y="205" on="0"/>
        <pt x="542" y="126" on="0"/>
        <pt x="593" y="40" on="0"/>
        <pt x="611" y="0" on="1"/>
        <pt x="505" y="0" on="1"/>
        <pt x="485" y="38" on="0"/>
        <pt x="438" y="116" on="0"/>
        <pt x="390" y="187" on="0"/>
        <pt x="343" y="249" on="0"/>
        <pt x="324" y="272" on="1"/>
        <pt x="311" y="271" on="0"/>
        <pt x="284" y="271" on="0"/>
        <pt x="270" y="271" on="1"/>
        <pt x="183" y="271" on="1"/>
        <pt x="183" y="0" on="1"/>
        <pt x="86" y="0" on="1"/>
        <pt x="86" y="683" on="1"/>
        <pt x="127" y="693" on="0"/>
        <pt x="228" y="700" on="0"/>
        <pt x="270" y="700" on="1"/>
        <pt x="416" y="700" on="0"/>
        <pt x="569" y="590" on="0"/>
        <pt x="569" y="481" on="1"/>
        <pt x="569" y="412" on="0"/>
        <pt x="496" y="314" on="0"/>
      </contour>
      <contour>
        <pt x="278" y="615" on="1"/>
        <pt x="216" y="615" on="0"/>
        <pt x="183" y="612" on="1"/>
        <pt x="183" y="351" on="1"/>
        <pt x="252" y="351" on="1"/>
        <pt x="302" y="351" on="0"/>
        <pt x="382" y="361" on="0"/>
        <pt x="437" y="389" on="0"/>
        <pt x="467" y="440" on="0"/>
        <pt x="467" y="482" on="1"/>
        <pt x="467" y="521" on="0"/>
        <pt x="437" y="573" on="0"/>
        <pt x="386" y="603" on="0"/>
        <pt x="317" y="615" on="0"/>
      </contour>
    </TTGlyph>
    <TTGlyph name="Racute" xMin="86" yMin="0" xMax="611" yMax="932">
      <component glyphName="R" x="0" y="0" flags="0x204"/>
      <component glyphName="acute" x="100" y="156" flags="0x4"/>
    </TTGlyph>
    <TTGlyph name="Rcaron" xMin="86" yMin="0" xMax="611" yMax="929">
      <component glyphName="R" x="0" y="0" flags="0x204"/>
      <component glyphName="caron" x="106" y="156" flags="0x4"/>
    </TTGlyph>
    <TTGlyph name="Rcommaaccent" xMin="86" yMin="-188" xMax="611" yMax="700">
      <component glyphName="R" x="0" y="0" flags="0x204"/>
      <component glyphName="commaaccent" x="201" y="0" flags="0x4"/>
    </TTGlyph>
    <TTGlyph name="Rho" xMin="86" yMin="0" xMax="573" yMax="700">
      <component glyphName="P" x="0" y="0" flags="0x214"/>
    </TTGlyph>
    <TTGlyph name="S" xMin="33" yMin="-15" xMax="501" yMax="709">
      <contour>
        <pt x="247" y="69" on="1"/>
        <pt x="399" y="69" on="0"/>
        <pt x="399" y="173" on="1"/>
        <pt x="399" y="205" on="0"/>
        <pt x="372" y="250" on="0"/>
        <pt x="326" y="283" on="0"/>
        <pt x="267" y="307" on="0"/>
        <pt x="234" y="319" on="1"/>
        <pt x="196" y="332" on="0"/>
        <pt x="128" y="365" on="0"/>
        <pt x="78" y="410" on="0"/>
        <pt x="49" y="472" on="0"/>
        <pt x="49" y="516" on="1"/>
        <pt x="49" y="607" on="0"/>
        <pt x="173" y="709" on="0"/>
        <pt x="282" y="709" on="1"/>
        <pt x="345" y="709" on="0"/>
        <pt x="448" y="682" on="0"/>
        <pt x="472" y="666" on="1"/>
        <pt x="441" y="587" on="1"/>
        <pt x="420" y="600" on="0"/>
        <pt x="337" y="625" on="0"/>
        <pt x="282" y="625" on="1"/>
        <pt x="254" y="625" on="0"/>
        <pt x="206" y="613" on="0"/>
        <pt x="170" y="589" on="0"/>
        <pt x="149" y="552" on="0"/>
        <pt x="149" y="527" on="1"/>
        <pt x="149" y="499" on="0"/>
        <pt x="171" y="461" on="0"/>
        <pt x="211" y="432" on="0"/>
        <pt x="264" y="408" on="0"/>
        <pt x="296" y="396" on="1"/>
        <pt x="341" y="378" on="0"/>
        <pt x="416" y="342" on="0"/>
        <pt x="471" y="292" on="0"/>
        <pt x="501" y="223" on="0"/>
        <pt x="501" y="174" on="1"/>
        <pt x="501" y="83" on="0"/>
        <pt x="368" y="-15" on="0"/>
        <pt x="247" y="-15" on="1"/>
        <pt x="206" y="-15" on="0"/>
        <pt x="137" y="-4" on="0"/>
        <pt x="83" y="11" on="0"/>
        <pt x="44" y="28" on="0"/>
        <pt x="33" y="34" on="1"/>
        <pt x="62" y="114" on="1"/>
        <pt x="85" y="101" on="0"/>
        <pt x="179" y="69" on="0"/>
      </contour>
    </TTGlyph>
    <TTGlyph name="Sacute" xMin="33" yMin="-15" xMax="501" yMax="932">
      <component glyphName="S" x="0" y="0" flags="0x204"/>
      <component glyphName="acute" x="82" y="156" flags="0x4"/>
    </TTGlyph>
    <TTGlyph name="Scaron" xMin="33" yMin="-15" xMax="501" yMax="929">
      <component glyphName="S" x="0" y="0" flags="0x204"/>
      <component glyphName="caron" x="88" y="156" flags="0x4"/>
    </TTGlyph>
    <TTGlyph name="Scedilla" xMin="33" yMin="-189" xMax="501" yMax="709">
      <contour>
        <pt x="247" y="69" on="1"/>
        <pt x="399" y="69" on="0"/>
        <pt x="399" y="173" on="1"/>
        <pt x="399" y="205" on="0"/>
        <pt x="372" y="250" on="0"/>
        <pt x="326" y="283" on="0"/>
        <pt x="267" y="307" on="0"/>
        <pt x="234" y="319" on="1"/>
        <pt x="196" y="332" on="0"/>
        <pt x="128" y="365" on="0"/>
        <pt x="78" y="410" on="0"/>
        <pt x="49" y="472" on="0"/>
        <pt x="49" y="516" on="1"/>
        <pt x="49" y="607" on="0"/>
        <pt x="173" y="709" on="0"/>
        <pt x="282" y="709" on="1"/>
        <pt x="345" y="709" on="0"/>
        <pt x="448" y="682" on="0"/>
        <pt x="472" y="666" on="1"/>
        <pt x="441" y="587" on="1"/>
        <pt x="420" y="600" on="0"/>
        <pt x="337" y="625" on="0"/>
        <pt x="282" y="625" on="1"/>
        <pt x="254" y="625" on="0"/>
        <pt x="206" y="613" on="0"/>
        <pt x="170" y="589" on="0"/>
        <pt x="149" y="552" on="0"/>
        <pt x="149" y="527" on="1"/>
        <pt x="149" y="499" on="0"/>
        <pt x="171" y="461" on="0"/>
        <pt x="211" y="432" on="0"/>
        <pt x="264" y="408" on="0"/>
        <pt x="296" y="396" on="1"/>
        <pt x="341" y="378" on="0"/>
        <pt x="416" y="342" on="0"/>
        <pt x="471" y="292" on="0"/>
        <pt x="501" y="223" on="0"/>
        <pt x="501" y="174" on="1"/>
        <pt x="501" y="93" on="0"/>
        <pt x="394" y="-3" on="0"/>
        <pt x="294" y="-13" on="1"/>
        <pt x="283" y="-37" on="1"/>
        <pt x="312" y="-51" on="0"/>
        <pt x="338" y="-84" on="0"/>
        <pt x="338" y="-116" on="1"/>
        <pt x="338" y="-127" on="0"/>
        <pt x="328" y="-153" on="0"/>
        <pt x="304" y="-175" on="0"/>
        <pt x="264" y="-189" on="0"/>
        <pt x="235" y="-189" on="1"/>
        <pt x="209" y="-189" on="0"/>
        <pt x="166" y="-181" on="0"/>
        <pt x="153" y="-176" on="1"/>
        <pt x="164" y="-119" on="1"/>
        <pt x="176" y="-123" on="0"/>
        <pt x="203" y="-129" on="0"/>
        <pt x="220" y="-129" on="1"/>
        <pt x="256" y="-129" on="0"/>
        <pt x="256" y="-106" on="1"/>
        <pt x="256" y="-95" on="0"/>
        <pt x="234" y="-80" on="0"/>
        <pt x="214" y="-72" on="1"/>
        <pt x="207" y="-69" on="1"/>
        <pt x="211" y="-58" on="0"/>
        <pt x="223" y="-29" on="0"/>
        <pt x="230" y="-15" on="1"/>
        <pt x="192" y="-14" on="0"/>
        <pt x="129" y="-3" on="0"/>
        <pt x="79" y="12" on="0"/>
        <pt x="43" y="28" on="0"/>
        <pt x="33" y="34" on="1"/>
        <pt x="62" y="114" on="1"/>
        <pt x="85" y="101" on="0"/>
        <pt x="179" y="69" on="0"/>
      </contour>
    </TTGlyph>
    <TTGlyph name="Scircumflex" xMin="33" yMin="-15" xMax="501" yMax="925">
      <component glyphName="S" x="0" y="0" flags="0x204"/>
      <component glyphName="circumflex" x="88" y="156" flags="0x4"/>
    </TTGlyph>
    <TTGlyph name="Scommaaccent" xMin="33" yMin="-188" xMax="501" yMax="709">
      <component glyphName="S" x="0" y="0" flags="0x204"/>
      <component glyphName="commaaccent" x="137" y="0" flags="0x4"/>
    </TTGlyph>
    <TTGlyph name="Sigma" xMin="33" yMin="0" xMax="523" yMax="693">
      <component glyphName="uni01A9" x="0" y="0" flags="0x214"/>
    </TTGlyph>
    <TTGlyph name="Slash" xMin="-24" yMin="-138" xMax="408" yMax="830">
      <component glyphName="slash" x="0" y="47" flags="0x214"/>
    </TTGlyph>
    <TTGlyph name="T" xMin="16" yMin="0" xMax="549" yMax="693">
      <contour>
        <pt x="549" y="693" on="1"/>
        <pt x="549" y="609" on="1"/>
        <pt x="331" y="609" on="1"/>
        <pt x="331" y="0" on="1"/>
        <pt x="234" y="0" on="1"/>
        <pt x="234" y="609" on="1"/>
        <pt x="16" y="609" on="1"/>
        <pt x="16" y="693" on="1"/>
      </contour>
    </TTGlyph>
    <TTGlyph name="Tau" xMin="16" yMin="0" xMax="549" yMax="693">
      <component glyphName="T" x="0" y="0" flags="0x214"/>
    </TTGlyph>
    <TTGlyph name="Tbar" xMin="16" yMin="0" xMax="549" yMax="693">
      <contour>
        <pt x="549" y="693" on="1"/>
        <pt x="549" y="609" on="1"/>
        <pt x="331" y="609" on="1"/>
        <pt x="331" y="393" on="1"/>
        <pt x="461" y="393" on="1"/>
        <pt x="461" y="318" on="1"/>
        <pt x="331" y="318" on="1"/>
        <pt x="331" y="0" on="1"/>
        <pt x="234" y="0" on="1"/>
        <pt x="234" y="318" on="1"/>
        <pt x="104" y="318" on="1"/>
        <pt x="104" y="393" on="1"/>
        <pt x="234" y="393" on="1"/>
        <pt x="234" y="609" on="1"/>
        <pt x="16" y="609" on="1"/>
        <pt x="16" y="693" on="1"/>
      </contour>
    </TTGlyph>
    <TTGlyph name="Tcaron" xMin="16" yMin="0" xMax="549" yMax="929">
      <component glyphName="T" x="0" y="0" flags="0x204"/>
      <component glyphName="caron" x="94" y="156" flags="0x4"/>
    </TTGlyph>
    <TTGlyph name="Theta" xMin="58" yMin="-15" xMax="720" yMax="709">
      <contour>
        <pt x="58" y="347" on="1"/>
        <pt x="58" y="436" on="0"/>
        <pt x="111" y="572" on="0"/>
        <pt x="202" y="663" on="0"/>
        <pt x="323" y="709" on="0"/>
        <pt x="391" y="709" on="1"/>
        <pt x="458" y="709" on="0"/>
        <pt x="577" y="663" on="0"/>
        <pt x="667" y="572" on="0"/>
        <pt x="720" y="436" on="0"/>
        <pt x="720" y="347" on="1"/>
        <pt x="720" y="258" on="0"/>
        <pt x="667" y="122" on="0"/>
        <pt x="577" y="31" on="0"/>
        <pt x="458" y="-15" on="0"/>
        <pt x="391" y="-15" on="1"/>
        <pt x="323" y="-15" on="0"/>
        <pt x="202" y="31" on="0"/>
        <pt x="111" y="122" on="0"/>
        <pt x="58" y="258" on="0"/>
      </contour>
      <contour>
        <pt x="160" y="347" on="1"/>
        <pt x="160" y="284" on="0"/>
        <pt x="192" y="181" on="0"/>
        <pt x="251" y="109" on="0"/>
        <pt x="336" y="70" on="0"/>
        <pt x="389" y="70" on="1"/>
        <pt x="441" y="70" on="0"/>
        <pt x="526" y="109" on="0"/>
        <pt x="585" y="181" on="0"/>
        <pt x="617" y="284" on="0"/>
        <pt x="617" y="347" on="1"/>
        <pt x="617" y="410" on="0"/>
        <pt x="585" y="513" on="0"/>
        <pt x="526" y="585" on="0"/>
        <pt x="441" y="624" on="0"/>
        <pt x="389" y="624" on="1"/>
        <pt x="336" y="624" on="0"/>
        <pt x="251" y="585" on="0"/>
        <pt x="192" y="513" on="0"/>
        <pt x="160" y="410" on="0"/>
      </contour>
      <contour>
        <pt x="241" y="389" on="1"/>
        <pt x="536" y="389" on="1"/>
        <pt x="536" y="309" on="1"/>
        <pt x="241" y="309" on="1"/>
      </contour>
    </TTGlyph>
    <TTGlyph name="Thorn" xMin="86" yMin="0" xMax="573" yMax="693">
      <contour>
        <pt x="183" y="222" on="1"/>
        <pt x="256" y="222" on="1"/>
        <pt x="306" y="222" on="0"/>
        <pt x="386" y="235" on="0"/>
        <pt x="441" y="267" on="0"/>
        <pt x="471" y="321" on="0"/>
        <pt x="471" y="363" on="1"/>
        <pt x="471" y="403" on="0"/>
        <pt x="440" y="456" on="0"/>
        <pt x="384" y="487" on="0"/>
        <pt x="306" y="499" on="0"/>
        <pt x="259" y="499" on="1"/>
        <pt x="241" y="499" on="0"/>
        <pt x="202" y="499" on="0"/>
        <pt x="183" y="497" on="1"/>
      </contour>
      <contour>
        <pt x="183" y="693" on="1"/>
        <pt x="183" y="580" on="1"/>
        <pt x="202" y="582" on="0"/>
        <pt x="243" y="583" on="0"/>
        <pt x="262" y="583" on="1"/>
        <pt x="573" y="583" on="0"/>
        <pt x="573" y="362" on="1"/>
        <pt x="573" y="302" on="0"/>
        <pt x="530" y="219" on="0"/>
        <pt x="449" y="166" on="0"/>
        <pt x="333" y="142" on="0"/>
        <pt x="260" y="142" on="1"/>
        <pt x="183" y="142" on="1"/>
        <pt x="183" y="0" on="1"/>
        <pt x="86" y="0" on="1"/>
        <pt x="86" y="693" on="1"/>
      </contour>
    </TTGlyph>
    <TTGlyph name="U" xMin="81" yMin="-15" xMax="607" yMax="693">
      <contour>
        <pt x="344" y="-15" on="1"/>
        <pt x="276" y="-15" on="0"/>
        <pt x="176" y="27" on="0"/>
        <pt x="112" y="100" on="0"/>
        <pt x="81" y="200" on="0"/>
        <pt x="81" y="258" on="1"/>
        <pt x="81" y="693" on="1"/>
        <pt x="178" y="693" on="1"/>
        <pt x="178" y="269" on="1"/>
        <pt x="178" y="165" on="0"/>
        <pt x="270" y="71" on="0"/>
        <pt x="344" y="71" on="1"/>
        <pt x="381" y="71" on="0"/>
        <pt x="442" y="94" on="0"/>
        <pt x="486" y="142" on="0"/>
        <pt x="510" y="217" on="0"/>
        <pt x="510" y="269" on="1"/>
        <pt x="510" y="693" on="1"/>
        <pt x="607" y="693" on="1"/>
        <pt x="607" y="258" on="1"/>
        <pt x="607" y="200" on="0"/>
        <pt x="576" y="100" on="0"/>
        <pt x="511" y="27" on="0"/>
        <pt x="412" y="-15" on="0"/>
      </contour>
    </TTGlyph>
    <TTGlyph name="Uacute" xMin="81" yMin="-15" xMax="607" yMax="932">
      <component glyphName="U" x="0" y="0" flags="0x204"/>
      <component glyphName="acute" x="150" y="156" flags="0x4"/>
    </TTGlyph>
    <TTGlyph name="Ubreve" xMin="81" yMin="-15" xMax="607" yMax="905">
      <component glyphName="U" x="0" y="0" flags="0x204"/>
      <component glyphName="breve" x="153" y="156" flags="0x4"/>
    </TTGlyph>
    <TTGlyph name="Ucircumflex" xMin="81" yMin="-15" xMax="607" yMax="925">
      <component glyphName="U" x="0" y="0" flags="0x204"/>
      <component glyphName="circumflex" x="156" y="156" flags="0x4"/>
    </TTGlyph>
    <TTGlyph name="Udieresis" xMin="81" yMin="-15" xMax="607" yMax="890">
      <component glyphName="U" x="0" y="0" flags="0x204"/>
      <component glyphName="dieresis" x="156" y="156" flags="0x4"/>
    </TTGlyph>
    <TTGlyph name="Ugrave" xMin="81" yMin="-15" xMax="607" yMax="932">
      <component glyphName="U" x="0" y="0" flags="0x204"/>
      <component glyphName="grave" x="163" y="156" flags="0x4"/>
    </TTGlyph>
    <TTGlyph name="Uhorn" xMin="81" yMin="-15" xMax="734" yMax="801">
      <contour>
        <pt x="733" y="801" on="1"/>
        <pt x="734" y="790" on="0"/>
        <pt x="734" y="771" on="0"/>
        <pt x="734" y="765" on="1"/>
        <pt x="734" y="742" on="0"/>
        <pt x="722" y="696" on="0"/>
        <pt x="692" y="657" on="0"/>
        <pt x="643" y="630" on="0"/>
        <pt x="607" y="626" on="1"/>
        <pt x="607" y="258" on="1"/>
        <pt x="607" y="200" on="0"/>
        <pt x="576" y="100" on="0"/>
        <pt x="511" y="27" on="0"/>
        <pt x="412" y="-15" on="0"/>
        <pt x="344" y="-15" on="1"/>
        <pt x="276" y="-15" on="0"/>
        <pt x="176" y="27" on="0"/>
        <pt x="112" y="100" on="0"/>
        <pt x="81" y="200" on="0"/>
        <pt x="81" y="258" on="1"/>
        <pt x="81" y="693" on="1"/>
        <pt x="178" y="693" on="1"/>
        <pt x="178" y="269" on="1"/>
        <pt x="178" y="217" on="0"/>
        <pt x="202" y="142" on="0"/>
        <pt x="246" y="94" on="0"/>
        <pt x="307" y="71" on="0"/>
        <pt x="344" y="71" on="1"/>
        <pt x="381" y="71" on="0"/>
        <pt x="442" y="94" on="0"/>
        <pt x="486" y="142" on="0"/>
        <pt x="510" y="217" on="0"/>
        <pt x="510" y="269" on="1"/>
        <pt x="510" y="693" on="1"/>
        <pt x="583" y="693" on="1"/>
        <pt x="606" y="693" on="0"/>
        <pt x="641" y="727" on="0"/>
        <pt x="641" y="763" on="1"/>
        <pt x="641" y="773" on="0"/>
        <pt x="640" y="795" on="0"/>
        <pt x="639" y="801" on="1"/>
      </contour>
    </TTGlyph>
    <TTGlyph name="Uhungarumlaut" xMin="81" yMin="-15" xMax="607" yMax="932">
      <component glyphName="U" x="0" y="0" flags="0x204"/>
      <component glyphName="hungarumlaut" x="182" y="156" flags="0x4"/>
    </TTGlyph>
    <TTGlyph name="Umacron" xMin="81" yMin="-15" xMax="607" yMax="867">
      <component glyphName="U" x="0" y="0" flags="0x204"/>
      <component glyphName="macron" x="156" y="156" flags="0x4"/>
    </TTGlyph>
    <TTGlyph name="Uogonek" xMin="81" yMin="-187" xMax="607" yMax="693">
      <contour>
        <pt x="344" y="-15" on="1"/>
        <pt x="276" y="-15" on="0"/>
        <pt x="176" y="27" on="0"/>
        <pt x="112" y="100" on="0"/>
        <pt x="81" y="200" on="0"/>
        <pt x="81" y="258" on="1"/>
        <pt x="81" y="693" on="1"/>
        <pt x="178" y="693" on="1"/>
        <pt x="178" y="269" on="1"/>
        <pt x="178" y="165" on="0"/>
        <pt x="270" y="71" on="0"/>
        <pt x="344" y="71" on="1"/>
        <pt x="381" y="71" on="0"/>
        <pt x="442" y="94" on="0"/>
        <pt x="486" y="142" on="0"/>
        <pt x="510" y="217" on="0"/>
        <pt x="510" y="269" on="1"/>
        <pt x="510" y="693" on="1"/>
        <pt x="607" y="693" on="1"/>
        <pt x="607" y="258" on="1"/>
        <pt x="607" y="177" on="0"/>
        <pt x="548" y="51" on="0"/>
        <pt x="485" y="15" on="1"/>
        <pt x="462" y="1" on="0"/>
        <pt x="425" y="-23" on="0"/>
        <pt x="410" y="-39" on="1"/>
        <pt x="396" y="-55" on="0"/>
        <pt x="381" y="-79" on="0"/>
        <pt x="381" y="-93" on="1"/>
        <pt x="381" y="-122" on="0"/>
        <pt x="421" y="-122" on="1"/>
        <pt x="428" y="-122" on="0"/>
        <pt x="451" y="-119" on="0"/>
        <pt x="462" y="-115" on="1"/>
        <pt x="469" y="-176" on="1"/>
        <pt x="458" y="-181" on="0"/>
        <pt x="423" y="-187" on="0"/>
        <pt x="403" y="-187" on="1"/>
        <pt x="347" y="-187" on="0"/>
        <pt x="293" y="-146" on="0"/>
        <pt x="293" y="-111" on="1"/>
        <pt x="293" y="-83" on="0"/>
        <pt x="330" y="-32" on="0"/>
        <pt x="349" y="-15" on="1"/>
      </contour>
    </TTGlyph>
    <TTGlyph name="Upsilon" xMin="6" yMin="0" xMax="592" yMax="693">
      <component glyphName="Y" x="0" y="0" flags="0x214"/>
    </TTGlyph>
    <TTGlyph name="Upsilondieresis" xMin="6" yMin="0" xMax="592" yMax="890">
      <component glyphName="Y" x="0" y="0" flags="0x204"/>
      <component glyphName="dieresis" x="111" y="156" flags="0x4"/>
    </TTGlyph>
    <TTGlyph name="Upsilontonos" xMin="-29" yMin="0" xMax="718" yMax="709">
      <component glyphName="Y" x="126" y="0" flags="0x4"/>
      <component glyphName="tonos.cap" x="-148" y="0" flags="0x4"/>
    </TTGlyph>
    <TTGlyph name="Uring" xMin="81" yMin="-15" xMax="607" yMax="935">
      <component glyphName="U" x="0" y="0" flags="0x204"/>
      <component glyphName="ring" x="156" y="156" flags="0x4"/>
    </TTGlyph>
    <TTGlyph name="Utilde" xMin="81" yMin="-15" xMax="607" yMax="891">
      <component glyphName="U" x="0" y="0" flags="0x204"/>
      <component glyphName="tilde" x="157" y="156" flags="0x4"/>
    </TTGlyph>
    <TTGlyph name="V" xMin="10" yMin="0" xMax="646" yMax="693">
      <contour>
        <pt x="646" y="693" on="1"/>
        <pt x="608" y="583" on="0"/>
        <pt x="539" y="396" on="0"/>
        <pt x="473" y="228" on="0"/>
        <pt x="408" y="75" on="0"/>
        <pt x="374" y="0" on="1"/>
        <pt x="283" y="0" on="1"/>
        <pt x="249" y="75" on="0"/>
        <pt x="184" y="228" on="0"/>
        <pt x="117" y="396" on="0"/>
        <pt x="47" y="583" on="0"/>
        <pt x="10" y="693" on="1"/>
        <pt x="117" y="693" on="1"/>
        <pt x="171" y="535" on="0"/>
        <pt x="275" y="243" on="0"/>
        <pt x="330" y="115" on="1"/>
        <pt x="385" y="242" on="0"/>
        <pt x="489" y="535" on="0"/>
        <pt x="542" y="693" on="1"/>
      </contour>
    </TTGlyph>
    <TTGlyph name="W" xMin="28" yMin="0" xMax="901" yMax="693">
      <contour>
        <pt x="465" y="470" on="1"/>
        <pt x="423" y="336" on="0"/>
        <pt x="337" y="108" on="0"/>
        <pt x="294" y="0" on="1"/>
        <pt x="197" y="0" on="1"/>
        <pt x="144" y="153" on="0"/>
        <pt x="63" y="493" on="0"/>
        <pt x="28" y="693" on="1"/>
        <pt x="130" y="693" on="1"/>
        <pt x="144" y="615" on="0"/>
        <pt x="174" y="459" on="0"/>
        <pt x="206" y="312" on="0"/>
        <pt x="238" y="178" on="0"/>
        <pt x="255" y="121" on="1"/>
        <pt x="295" y="226" on="0"/>
        <pt x="385" y="477" on="0"/>
        <pt x="424" y="611" on="1"/>
        <pt x="508" y="611" on="1"/>
        <pt x="547" y="477" on="0"/>
        <pt x="639" y="226" on="0"/>
        <pt x="679" y="121" on="1"/>
        <pt x="695" y="177" on="0"/>
        <pt x="727" y="311" on="0"/>
        <pt x="758" y="458" on="0"/>
        <pt x="788" y="615" on="0"/>
        <pt x="802" y="693" on="1"/>
        <pt x="901" y="693" on="1"/>
        <pt x="865" y="493" on="0"/>
        <pt x="784" y="153" on="0"/>
        <pt x="732" y="0" on="1"/>
        <pt x="635" y="0" on="1"/>
        <pt x="591" y="108" on="0"/>
        <pt x="507" y="336" on="0"/>
      </contour>
    </TTGlyph>
    <TTGlyph name="Wacute" xMin="28" yMin="0" xMax="901" yMax="932">
      <component glyphName="W" x="0" y="0" flags="0x204"/>
      <component glyphName="acute" x="270" y="156" flags="0x4"/>
    </TTGlyph>
    <TTGlyph name="Wcircumflex" xMin="28" yMin="0" xMax="901" yMax="925">
      <component glyphName="W" x="0" y="0" flags="0x204"/>
      <component glyphName="circumflex" x="276" y="156" flags="0x4"/>
    </TTGlyph>
    <TTGlyph name="Wdieresis" xMin="28" yMin="0" xMax="901" yMax="890">
      <component glyphName="W" x="0" y="0" flags="0x204"/>
      <component glyphName="dieresis" x="276" y="156" flags="0x4"/>
    </TTGlyph>
    <TTGlyph name="Wgrave" xMin="28" yMin="0" xMax="901" yMax="932">
      <component glyphName="W" x="0" y="0" flags="0x204"/>
      <component glyphName="grave" x="283" y="156" flags="0x4"/>
    </TTGlyph>
    <TTGlyph name="X" xMin="23" yMin="0" xMax="611" yMax="693">
      <contour>
        <pt x="502" y="0" on="1"/>
        <pt x="487" y="30" on="0"/>
        <pt x="445" y="103" on="0"/>
        <pt x="395" y="182" on="0"/>
        <pt x="341" y="261" on="0"/>
        <pt x="316" y="296" on="1"/>
        <pt x="291" y="261" on="0"/>
        <pt x="237" y="182" on="0"/>
        <pt x="188" y="103" on="0"/>
        <pt x="145" y="30" on="0"/>
        <pt x="130" y="0" on="1"/>
        <pt x="23" y="0" on="1"/>
        <pt x="68" y="88" on="0"/>
        <pt x="187" y="270" on="0"/>
        <pt x="254" y="366" on="1"/>
        <pt x="32" y="693" on="1"/>
        <pt x="144" y="693" on="1"/>
        <pt x="315" y="435" on="1"/>
        <pt x="484" y="693" on="1"/>
        <pt x="595" y="693" on="1"/>
        <pt x="377" y="370" on="1"/>
        <pt x="445" y="273" on="0"/>
        <pt x="565" y="89" on="0"/>
        <pt x="611" y="0" on="1"/>
      </contour>
    </TTGlyph>
    <TTGlyph name="Xi" xMin="37" yMin="0" xMax="515" yMax="693">
      <contour>
        <pt x="505" y="609" on="1"/>
        <pt x="47" y="609" on="1"/>
        <pt x="47" y="693" on="1"/>
        <pt x="505" y="693" on="1"/>
      </contour>
      <contour>
        <pt x="37" y="84" on="1"/>
        <pt x="515" y="84" on="1"/>
        <pt x="515" y="0" on="1"/>
        <pt x="37" y="0" on="1"/>
      </contour>
      <contour>
        <pt x="91" y="405" on="1"/>
        <pt x="461" y="405" on="1"/>
        <pt x="461" y="321" on="1"/>
        <pt x="91" y="321" on="1"/>
      </contour>
    </TTGlyph>
    <TTGlyph name="Y" xMin="6" yMin="0" xMax="592" yMax="693">
      <contour>
        <pt x="251" y="0" on="1"/>
        <pt x="251" y="278" on="1"/>
        <pt x="182" y="385" on="0"/>
        <pt x="60" y="593" on="0"/>
        <pt x="6" y="693" on="1"/>
        <pt x="120" y="693" on="1"/>
        <pt x="158" y="611" on="0"/>
        <pt x="252" y="442" on="0"/>
        <pt x="302" y="364" on="1"/>
        <pt x="351" y="442" on="0"/>
        <pt x="445" y="611" on="0"/>
        <pt x="484" y="693" on="1"/>
        <pt x="592" y="693" on="1"/>
        <pt x="538" y="593" on="0"/>
        <pt x="416" y="386" on="0"/>
        <pt x="348" y="280" on="1"/>
        <pt x="348" y="0" on="1"/>
      </contour>
    </TTGlyph>
    <TTGlyph name="Yacute" xMin="6" yMin="0" xMax="592" yMax="932">
      <component glyphName="Y" x="0" y="0" flags="0x204"/>
      <component glyphName="acute" x="106" y="156" flags="0x4"/>
    </TTGlyph>
    <TTGlyph name="Ycircumflex" xMin="6" yMin="0" xMax="592" yMax="925">
      <component glyphName="Y" x="0" y="0" flags="0x204"/>
      <component glyphName="circumflex" x="111" y="156" flags="0x4"/>
    </TTGlyph>
    <TTGlyph name="Ydieresis" xMin="6" yMin="0" xMax="592" yMax="890">
      <component glyphName="Y" x="0" y="0" flags="0x204"/>
      <component glyphName="dieresis" x="111" y="156" flags="0x4"/>
    </TTGlyph>
    <TTGlyph name="Ygrave" xMin="6" yMin="0" xMax="592" yMax="932">
      <component glyphName="Y" x="0" y="0" flags="0x204"/>
      <component glyphName="grave" x="118" y="156" flags="0x4"/>
    </TTGlyph>
    <TTGlyph name="Z" xMin="33" yMin="0" xMax="536" yMax="693">
      <contour>
        <pt x="526" y="616" on="1"/>
        <pt x="503" y="590" on="0"/>
        <pt x="442" y="517" on="0"/>
        <pt x="374" y="428" on="0"/>
        <pt x="302" y="329" on="0"/>
        <pt x="233" y="228" on="0"/>
        <pt x="171" y="128" on="0"/>
        <pt x="146" y="83" on="1"/>
        <pt x="536" y="83" on="1"/>
        <pt x="536" y="0" on="1"/>
        <pt x="33" y="0" on="1"/>
        <pt x="33" y="65" on="1"/>
        <pt x="54" y="105" on="0"/>
        <pt x="111" y="201" on="0"/>
        <pt x="176" y="301" on="0"/>
        <pt x="246" y="403" on="0"/>
        <pt x="315" y="497" on="0"/>
        <pt x="380" y="579" on="0"/>
        <pt x="407" y="610" on="1"/>
        <pt x="51" y="610" on="1"/>
        <pt x="51" y="693" on="1"/>
        <pt x="526" y="693" on="1"/>
      </contour>
    </TTGlyph>
    <TTGlyph name="Zacute" xMin="33" yMin="0" xMax="536" yMax="932">
      <component glyphName="Z" x="0" y="0" flags="0x204"/>
      <component glyphName="acute" x="98" y="156" flags="0x4"/>
    </TTGlyph>
    <TTGlyph name="Zcaron" xMin="33" yMin="0" xMax="536" yMax="929">
      <component glyphName="Z" x="0" y="0" flags="0x204"/>
      <component glyphName="caron" x="104" y="156" flags="0x4"/>
    </TTGlyph>
    <TTGlyph name="Zdotaccent" xMin="33" yMin="0" xMax="536" yMax="892">
      <component glyphName="Z" x="0" y="0" flags="0x204"/>
      <component glyphName="dotaccent" x="104" y="156" flags="0x4"/>
    </TTGlyph>
    <TTGlyph name="Zeta" xMin="33" yMin="0" xMax="536" yMax="693">
      <component glyphName="Z" x="0" y="0" flags="0x214"/>
    </TTGlyph>
    <TTGlyph name="a" xMin="43" yMin="-11" xMax="448" yMax="533">
      <contour>
        <pt x="256" y="67" on="1"/>
        <pt x="289" y="67" on="0"/>
        <pt x="340" y="70" on="0"/>
        <pt x="357" y="74" on="1"/>
        <pt x="357" y="229" on="1"/>
        <pt x="347" y="234" on="0"/>
        <pt x="302" y="241" on="0"/>
        <pt x="270" y="241" on="1"/>
        <pt x="249" y="241" on="0"/>
        <pt x="202" y="235" on="0"/>
        <pt x="163" y="216" on="0"/>
        <pt x="137" y="183" on="0"/>
        <pt x="137" y="156" on="1"/>
        <pt x="137" y="106" on="0"/>
        <pt x="201" y="67" on="0"/>
      </contour>
      <contour>
        <pt x="248" y="533" on="1"/>
        <pt x="304" y="533" on="0"/>
        <pt x="381" y="504" on="0"/>
        <pt x="428" y="451" on="0"/>
        <pt x="448" y="378" on="0"/>
        <pt x="448" y="334" on="1"/>
        <pt x="448" y="9" on="1"/>
        <pt x="436" y="7" on="0"/>
        <pt x="393" y="0" on="0"/>
        <pt x="339" y="-6" on="0"/>
        <pt x="276" y="-11" on="0"/>
        <pt x="245" y="-11" on="1"/>
        <pt x="201" y="-11" on="0"/>
        <pt x="127" y="7" on="0"/>
        <pt x="73" y="46" on="0"/>
        <pt x="43" y="110" on="0"/>
        <pt x="43" y="155" on="1"/>
        <pt x="43" y="198" on="0"/>
        <pt x="78" y="260" on="0"/>
        <pt x="138" y="298" on="0"/>
        <pt x="218" y="316" on="0"/>
        <pt x="262" y="316" on="1"/>
        <pt x="276" y="316" on="0"/>
        <pt x="306" y="313" on="0"/>
        <pt x="333" y="308" on="0"/>
        <pt x="353" y="304" on="0"/>
        <pt x="357" y="303" on="1"/>
        <pt x="357" y="329" on="1"/>
        <pt x="357" y="352" on="0"/>
        <pt x="347" y="397" on="0"/>
        <pt x="321" y="432" on="0"/>
        <pt x="276" y="453" on="0"/>
        <pt x="240" y="453" on="1"/>
        <pt x="194" y="453" on="0"/>
        <pt x="125" y="440" on="0"/>
        <pt x="108" y="433" on="1"/>
        <pt x="97" y="510" on="1"/>
        <pt x="115" y="518" on="0"/>
        <pt x="199" y="533" on="0"/>
      </contour>
    </TTGlyph>
    <TTGlyph name="aacute" xMin="43" yMin="-11" xMax="448" yMax="776">
      <component glyphName="a" x="0" y="0" flags="0x204"/>
      <component glyphName="acute" x="69" y="0" flags="0x4"/>
    </TTGlyph>
    <TTGlyph name="abreve" xMin="43" yMin="-11" xMax="448" yMax="749">
      <component glyphName="a" x="0" y="0" flags="0x204"/>
      <component glyphName="breve" x="72" y="0" flags="0x4"/>
    </TTGlyph>
    <TTGlyph name="acircumflex" xMin="43" yMin="-11" xMax="448" yMax="769">
      <component glyphName="a" x="0" y="0" flags="0x204"/>
      <component glyphName="circumflex" x="75" y="0" flags="0x4"/>
    </TTGlyph>
    <TTGlyph name="acute" xMin="127" yMin="580" xMax="315" yMax="776">
      <contour>
        <pt x="315" y="717" on="1"/>
        <pt x="174" y="580" on="1"/>
        <pt x="127" y="622" on="1"/>
        <pt x="255" y="776" on="1"/>
      </contour>
    </TTGlyph>
    <TTGlyph name="acute.asc" xMin="93" yMin="819" xMax="282" yMax="952">
      <contour>
        <pt x="282" y="879" on="1"/>
        <pt x="114" y="819" on="1"/>
        <pt x="93" y="874" on="1"/>
        <pt x="254" y="952" on="1"/>
      </contour>
    </TTGlyph>
    <TTGlyph name="adieresis" xMin="43" yMin="-11" xMax="448" yMax="734">
      <component glyphName="a" x="0" y="0" flags="0x204"/>
      <component glyphName="dieresis" x="75" y="0" flags="0x4"/>
    </TTGlyph>
    <TTGlyph name="ae" xMin="44" yMin="-12" xMax="805" yMax="533">
      <contour>
        <pt x="613" y="-12" on="1"/>
        <pt x="556" y="-12" on="0"/>
        <pt x="471" y="15" on="0"/>
        <pt x="439" y="41" on="1"/>
        <pt x="429" y="34" on="0"/>
        <pt x="396" y="16" on="0"/>
        <pt x="350" y="-1" on="0"/>
        <pt x="293" y="-12" on="0"/>
        <pt x="259" y="-12" on="1"/>
        <pt x="209" y="-12" on="0"/>
        <pt x="130" y="6" on="0"/>
        <pt x="74" y="46" on="0"/>
        <pt x="44" y="110" on="0"/>
        <pt x="44" y="155" on="1"/>
        <pt x="44" y="198" on="0"/>
        <pt x="79" y="260" on="0"/>
        <pt x="139" y="298" on="0"/>
        <pt x="219" y="316" on="0"/>
        <pt x="263" y="316" on="1"/>
        <pt x="277" y="316" on="0"/>
        <pt x="307" y="313" on="0"/>
        <pt x="333" y="308" on="0"/>
        <pt x="353" y="304" on="0"/>
        <pt x="357" y="303" on="1"/>
        <pt x="357" y="329" on="1"/>
        <pt x="357" y="352" on="0"/>
        <pt x="347" y="397" on="0"/>
        <pt x="321" y="432" on="0"/>
        <pt x="276" y="453" on="0"/>
        <pt x="240" y="453" on="1"/>
        <pt x="194" y="453" on="0"/>
        <pt x="125" y="440" on="0"/>
        <pt x="108" y="433" on="1"/>
        <pt x="97" y="510" on="1"/>
        <pt x="115" y="518" on="0"/>
        <pt x="198" y="533" on="0"/>
        <pt x="246" y="533" on="1"/>
        <pt x="315" y="533" on="0"/>
        <pt x="396" y="486" on="0"/>
        <pt x="416" y="444" on="1"/>
        <pt x="449" y="489" on="0"/>
        <pt x="539" y="533" on="0"/>
        <pt x="588" y="533" on="1"/>
        <pt x="692" y="533" on="0"/>
        <pt x="805" y="401" on="0"/>
        <pt x="805" y="268" on="1"/>
        <pt x="805" y="260" on="0"/>
        <pt x="804" y="249" on="0"/>
        <pt x="804" y="244" on="1"/>
        <pt x="804" y="235" on="1"/>
        <pt x="448" y="235" on="1"/>
        <pt x="454" y="155" on="0"/>
        <pt x="537" y="70" on="0"/>
        <pt x="623" y="70" on="1"/>
        <pt x="672" y="70" on="0"/>
        <pt x="739" y="87" on="0"/>
        <pt x="756" y="95" on="1"/>
        <pt x="769" y="17" on="1"/>
        <pt x="752" y="8" on="0"/>
        <pt x="667" y="-12" on="0"/>
      </contour>
      <contour>
        <pt x="261" y="67" on="1"/>
        <pt x="313" y="67" on="0"/>
        <pt x="373" y="90" on="0"/>
        <pt x="389" y="101" on="1"/>
        <pt x="374" y="129" on="0"/>
        <pt x="357" y="193" on="0"/>
        <pt x="356" y="229" on="1"/>
        <pt x="345" y="234" on="0"/>
        <pt x="303" y="241" on="0"/>
        <pt x="271" y="241" on="1"/>
        <pt x="250" y="241" on="0"/>
        <pt x="203" y="235" on="0"/>
        <pt x="164" y="216" on="0"/>
        <pt x="138" y="183" on="0"/>
        <pt x="138" y="156" on="1"/>
        <pt x="138" y="105" on="0"/>
        <pt x="203" y="67" on="0"/>
      </contour>
      <contour>
        <pt x="708" y="310" on="1"/>
        <pt x="709" y="373" on="0"/>
        <pt x="644" y="454" on="0"/>
        <pt x="587" y="454" on="1"/>
        <pt x="555" y="454" on="0"/>
        <pt x="506" y="429" on="0"/>
        <pt x="473" y="389" on="0"/>
        <pt x="453" y="337" on="0"/>
        <pt x="450" y="310" on="1"/>
      </contour>
    </TTGlyph>
    <TTGlyph name="aeacute" xMin="44" yMin="-12" xMax="805" yMax="776">
      <component glyphName="ae" x="0" y="0" flags="0x204"/>
      <component glyphName="acute" x="229" y="0" flags="0x4"/>
    </TTGlyph>
    <TTGlyph name="afii00208" xMin="-2" yMin="260" xMax="998" yMax="339">
      <component glyphName="emdash" x="0" y="0" flags="0x210"/>
    </TTGlyph>
    <TTGlyph name="afii10017" xMin="8" yMin="0" xMax="655" yMax="693">
      <component glyphName="A" x="0" y="0" flags="0x214"/>
    </TTGlyph>
    <TTGlyph name="afii10018" xMin="86" yMin="-7" xMax="579" yMax="693">
      <component glyphName="uni0182" x="0" y="0" flags="0x214"/>
    </TTGlyph>
    <TTGlyph name="afii10019" xMin="86" yMin="-6" xMax="592" yMax="700">
      <component glyphName="B" x="0" y="0" flags="0x214"/>
    </TTGlyph>
    <TTGlyph name="afii10020" xMin="86" yMin="0" xMax="493" yMax="693">
      <contour>
        <pt x="493" y="693" on="1"/>
        <pt x="493" y="609" on="1"/>
        <pt x="183" y="609" on="1"/>
        <pt x="183" y="0" on="1"/>
        <pt x="86" y="0" on="1"/>
        <pt x="86" y="693" on="1"/>
      </contour>
    </TTGlyph>
    <TTGlyph name="afii10021" xMin="16" yMin="-185" xMax="705" yMax="693">
      <contour>
        <pt x="108" y="0" on="1"/>
        <pt x="108" y="-185" on="1"/>
        <pt x="16" y="-185" on="1"/>
        <pt x="16" y="83" on="1"/>
        <pt x="89" y="83" on="1"/>
        <pt x="140" y="141" on="0"/>
        <pt x="195" y="282" on="0"/>
        <pt x="220" y="439" on="0"/>
        <pt x="225" y="607" on="0"/>
        <pt x="226" y="693" on="1"/>
        <pt x="618" y="693" on="1"/>
        <pt x="618" y="83" on="1"/>
        <pt x="705" y="83" on="1"/>
        <pt x="705" y="-185" on="1"/>
        <pt x="613" y="-185" on="1"/>
        <pt x="613" y="0" on="1"/>
      </contour>
      <contour>
        <pt x="321" y="610" on="1"/>
        <pt x="318" y="544" on="0"/>
        <pt x="311" y="407" on="0"/>
        <pt x="288" y="272" on="0"/>
        <pt x="244" y="142" on="0"/>
        <pt x="204" y="83" on="1"/>
        <pt x="521" y="83" on="1"/>
        <pt x="521" y="610" on="1"/>
      </contour>
    </TTGlyph>
    <TTGlyph name="afii10022" xMin="86" yMin="0" xMax="534" yMax="693">
      <component glyphName="E" x="0" y="0" flags="0x214"/>
    </TTGlyph>
    <TTGlyph name="afii10023" xMin="86" yMin="0" xMax="534" yMax="890">
      <component glyphName="E" x="0" y="0" flags="0x204"/>
      <component glyphName="dieresis" x="109" y="156" flags="0x4"/>
    </TTGlyph>
    <TTGlyph name="afii10024" xMin="24" yMin="0" xMax="882" yMax="693">
      <contour>
        <pt x="310" y="368" on="1"/>
        <pt x="280" y="403" on="0"/>
        <pt x="207" y="488" on="0"/>
        <pt x="134" y="575" on="0"/>
        <pt x="65" y="659" on="0"/>
        <pt x="38" y="693" on="1"/>
        <pt x="151" y="693" on="1"/>
        <pt x="173" y="665" on="0"/>
        <pt x="234" y="589" on="0"/>
        <pt x="303" y="506" on="0"/>
        <pt x="374" y="421" on="0"/>
        <pt x="406" y="384" on="1"/>
        <pt x="406" y="693" on="1"/>
        <pt x="499" y="693" on="1"/>
        <pt x="499" y="384" on="1"/>
        <pt x="530" y="421" on="0"/>
        <pt x="601" y="506" on="0"/>
        <pt x="670" y="590" on="0"/>
        <pt x="732" y="665" on="0"/>
        <pt x="754" y="693" on="1"/>
        <pt x="866" y="693" on="1"/>
        <pt x="839" y="659" on="0"/>
        <pt x="770" y="575" on="0"/>
        <pt x="697" y="488" on="0"/>
        <pt x="625" y="404" on="0"/>
        <pt x="595" y="369" on="1"/>
        <pt x="635" y="333" on="0"/>
        <pt x="715" y="244" on="0"/>
        <pt x="790" y="148" on="0"/>
        <pt x="856" y="48" on="0"/>
        <pt x="882" y="0" on="1"/>
        <pt x="772" y="0" on="1"/>
        <pt x="745" y="46" on="0"/>
        <pt x="677" y="139" on="0"/>
        <pt x="605" y="226" on="0"/>
        <pt x="532" y="302" on="0"/>
        <pt x="499" y="331" on="1"/>
        <pt x="499" y="0" on="1"/>
        <pt x="406" y="0" on="1"/>
        <pt x="406" y="331" on="1"/>
        <pt x="373" y="302" on="0"/>
        <pt x="299" y="226" on="0"/>
        <pt x="227" y="139" on="0"/>
        <pt x="160" y="46" on="0"/>
        <pt x="133" y="0" on="1"/>
        <pt x="24" y="0" on="1"/>
        <pt x="49" y="48" on="0"/>
        <pt x="115" y="148" on="0"/>
        <pt x="190" y="244" on="0"/>
        <pt x="271" y="332" on="0"/>
      </contour>
    </TTGlyph>
    <TTGlyph name="afii10025" xMin="29" yMin="-15" xMax="521" yMax="708">
      <contour>
        <pt x="145" y="405" on="1"/>
        <pt x="197" y="405" on="1"/>
        <pt x="230" y="405" on="0"/>
        <pt x="298" y="415" on="0"/>
        <pt x="354" y="442" on="0"/>
        <pt x="390" y="488" on="0"/>
        <pt x="390" y="523" on="1"/>
        <pt x="390" y="568" on="0"/>
        <pt x="313" y="625" on="0"/>
        <pt x="249" y="625" on="1"/>
        <pt x="194" y="625" on="0"/>
        <pt x="106" y="600" on="0"/>
        <pt x="85" y="587" on="1"/>
        <pt x="54" y="666" on="1"/>
        <pt x="66" y="674" on="0"/>
        <pt x="107" y="689" on="0"/>
        <pt x="158" y="701" on="0"/>
        <pt x="218" y="708" on="0"/>
        <pt x="250" y="708" on="1"/>
        <pt x="302" y="708" on="0"/>
        <pt x="390" y="686" on="0"/>
        <pt x="454" y="641" on="0"/>
        <pt x="490" y="572" on="0"/>
        <pt x="490" y="525" on="1"/>
        <pt x="490" y="477" on="0"/>
        <pt x="429" y="393" on="0"/>
        <pt x="370" y="374" on="1"/>
        <pt x="400" y="366" on="0"/>
        <pt x="455" y="337" on="0"/>
        <pt x="496" y="292" on="0"/>
        <pt x="521" y="232" on="0"/>
        <pt x="521" y="192" on="1"/>
        <pt x="521" y="137" on="0"/>
        <pt x="480" y="58" on="0"/>
        <pt x="407" y="8" on="0"/>
        <pt x="303" y="-15" on="0"/>
        <pt x="240" y="-15" on="1"/>
        <pt x="202" y="-15" on="0"/>
        <pt x="134" y="-4" on="0"/>
        <pt x="80" y="11" on="0"/>
        <pt x="40" y="29" on="0"/>
        <pt x="29" y="35" on="1"/>
        <pt x="58" y="115" on="1"/>
        <pt x="69" y="109" on="0"/>
        <pt x="106" y="93" on="0"/>
        <pt x="152" y="79" on="0"/>
        <pt x="208" y="69" on="0"/>
        <pt x="239" y="69" on="1"/>
        <pt x="324" y="69" on="0"/>
        <pt x="419" y="126" on="0"/>
        <pt x="419" y="194" on="1"/>
        <pt x="419" y="234" on="0"/>
        <pt x="386" y="285" on="0"/>
        <pt x="329" y="315" on="0"/>
        <pt x="252" y="326" on="0"/>
        <pt x="207" y="326" on="1"/>
        <pt x="145" y="326" on="1"/>
      </contour>
    </TTGlyph>
    <TTGlyph name="afii10026" xMin="86" yMin="0" xMax="642" yMax="693">
      <contour>
        <pt x="86" y="0" on="1"/>
        <pt x="86" y="693" on="1"/>
        <pt x="181" y="693" on="1"/>
        <pt x="181" y="180" on="1"/>
        <pt x="213" y="233" on="0"/>
        <pt x="306" y="369" on="0"/>
        <pt x="411" y="510" on="0"/>
        <pt x="518" y="643" on="0"/>
        <pt x="565" y="693" on="1"/>
        <pt x="642" y="693" on="1"/>
        <pt x="642" y="0" on="1"/>
        <pt x="547" y="0" on="1"/>
        <pt x="547" y="541" on="1"/>
        <pt x="519" y="509" on="0"/>
        <pt x="453" y="425" on="0"/>
        <pt x="383" y="330" on="0"/>
        <pt x="312" y="228" on="0"/>
        <pt x="246" y="129" on="0"/>
        <pt x="189" y="37" on="0"/>
        <pt x="167" y="0" on="1"/>
      </contour>
    </TTGlyph>
    <TTGlyph name="afii10027" xMin="86" yMin="0" xMax="642" yMax="900">
      <component glyphName="afii10026" x="0" y="0" flags="0x204"/>
      <component glyphName="kratka" x="173" y="156" flags="0x4"/>
    </TTGlyph>
    <TTGlyph name="afii10028" xMin="86" yMin="0" xMax="623" yMax="693">
      <component glyphName="K" x="0" y="0" flags="0x214"/>
    </TTGlyph>
    <TTGlyph name="afii10029" xMin="13" yMin="-10" xMax="621" yMax="693">
      <contour>
        <pt x="323" y="610" on="1"/>
        <pt x="321" y="554" on="0"/>
        <pt x="317" y="449" on="0"/>
        <pt x="309" y="350" on="0"/>
        <pt x="293" y="256" on="0"/>
        <pt x="279" y="211" on="1"/>
        <pt x="265" y="166" on="0"/>
        <pt x="224" y="87" on="0"/>
        <pt x="163" y="28" on="0"/>
        <pt x="80" y="-8" on="0"/>
        <pt x="24" y="-10" on="1"/>
        <pt x="13" y="74" on="1"/>
        <pt x="83" y="82" on="0"/>
        <pt x="160" y="154" on="0"/>
        <pt x="185" y="228" on="1"/>
        <pt x="213" y="312" on="0"/>
        <pt x="228" y="549" on="0"/>
        <pt x="228" y="693" on="1"/>
        <pt x="621" y="693" on="1"/>
        <pt x="621" y="0" on="1"/>
        <pt x="524" y="0" on="1"/>
        <pt x="524" y="610" on="1"/>
      </contour>
    </TTGlyph>
    <TTGlyph name="afii10030" xMin="67" yMin="0" xMax="805" yMax="693">
      <component glyphName="M" x="0" y="0" flags="0x214"/>
    </TTGlyph>
    <TTGlyph name="afii10031" xMin="86" yMin="0" xMax="619" yMax="693">
      <component glyphName="H" x="0" y="0" flags="0x214"/>
    </TTGlyph>
    <TTGlyph name="afii10032" xMin="58" yMin="-15" xMax="720" yMax="709">
      <component glyphName="O" x="0" y="0" flags="0x214"/>
    </TTGlyph>
    <TTGlyph name="afii10033" xMin="86" yMin="0" xMax="613" yMax="693">
      <contour>
        <pt x="613" y="693" on="1"/>
        <pt x="613" y="0" on="1"/>
        <pt x="516" y="0" on="1"/>
        <pt x="516" y="610" on="1"/>
        <pt x="183" y="610" on="1"/>
        <pt x="183" y="0" on="1"/>
        <pt x="86" y="0" on="1"/>
        <pt x="86" y="693" on="1"/>
      </contour>
    </TTGlyph>
    <TTGlyph name="afii10034" xMin="86" yMin="0" xMax="573" yMax="700">
      <component glyphName="P" x="0" y="0" flags="0x214"/>
    </TTGlyph>
    <TTGlyph name="afii10035" xMin="58" yMin="-15" xMax="595" yMax="709">
      <component glyphName="C" x="0" y="0" flags="0x214"/>
    </TTGlyph>
    <TTGlyph name="afii10036" xMin="16" yMin="0" xMax="549" yMax="693">
      <component glyphName="T" x="0" y="0" flags="0x214"/>
    </TTGlyph>
    <TTGlyph name="afii10037" xMin="20" yMin="-9" xMax="579" yMax="693">
      <contour>
        <pt x="394" y="212" on="1"/>
        <pt x="374" y="166" on="0"/>
        <pt x="331" y="85" on="0"/>
        <pt x="272" y="25" on="0"/>
        <pt x="189" y="-9" on="0"/>
        <pt x="128" y="-9" on="1"/>
        <pt x="116" y="-9" on="0"/>
        <pt x="90" y="-6" on="0"/>
        <pt x="66" y="-1" on="0"/>
        <pt x="48" y="5" on="0"/>
        <pt x="44" y="8" on="1"/>
        <pt x="61" y="90" on="1"/>
        <pt x="74" y="85" on="0"/>
        <pt x="111" y="75" on="0"/>
        <pt x="131" y="75" on="1"/>
        <pt x="161" y="75" on="0"/>
        <pt x="206" y="90" on="0"/>
        <pt x="242" y="117" on="0"/>
        <pt x="270" y="156" on="0"/>
        <pt x="283" y="180" on="1"/>
        <pt x="239" y="251" on="0"/>
        <pt x="161" y="392" on="0"/>
        <pt x="95" y="524" on="0"/>
        <pt x="41" y="643" on="0"/>
        <pt x="20" y="693" on="1"/>
        <pt x="130" y="693" on="1"/>
        <pt x="163" y="606" on="0"/>
        <pt x="266" y="392" on="0"/>
        <pt x="329" y="275" on="1"/>
        <pt x="369" y="366" on="0"/>
        <pt x="442" y="585" on="0"/>
        <pt x="474" y="693" on="1"/>
        <pt x="579" y="693" on="1"/>
        <pt x="556" y="621" on="0"/>
        <pt x="510" y="494" on="0"/>
        <pt x="464" y="377" on="0"/>
        <pt x="418" y="266" on="0"/>
      </contour>
    </TTGlyph>
    <TTGlyph name="afii10038" xMin="56" yMin="0" xMax="808" yMax="738">
      <component glyphName="Phi" x="0" y="0" flags="0x214"/>
    </TTGlyph>
    <TTGlyph name="afii10039" xMin="23" yMin="0" xMax="611" yMax="693">
      <component glyphName="X" x="0" y="0" flags="0x214"/>
    </TTGlyph>
    <TTGlyph name="afii10040" xMin="86" yMin="-185" xMax="700" yMax="693">
      <contour>
        <pt x="613" y="83" on="1"/>
        <pt x="700" y="83" on="1"/>
        <pt x="700" y="-185" on="1"/>
        <pt x="608" y="-185" on="1"/>
        <pt x="608" y="0" on="1"/>
        <pt x="86" y="0" on="1"/>
        <pt x="86" y="693" on="1"/>
        <pt x="183" y="693" on="1"/>
        <pt x="183" y="83" on="1"/>
        <pt x="516" y="83" on="1"/>
        <pt x="516" y="693" on="1"/>
        <pt x="613" y="693" on="1"/>
      </contour>
    </TTGlyph>
    <TTGlyph name="afii10041" xMin="58" yMin="0" xMax="545" yMax="693">
      <contour>
        <pt x="154" y="493" on="1"/>
        <pt x="154" y="451" on="0"/>
        <pt x="169" y="388" on="0"/>
        <pt x="206" y="347" on="0"/>
        <pt x="269" y="327" on="0"/>
        <pt x="317" y="327" on="1"/>
        <pt x="336" y="327" on="0"/>
        <pt x="375" y="330" on="0"/>
        <pt x="411" y="334" on="0"/>
        <pt x="439" y="340" on="0"/>
        <pt x="448" y="342" on="1"/>
        <pt x="448" y="693" on="1"/>
        <pt x="545" y="693" on="1"/>
        <pt x="545" y="0" on="1"/>
        <pt x="448" y="0" on="1"/>
        <pt x="448" y="258" on="1"/>
        <pt x="429" y="253" on="0"/>
        <pt x="350" y="243" on="0"/>
        <pt x="305" y="243" on="1"/>
        <pt x="229" y="243" on="0"/>
        <pt x="133" y="278" on="0"/>
        <pt x="78" y="343" on="0"/>
        <pt x="58" y="436" on="0"/>
        <pt x="58" y="493" on="1"/>
        <pt x="58" y="693" on="1"/>
        <pt x="154" y="693" on="1"/>
      </contour>
    </TTGlyph>
    <TTGlyph name="afii10042" xMin="86" yMin="0" xMax="897" yMax="693">
      <contour>
        <pt x="86" y="0" on="1"/>
        <pt x="86" y="693" on="1"/>
        <pt x="183" y="693" on="1"/>
        <pt x="183" y="83" on="1"/>
        <pt x="443" y="83" on="1"/>
        <pt x="443" y="693" on="1"/>
        <pt x="540" y="693" on="1"/>
        <pt x="540" y="83" on="1"/>
        <pt x="800" y="83" on="1"/>
        <pt x="800" y="693" on="1"/>
        <pt x="897" y="693" on="1"/>
        <pt x="897" y="0" on="1"/>
      </contour>
    </TTGlyph>
    <TTGlyph name="afii10043" xMin="86" yMin="-185" xMax="984" yMax="693">
      <contour>
        <pt x="86" y="0" on="1"/>
        <pt x="86" y="693" on="1"/>
        <pt x="183" y="693" on="1"/>
        <pt x="183" y="83" on="1"/>
        <pt x="443" y="83" on="1"/>
        <pt x="443" y="693" on="1"/>
        <pt x="540" y="693" on="1"/>
        <pt x="540" y="83" on="1"/>
        <pt x="800" y="83" on="1"/>
        <pt x="800" y="693" on="1"/>
        <pt x="897" y="693" on="1"/>
        <pt x="897" y="83" on="1"/>
        <pt x="984" y="83" on="1"/>
        <pt x="984" y="-185" on="1"/>
        <pt x="892" y="-185" on="1"/>
        <pt x="892" y="0" on="1"/>
      </contour>
    </TTGlyph>
    <TTGlyph name="afii10044" xMin="16" yMin="-7" xMax="689" yMax="693">
      <contour>
        <pt x="689" y="217" on="1"/>
        <pt x="689" y="105" on="0"/>
        <pt x="527" y="-7" on="0"/>
        <pt x="380" y="-7" on="1"/>
        <pt x="338" y="-7" on="0"/>
        <pt x="238" y="0" on="0"/>
        <pt x="196" y="10" on="1"/>
        <pt x="196" y="610" on="1"/>
        <pt x="16" y="610" on="1"/>
        <pt x="16" y="693" on="1"/>
        <pt x="293" y="693" on="1"/>
        <pt x="293" y="441" on="1"/>
        <pt x="313" y="443" on="0"/>
        <pt x="354" y="444" on="0"/>
        <pt x="374" y="444" on="1"/>
        <pt x="689" y="444" on="0"/>
      </contour>
      <contour>
        <pt x="587" y="217" on="1"/>
        <pt x="587" y="259" on="0"/>
        <pt x="555" y="315" on="0"/>
        <pt x="498" y="347" on="0"/>
        <pt x="419" y="360" on="0"/>
        <pt x="371" y="360" on="1"/>
        <pt x="352" y="360" on="0"/>
        <pt x="313" y="360" on="0"/>
        <pt x="293" y="358" on="1"/>
        <pt x="293" y="81" on="1"/>
        <pt x="311" y="79" on="0"/>
        <pt x="356" y="78" on="0"/>
        <pt x="388" y="78" on="1"/>
        <pt x="427" y="78" on="0"/>
        <pt x="499" y="90" on="0"/>
        <pt x="554" y="122" on="0"/>
        <pt x="587" y="175" on="0"/>
      </contour>
    </TTGlyph>
    <TTGlyph name="afii10045" xMin="86" yMin="-7" xMax="770" yMax="693">
      <contour>
        <pt x="466" y="217" on="1"/>
        <pt x="466" y="259" on="0"/>
        <pt x="436" y="315" on="0"/>
        <pt x="380" y="347" on="0"/>
        <pt x="303" y="360" on="0"/>
        <pt x="257" y="360" on="1"/>
        <pt x="240" y="360" on="0"/>
        <pt x="201" y="360" on="0"/>
        <pt x="183" y="358" on="1"/>
        <pt x="183" y="81" on="1"/>
        <pt x="217" y="78" on="0"/>
        <pt x="251" y="78" on="0"/>
        <pt x="274" y="78" on="1"/>
        <pt x="311" y="78" on="0"/>
        <pt x="381" y="90" on="0"/>
        <pt x="434" y="122" on="0"/>
        <pt x="466" y="175" on="0"/>
      </contour>
      <contour>
        <pt x="568" y="217" on="1"/>
        <pt x="568" y="161" on="0"/>
        <pt x="526" y="77" on="0"/>
        <pt x="448" y="21" on="0"/>
        <pt x="336" y="-7" on="0"/>
        <pt x="266" y="-7" on="1"/>
        <pt x="224" y="-7" on="0"/>
        <pt x="128" y="0" on="0"/>
        <pt x="86" y="10" on="1"/>
        <pt x="86" y="693" on="1"/>
        <pt x="183" y="693" on="1"/>
        <pt x="183" y="441" on="1"/>
        <pt x="201" y="443" on="0"/>
        <pt x="242" y="444" on="0"/>
        <pt x="260" y="444" on="1"/>
        <pt x="568" y="444" on="0"/>
      </contour>
      <contour>
        <pt x="673" y="693" on="1"/>
        <pt x="770" y="693" on="1"/>
        <pt x="770" y="0" on="1"/>
        <pt x="673" y="0" on="1"/>
      </contour>
    </TTGlyph>
    <TTGlyph name="afii10046" xMin="86" yMin="-7" xMax="579" yMax="693">
      <contour>
        <pt x="579" y="217" on="1"/>
        <pt x="579" y="105" on="0"/>
        <pt x="417" y="-7" on="0"/>
        <pt x="270" y="-7" on="1"/>
        <pt x="228" y="-7" on="0"/>
        <pt x="128" y="0" on="0"/>
        <pt x="86" y="10" on="1"/>
        <pt x="86" y="693" on="1"/>
        <pt x="183" y="693" on="1"/>
        <pt x="183" y="441" on="1"/>
        <pt x="203" y="443" on="0"/>
        <pt x="244" y="444" on="0"/>
        <pt x="264" y="444" on="1"/>
        <pt x="579" y="444" on="0"/>
      </contour>
      <contour>
        <pt x="477" y="217" on="1"/>
        <pt x="477" y="259" on="0"/>
        <pt x="445" y="315" on="0"/>
        <pt x="388" y="347" on="0"/>
        <pt x="309" y="360" on="0"/>
        <pt x="261" y="360" on="1"/>
        <pt x="242" y="360" on="0"/>
        <pt x="203" y="360" on="0"/>
        <pt x="183" y="358" on="1"/>
        <pt x="183" y="81" on="1"/>
        <pt x="201" y="79" on="0"/>
        <pt x="246" y="78" on="0"/>
        <pt x="278" y="78" on="1"/>
        <pt x="317" y="78" on="0"/>
        <pt x="389" y="90" on="0"/>
        <pt x="444" y="122" on="0"/>
        <pt x="477" y="175" on="0"/>
      </contour>
    </TTGlyph>
    <TTGlyph name="afii10047" xMin="25" yMin="-15" xMax="562" yMax="709">
      <contour>
        <pt x="562" y="347" on="1"/>
        <pt x="562" y="262" on="0"/>
        <pt x="515" y="127" on="0"/>
        <pt x="429" y="34" on="0"/>
        <pt x="310" y="-15" on="0"/>
        <pt x="237" y="-15" on="1"/>
        <pt x="195" y="-15" on="0"/>
        <pt x="123" y="-5" on="0"/>
        <pt x="68" y="9" on="0"/>
        <pt x="32" y="24" on="0"/>
        <pt x="25" y="29" on="1"/>
        <pt x="50" y="109" on="1"/>
        <pt x="72" y="98" on="0"/>
        <pt x="159" y="70" on="0"/>
        <pt x="225" y="70" on="1"/>
        <pt x="279" y="70" on="0"/>
        <pt x="362" y="105" on="0"/>
        <pt x="421" y="169" on="0"/>
        <pt x="454" y="258" on="0"/>
        <pt x="458" y="313" on="1"/>
        <pt x="152" y="313" on="1"/>
        <pt x="152" y="395" on="1"/>
        <pt x="456" y="395" on="1"/>
        <pt x="451" y="447" on="0"/>
        <pt x="418" y="531" on="0"/>
        <pt x="360" y="591" on="0"/>
        <pt x="278" y="624" on="0"/>
        <pt x="225" y="624" on="1"/>
        <pt x="159" y="624" on="0"/>
        <pt x="74" y="597" on="0"/>
        <pt x="52" y="586" on="1"/>
        <pt x="27" y="663" on="1"/>
        <pt x="34" y="668" on="0"/>
        <pt x="69" y="684" on="0"/>
        <pt x="123" y="699" on="0"/>
        <pt x="194" y="709" on="0"/>
        <pt x="236" y="709" on="1"/>
        <pt x="309" y="709" on="0"/>
        <pt x="429" y="660" on="0"/>
        <pt x="515" y="567" on="0"/>
        <pt x="562" y="433" on="0"/>
      </contour>
    </TTGlyph>
    <TTGlyph name="afii10048" xMin="86" yMin="-14" xMax="972" yMax="708">
      <contour>
        <pt x="655" y="708" on="1"/>
        <pt x="719" y="708" on="0"/>
        <pt x="834" y="662" on="0"/>
        <pt x="921" y="571" on="0"/>
        <pt x="972" y="436" on="0"/>
        <pt x="972" y="347" on="1"/>
        <pt x="972" y="258" on="0"/>
        <pt x="922" y="123" on="0"/>
        <pt x="835" y="32" on="0"/>
        <pt x="720" y="-14" on="0"/>
        <pt x="655" y="-14" on="1"/>
        <pt x="592" y="-14" on="0"/>
        <pt x="480" y="29" on="0"/>
        <pt x="395" y="113" on="0"/>
        <pt x="342" y="238" on="0"/>
        <pt x="338" y="321" on="1"/>
        <pt x="183" y="321" on="1"/>
        <pt x="183" y="0" on="1"/>
        <pt x="86" y="0" on="1"/>
        <pt x="86" y="693" on="1"/>
        <pt x="183" y="693" on="1"/>
        <pt x="183" y="404" on="1"/>
        <pt x="341" y="404" on="1"/>
        <pt x="349" y="479" on="0"/>
        <pt x="405" y="593" on="0"/>
        <pt x="489" y="669" on="0"/>
        <pt x="596" y="708" on="0"/>
      </contour>
      <contour>
        <pt x="655" y="71" on="1"/>
        <pt x="706" y="71" on="0"/>
        <pt x="786" y="110" on="0"/>
        <pt x="841" y="182" on="0"/>
        <pt x="870" y="284" on="0"/>
        <pt x="870" y="347" on="1"/>
        <pt x="870" y="410" on="0"/>
        <pt x="841" y="512" on="0"/>
        <pt x="786" y="584" on="0"/>
        <pt x="706" y="623" on="0"/>
        <pt x="655" y="623" on="1"/>
        <pt x="604" y="623" on="0"/>
        <pt x="524" y="584" on="0"/>
        <pt x="468" y="512" on="0"/>
        <pt x="439" y="410" on="0"/>
        <pt x="439" y="347" on="1"/>
        <pt x="439" y="284" on="0"/>
        <pt x="468" y="182" on="0"/>
        <pt x="524" y="110" on="0"/>
        <pt x="604" y="71" on="0"/>
      </contour>
    </TTGlyph>
    <TTGlyph name="afii10049" xMin="36" yMin="0" xMax="549" yMax="700">
      <contour>
        <pt x="355" y="615" on="1"/>
        <pt x="317" y="615" on="0"/>
        <pt x="248" y="603" on="0"/>
        <pt x="194" y="573" on="0"/>
        <pt x="162" y="521" on="0"/>
        <pt x="162" y="482" on="1"/>
        <pt x="162" y="408" on="0"/>
        <pt x="257" y="351" on="0"/>
        <pt x="352" y="351" on="1"/>
        <pt x="452" y="351" on="1"/>
        <pt x="452" y="612" on="1"/>
        <pt x="441" y="612" on="0"/>
        <pt x="426" y="613" on="1"/>
        <pt x="413" y="614" on="0"/>
        <pt x="378" y="615" on="0"/>
      </contour>
      <contour>
        <pt x="363" y="700" on="1"/>
        <pt x="384" y="700" on="0"/>
        <pt x="432" y="698" on="0"/>
        <pt x="481" y="694" on="0"/>
        <pt x="529" y="688" on="0"/>
        <pt x="549" y="683" on="1"/>
        <pt x="549" y="0" on="1"/>
        <pt x="452" y="0" on="1"/>
        <pt x="452" y="271" on="1"/>
        <pt x="369" y="271" on="1"/>
        <pt x="355" y="271" on="0"/>
        <pt x="324" y="272" on="0"/>
        <pt x="298" y="275" on="1"/>
        <pt x="280" y="251" on="0"/>
        <pt x="238" y="187" on="0"/>
        <pt x="196" y="115" on="0"/>
        <pt x="155" y="37" on="0"/>
        <pt x="138" y="0" on="1"/>
        <pt x="36" y="0" on="1"/>
        <pt x="52" y="39" on="0"/>
        <pt x="96" y="123" on="0"/>
        <pt x="143" y="199" on="0"/>
        <pt x="186" y="264" on="0"/>
        <pt x="202" y="285" on="1"/>
        <pt x="179" y="292" on="0"/>
        <pt x="129" y="318" on="0"/>
        <pt x="87" y="364" on="0"/>
        <pt x="60" y="433" on="0"/>
        <pt x="60" y="481" on="1"/>
        <pt x="60" y="535" on="0"/>
        <pt x="102" y="617" on="0"/>
        <pt x="181" y="672" on="0"/>
        <pt x="293" y="700" on="0"/>
      </contour>
    </TTGlyph>
    <TTGlyph name="afii10050" xMin="86" yMin="0" xMax="493" yMax="825">
      <contour>
        <pt x="405" y="693" on="1"/>
        <pt x="405" y="825" on="1"/>
        <pt x="493" y="825" on="1"/>
        <pt x="493" y="609" on="1"/>
        <pt x="183" y="609" on="1"/>
        <pt x="183" y="0" on="1"/>
        <pt x="86" y="0" on="1"/>
        <pt x="86" y="693" on="1"/>
      </contour>
    </TTGlyph>
    <TTGlyph name="afii10051" xMin="16" yMin="-2" xMax="713" yMax="693">
      <contour>
        <pt x="713" y="208" on="1"/>
        <pt x="713" y="164" on="0"/>
        <pt x="686" y="87" on="0"/>
        <pt x="635" y="30" on="0"/>
        <pt x="560" y="-2" on="0"/>
        <pt x="511" y="-2" on="1"/>
        <pt x="497" y="-2" on="0"/>
        <pt x="466" y="-1" on="0"/>
        <pt x="454" y="1" on="1"/>
        <pt x="457" y="78" on="1"/>
        <pt x="463" y="77" on="0"/>
        <pt x="480" y="76" on="0"/>
        <pt x="494" y="76" on="1"/>
        <pt x="554" y="76" on="0"/>
        <pt x="613" y="150" on="0"/>
        <pt x="613" y="207" on="1"/>
        <pt x="613" y="283" on="0"/>
        <pt x="519" y="353" on="0"/>
        <pt x="435" y="353" on="1"/>
        <pt x="400" y="353" on="0"/>
        <pt x="333" y="343" on="0"/>
        <pt x="316" y="339" on="1"/>
        <pt x="316" y="0" on="1"/>
        <pt x="219" y="0" on="1"/>
        <pt x="219" y="609" on="1"/>
        <pt x="16" y="609" on="1"/>
        <pt x="16" y="693" on="1"/>
        <pt x="556" y="693" on="1"/>
        <pt x="556" y="609" on="1"/>
        <pt x="316" y="609" on="1"/>
        <pt x="316" y="419" on="1"/>
        <pt x="325" y="422" on="0"/>
        <pt x="354" y="428" on="0"/>
        <pt x="390" y="433" on="0"/>
        <pt x="428" y="436" on="0"/>
        <pt x="445" y="436" on="1"/>
        <pt x="513" y="436" on="0"/>
        <pt x="614" y="404" on="0"/>
        <pt x="680" y="344" on="0"/>
        <pt x="713" y="260" on="0"/>
      </contour>
    </TTGlyph>
    <TTGlyph name="afii10052" xMin="86" yMin="0" xMax="493" yMax="932">
      <component glyphName="afii10020" x="0" y="0" flags="0x204"/>
      <component glyphName="acute" x="95" y="156" flags="0x4"/>
    </TTGlyph>
    <TTGlyph name="afii10053" xMin="58" yMin="-15" xMax="595" yMax="709">
      <contour>
        <pt x="383" y="-15" on="1"/>
        <pt x="310" y="-15" on="0"/>
        <pt x="190" y="34" on="0"/>
        <pt x="105" y="127" on="0"/>
        <pt x="58" y="261" on="0"/>
        <pt x="58" y="347" on="1"/>
        <pt x="58" y="432" on="0"/>
        <pt x="105" y="567" on="0"/>
        <pt x="191" y="660" on="0"/>
        <pt x="311" y="709" on="0"/>
        <pt x="384" y="709" on="1"/>
        <pt x="426" y="709" on="0"/>
        <pt x="497" y="699" on="0"/>
        <pt x="551" y="684" on="0"/>
        <pt x="586" y="668" on="0"/>
        <pt x="593" y="663" on="1"/>
        <pt x="568" y="586" on="1"/>
        <pt x="546" y="597" on="0"/>
        <pt x="461" y="624" on="0"/>
        <pt x="395" y="624" on="1"/>
        <pt x="342" y="624" on="0"/>
        <pt x="260" y="591" on="0"/>
        <pt x="202" y="531" on="0"/>
        <pt x="169" y="447" on="0"/>
        <pt x="164" y="395" on="1"/>
        <pt x="468" y="395" on="1"/>
        <pt x="468" y="313" on="1"/>
        <pt x="162" y="313" on="1"/>
        <pt x="166" y="258" on="0"/>
        <pt x="199" y="169" on="0"/>
        <pt x="258" y="105" on="0"/>
        <pt x="341" y="70" on="0"/>
        <pt x="395" y="70" on="1"/>
        <pt x="461" y="70" on="0"/>
        <pt x="548" y="98" on="0"/>
        <pt x="570" y="109" on="1"/>
        <pt x="595" y="29" on="1"/>
        <pt x="588" y="24" on="0"/>
        <pt x="552" y="9" on="0"/>
        <pt x="497" y="-5" on="0"/>
        <pt x="425" y="-15" on="0"/>
      </contour>
    </TTGlyph>
    <TTGlyph name="afii10054" xMin="33" yMin="-15" xMax="501" yMax="709">
      <component glyphName="S" x="0" y="0" flags="0x214"/>
    </TTGlyph>
    <TTGlyph name="afii10055" xMin="86" yMin="0" xMax="183" yMax="693">
      <component glyphName="I" x="0" y="0" flags="0x214"/>
    </TTGlyph>
    <TTGlyph name="afii10056" xMin="-18" yMin="0" xMax="288" yMax="890">
      <component glyphName="I" x="0" y="0" flags="0x204"/>
      <component glyphName="dieresis" x="-53" y="156" flags="0x4"/>
    </TTGlyph>
    <TTGlyph name="afii10057" xMin="8" yMin="-15" xMax="419" yMax="693">
      <component glyphName="J" x="0" y="0" flags="0x214"/>
    </TTGlyph>
    <TTGlyph name="afii10058" xMin="13" yMin="-10" xMax="1006" yMax="693">
      <contour>
        <pt x="524" y="610" on="1"/>
        <pt x="323" y="610" on="1"/>
        <pt x="319" y="498" on="0"/>
        <pt x="307" y="301" on="0"/>
        <pt x="279" y="211" on="1"/>
        <pt x="265" y="166" on="0"/>
        <pt x="224" y="87" on="0"/>
        <pt x="163" y="28" on="0"/>
        <pt x="80" y="-8" on="0"/>
        <pt x="24" y="-10" on="1"/>
        <pt x="13" y="74" on="1"/>
        <pt x="83" y="82" on="0"/>
        <pt x="160" y="154" on="0"/>
        <pt x="185" y="228" on="1"/>
        <pt x="213" y="313" on="0"/>
        <pt x="228" y="548" on="0"/>
        <pt x="228" y="693" on="1"/>
        <pt x="621" y="693" on="1"/>
        <pt x="621" y="441" on="1"/>
        <pt x="639" y="443" on="0"/>
        <pt x="680" y="444" on="0"/>
        <pt x="698" y="444" on="1"/>
        <pt x="1006" y="444" on="0"/>
        <pt x="1006" y="217" on="1"/>
        <pt x="1006" y="161" on="0"/>
        <pt x="964" y="77" on="0"/>
        <pt x="886" y="21" on="0"/>
        <pt x="774" y="-7" on="0"/>
        <pt x="704" y="-7" on="1"/>
        <pt x="662" y="-7" on="0"/>
        <pt x="566" y="0" on="0"/>
        <pt x="524" y="10" on="1"/>
      </contour>
      <contour>
        <pt x="904" y="217" on="1"/>
        <pt x="904" y="259" on="0"/>
        <pt x="874" y="315" on="0"/>
        <pt x="818" y="347" on="0"/>
        <pt x="741" y="360" on="0"/>
        <pt x="695" y="360" on="1"/>
        <pt x="678" y="360" on="0"/>
        <pt x="639" y="360" on="0"/>
        <pt x="621" y="358" on="1"/>
        <pt x="621" y="81" on="1"/>
        <pt x="638" y="79" on="0"/>
        <pt x="685" y="78" on="0"/>
        <pt x="712" y="78" on="1"/>
        <pt x="749" y="78" on="0"/>
        <pt x="819" y="90" on="0"/>
        <pt x="872" y="122" on="0"/>
        <pt x="904" y="175" on="0"/>
      </contour>
    </TTGlyph>
    <TTGlyph name="afii10059" xMin="86" yMin="-7" xMax="989" yMax="693">
      <contour>
        <pt x="604" y="436" on="1"/>
        <pt x="622" y="438" on="0"/>
        <pt x="663" y="440" on="0"/>
        <pt x="681" y="440" on="1"/>
        <pt x="835" y="440" on="0"/>
        <pt x="989" y="332" on="0"/>
        <pt x="989" y="217" on="1"/>
        <pt x="989" y="161" on="0"/>
        <pt x="947" y="77" on="0"/>
        <pt x="869" y="21" on="0"/>
        <pt x="757" y="-7" on="0"/>
        <pt x="687" y="-7" on="1"/>
        <pt x="645" y="-7" on="0"/>
        <pt x="549" y="0" on="0"/>
        <pt x="507" y="10" on="1"/>
        <pt x="507" y="343" on="1"/>
        <pt x="183" y="343" on="1"/>
        <pt x="183" y="0" on="1"/>
        <pt x="86" y="0" on="1"/>
        <pt x="86" y="693" on="1"/>
        <pt x="183" y="693" on="1"/>
        <pt x="183" y="426" on="1"/>
        <pt x="507" y="426" on="1"/>
        <pt x="507" y="693" on="1"/>
        <pt x="604" y="693" on="1"/>
      </contour>
      <contour>
        <pt x="695" y="78" on="1"/>
        <pt x="732" y="78" on="0"/>
        <pt x="802" y="90" on="0"/>
        <pt x="855" y="122" on="0"/>
        <pt x="887" y="175" on="0"/>
        <pt x="887" y="217" on="1"/>
        <pt x="887" y="259" on="0"/>
        <pt x="857" y="313" on="0"/>
        <pt x="801" y="344" on="0"/>
        <pt x="724" y="356" on="0"/>
        <pt x="678" y="356" on="1"/>
        <pt x="661" y="356" on="0"/>
        <pt x="622" y="355" on="0"/>
        <pt x="604" y="353" on="1"/>
        <pt x="604" y="81" on="1"/>
        <pt x="621" y="79" on="0"/>
        <pt x="668" y="78" on="0"/>
      </contour>
    </TTGlyph>
    <TTGlyph name="afii10060" xMin="16" yMin="0" xMax="682" yMax="693">
      <contour>
        <pt x="556" y="693" on="1"/>
        <pt x="556" y="609" on="1"/>
        <pt x="316" y="609" on="1"/>
        <pt x="316" y="419" on="1"/>
        <pt x="325" y="422" on="0"/>
        <pt x="354" y="428" on="0"/>
        <pt x="390" y="433" on="0"/>
        <pt x="428" y="436" on="0"/>
        <pt x="445" y="436" on="1"/>
        <pt x="513" y="436" on="0"/>
        <pt x="604" y="404" on="0"/>
        <pt x="659" y="344" on="0"/>
        <pt x="682" y="260" on="0"/>
        <pt x="682" y="208" on="1"/>
        <pt x="682" y="0" on="1"/>
        <pt x="586" y="0" on="1"/>
        <pt x="586" y="207" on="1"/>
        <pt x="586" y="281" on="0"/>
        <pt x="518" y="352" on="0"/>
        <pt x="435" y="352" on="1"/>
        <pt x="400" y="352" on="0"/>
        <pt x="333" y="342" on="0"/>
        <pt x="316" y="338" on="1"/>
        <pt x="316" y="0" on="1"/>
        <pt x="219" y="0" on="1"/>
        <pt x="219" y="609" on="1"/>
        <pt x="16" y="609" on="1"/>
        <pt x="16" y="693" on="1"/>
      </contour>
    </TTGlyph>
    <TTGlyph name="afii10061" xMin="86" yMin="0" xMax="623" yMax="932">
      <component glyphName="K" x="0" y="0" flags="0x204"/>
      <component glyphName="acute" x="131" y="156" flags="0x4"/>
    </TTGlyph>
    <TTGlyph name="afii10062" xMin="20" yMin="-9" xMax="579" yMax="900">
      <component glyphName="afii10037" x="0" y="0" flags="0x204"/>
      <component glyphName="kratka" x="115" y="156" flags="0x4"/>
    </TTGlyph>
    <TTGlyph name="afii10065" xMin="43" yMin="-11" xMax="448" yMax="533">
      <component glyphName="a" x="0" y="0" flags="0x214"/>
    </TTGlyph>
    <TTGlyph name="afii10066" xMin="62" yMin="-13" xMax="543" yMax="776">
      <contour>
        <pt x="164" y="460" on="1"/>
        <pt x="195" y="485" on="0"/>
        <pt x="278" y="512" on="0"/>
        <pt x="316" y="512" on="1"/>
        <pt x="428" y="512" on="0"/>
        <pt x="543" y="375" on="0"/>
        <pt x="543" y="253" on="1"/>
        <pt x="543" y="201" on="0"/>
        <pt x="515" y="105" on="0"/>
        <pt x="456" y="31" on="0"/>
        <pt x="366" y="-13" on="0"/>
        <pt x="304" y="-13" on="1"/>
        <pt x="233" y="-13" on="0"/>
        <pt x="139" y="39" on="0"/>
        <pt x="84" y="129" on="0"/>
        <pt x="62" y="249" on="0"/>
        <pt x="62" y="316" on="1"/>
        <pt x="62" y="403" on="0"/>
        <pt x="87" y="553" on="0"/>
        <pt x="153" y="667" on="0"/>
        <pt x="270" y="742" on="0"/>
        <pt x="362" y="755" on="1"/>
        <pt x="389" y="759" on="0"/>
        <pt x="430" y="764" on="0"/>
        <pt x="461" y="768" on="0"/>
        <pt x="487" y="773" on="0"/>
        <pt x="501" y="776" on="1"/>
        <pt x="511" y="692" on="1"/>
        <pt x="504" y="690" on="0"/>
        <pt x="489" y="688" on="0"/>
        <pt x="462" y="684" on="0"/>
        <pt x="417" y="678" on="0"/>
        <pt x="381" y="674" on="1"/>
        <pt x="282" y="663" on="0"/>
        <pt x="176" y="565" on="0"/>
      </contour>
      <contour>
        <pt x="158" y="301" on="1"/>
        <pt x="158" y="254" on="0"/>
        <pt x="171" y="170" on="0"/>
        <pt x="204" y="106" on="0"/>
        <pt x="260" y="69" on="0"/>
        <pt x="304" y="69" on="1"/>
        <pt x="342" y="69" on="0"/>
        <pt x="396" y="98" on="0"/>
        <pt x="430" y="148" on="0"/>
        <pt x="446" y="215" on="0"/>
        <pt x="446" y="253" on="1"/>
        <pt x="446" y="287" on="0"/>
        <pt x="433" y="351" on="0"/>
        <pt x="399" y="401" on="0"/>
        <pt x="342" y="431" on="0"/>
        <pt x="299" y="431" on="1"/>
        <pt x="257" y="431" on="0"/>
        <pt x="180" y="395" on="0"/>
        <pt x="159" y="369" on="1"/>
        <pt x="158" y="358" on="0"/>
        <pt x="158" y="318" on="0"/>
      </contour>
    </TTGlyph>
    <TTGlyph name="afii10066.locl" xMin="51" yMin="-13" xMax="537" yMax="776">
      <contour>
        <pt x="537" y="257" on="1"/>
        <pt x="537" y="206" on="0"/>
        <pt x="509" y="108" on="0"/>
        <pt x="450" y="33" on="0"/>
        <pt x="358" y="-13" on="0"/>
        <pt x="293" y="-13" on="1"/>
        <pt x="232" y="-13" on="0"/>
        <pt x="141" y="28" on="0"/>
        <pt x="81" y="99" on="0"/>
        <pt x="51" y="192" on="0"/>
        <pt x="51" y="243" on="1"/>
        <pt x="51" y="288" on="0"/>
        <pt x="74" y="367" on="0"/>
        <pt x="116" y="433" on="0"/>
        <pt x="173" y="486" on="0"/>
        <pt x="207" y="505" on="1"/>
        <pt x="175" y="525" on="0"/>
        <pt x="130" y="584" on="0"/>
        <pt x="130" y="627" on="1"/>
        <pt x="130" y="696" on="0"/>
        <pt x="223" y="771" on="0"/>
        <pt x="301" y="771" on="1"/>
        <pt x="366" y="771" on="0"/>
        <pt x="441" y="772" on="0"/>
        <pt x="470" y="776" on="1"/>
        <pt x="475" y="697" on="1"/>
        <pt x="444" y="694" on="0"/>
        <pt x="371" y="693" on="0"/>
        <pt x="326" y="693" on="1"/>
        <pt x="278" y="693" on="0"/>
        <pt x="220" y="669" on="0"/>
        <pt x="220" y="634" on="1"/>
        <pt x="220" y="619" on="0"/>
        <pt x="229" y="598" on="0"/>
        <pt x="250" y="580" on="0"/>
        <pt x="282" y="561" on="0"/>
        <pt x="306" y="549" on="1"/>
        <pt x="352" y="524" on="0"/>
        <pt x="436" y="475" on="0"/>
        <pt x="500" y="410" on="0"/>
        <pt x="537" y="321" on="0"/>
      </contour>
      <contour>
        <pt x="441" y="257" on="1"/>
        <pt x="441" y="306" on="0"/>
        <pt x="410" y="376" on="0"/>
        <pt x="364" y="425" on="0"/>
        <pt x="311" y="456" on="0"/>
        <pt x="288" y="466" on="1"/>
        <pt x="223" y="435" on="0"/>
        <pt x="147" y="320" on="0"/>
        <pt x="147" y="246" on="1"/>
        <pt x="147" y="212" on="0"/>
        <pt x="164" y="148" on="0"/>
        <pt x="199" y="99" on="0"/>
        <pt x="255" y="69" on="0"/>
        <pt x="294" y="69" on="1"/>
        <pt x="366" y="69" on="0"/>
        <pt x="441" y="173" on="0"/>
      </contour>
    </TTGlyph>
    <TTGlyph name="afii10067" xMin="80" yMin="-9" xMax="508" yMax="533">
      <contour>
        <pt x="171" y="70" on="1"/>
        <pt x="177" y="69" on="0"/>
        <pt x="199" y="67" on="0"/>
        <pt x="227" y="66" on="0"/>
        <pt x="258" y="65" on="0"/>
        <pt x="272" y="65" on="1"/>
        <pt x="301" y="65" on="0"/>
        <pt x="354" y="73" on="0"/>
        <pt x="393" y="93" on="0"/>
        <pt x="416" y="126" on="0"/>
        <pt x="416" y="152" on="1"/>
        <pt x="416" y="177" on="0"/>
        <pt x="395" y="210" on="0"/>
        <pt x="359" y="230" on="0"/>
        <pt x="310" y="238" on="0"/>
        <pt x="282" y="238" on="1"/>
        <pt x="171" y="238" on="1"/>
      </contour>
      <contour>
        <pt x="270" y="307" on="1"/>
        <pt x="297" y="307" on="0"/>
        <pt x="342" y="314" on="0"/>
        <pt x="375" y="332" on="0"/>
        <pt x="394" y="362" on="0"/>
        <pt x="394" y="385" on="1"/>
        <pt x="394" y="409" on="0"/>
        <pt x="370" y="437" on="0"/>
        <pt x="331" y="452" on="0"/>
        <pt x="282" y="457" on="0"/>
        <pt x="257" y="457" on="1"/>
        <pt x="234" y="457" on="0"/>
        <pt x="187" y="455" on="0"/>
        <pt x="171" y="454" on="1"/>
        <pt x="171" y="307" on="1"/>
      </contour>
      <contour>
        <pt x="268" y="-9" on="1"/>
        <pt x="209" y="-9" on="0"/>
        <pt x="109" y="2" on="0"/>
        <pt x="80" y="9" on="1"/>
        <pt x="80" y="515" on="1"/>
        <pt x="109" y="522" on="0"/>
        <pt x="209" y="533" on="0"/>
        <pt x="268" y="533" on="1"/>
        <pt x="309" y="533" on="0"/>
        <pt x="387" y="519" on="0"/>
        <pt x="447" y="486" on="0"/>
        <pt x="484" y="429" on="0"/>
        <pt x="484" y="387" on="1"/>
        <pt x="484" y="349" on="0"/>
        <pt x="446" y="295" on="0"/>
        <pt x="414" y="280" on="1"/>
        <pt x="457" y="265" on="0"/>
        <pt x="508" y="206" on="0"/>
        <pt x="508" y="153" on="1"/>
        <pt x="508" y="106" on="0"/>
        <pt x="471" y="44" on="0"/>
        <pt x="406" y="6" on="0"/>
        <pt x="318" y="-9" on="0"/>
      </contour>
    </TTGlyph>
    <TTGlyph name="afii10068" xMin="80" yMin="0" xMax="402" yMax="520">
      <contour>
        <pt x="402" y="442" on="1"/>
        <pt x="173" y="442" on="1"/>
        <pt x="173" y="0" on="1"/>
        <pt x="80" y="0" on="1"/>
        <pt x="80" y="520" on="1"/>
        <pt x="402" y="520" on="1"/>
      </contour>
    </TTGlyph>
    <TTGlyph name="afii10069" xMin="16" yMin="-145" xMax="582" yMax="520">
      <contour>
        <pt x="16" y="76" on="1"/>
        <pt x="72" y="76" on="1"/>
        <pt x="105" y="124" on="0"/>
        <pt x="144" y="226" on="0"/>
        <pt x="164" y="335" on="0"/>
        <pt x="170" y="454" on="0"/>
        <pt x="171" y="520" on="1"/>
        <pt x="512" y="520" on="1"/>
        <pt x="512" y="76" on="1"/>
        <pt x="582" y="76" on="1"/>
        <pt x="582" y="-145" on="1"/>
        <pt x="494" y="-145" on="1"/>
        <pt x="494" y="0" on="1"/>
        <pt x="104" y="0" on="1"/>
        <pt x="104" y="-145" on="1"/>
        <pt x="16" y="-145" on="1"/>
      </contour>
      <contour>
        <pt x="419" y="76" on="1"/>
        <pt x="419" y="442" on="1"/>
        <pt x="256" y="442" on="1"/>
        <pt x="255" y="395" on="0"/>
        <pt x="247" y="300" on="0"/>
        <pt x="229" y="207" on="0"/>
        <pt x="196" y="118" on="0"/>
        <pt x="171" y="76" on="1"/>
      </contour>
    </TTGlyph>
    <TTGlyph name="afii10070" xMin="51" yMin="-12" xMax="505" yMax="533">
      <component glyphName="e" x="0" y="0" flags="0x214"/>
    </TTGlyph>
    <TTGlyph name="afii10071" xMin="51" yMin="-12" xMax="505" yMax="734">
      <component glyphName="e" x="0" y="0" flags="0x214"/>
      <component glyphName="dieresis" x="98" y="0" flags="0x4"/>
    </TTGlyph>
    <TTGlyph name="afii10072" xMin="15" yMin="0" xMax="749" yMax="520">
      <contour>
        <pt x="721" y="520" on="1"/>
        <pt x="701" y="495" on="0"/>
        <pt x="651" y="436" on="0"/>
        <pt x="597" y="373" on="0"/>
        <pt x="542" y="311" on="0"/>
        <pt x="517" y="283" on="1"/>
        <pt x="547" y="254" on="0"/>
        <pt x="611" y="186" on="0"/>
        <pt x="672" y="113" on="0"/>
        <pt x="728" y="36" on="0"/>
        <pt x="749" y="0" on="1"/>
        <pt x="645" y="0" on="1"/>
        <pt x="624" y="33" on="0"/>
        <pt x="569" y="106" on="0"/>
        <pt x="510" y="174" on="0"/>
        <pt x="451" y="233" on="0"/>
        <pt x="426" y="252" on="1"/>
        <pt x="426" y="0" on="1"/>
        <pt x="337" y="0" on="1"/>
        <pt x="337" y="252" on="1"/>
        <pt x="312" y="233" on="0"/>
        <pt x="253" y="174" on="0"/>
        <pt x="194" y="106" on="0"/>
        <pt x="139" y="33" on="0"/>
        <pt x="118" y="0" on="1"/>
        <pt x="15" y="0" on="1"/>
        <pt x="36" y="36" on="0"/>
        <pt x="91" y="112" on="0"/>
        <pt x="152" y="185" on="0"/>
        <pt x="216" y="253" on="0"/>
        <pt x="246" y="282" on="1"/>
        <pt x="221" y="310" on="0"/>
        <pt x="166" y="372" on="0"/>
        <pt x="112" y="435" on="0"/>
        <pt x="62" y="494" on="0"/>
        <pt x="41" y="520" on="1"/>
        <pt x="144" y="520" on="1"/>
        <pt x="180" y="475" on="0"/>
        <pt x="274" y="365" on="0"/>
        <pt x="337" y="293" on="1"/>
        <pt x="337" y="520" on="1"/>
        <pt x="426" y="520" on="1"/>
        <pt x="426" y="293" on="1"/>
        <pt x="489" y="365" on="0"/>
        <pt x="583" y="475" on="0"/>
        <pt x="619" y="520" on="1"/>
      </contour>
    </TTGlyph>
    <TTGlyph name="afii10073" xMin="44" yMin="-12" xMax="440" yMax="533">
      <contour>
        <pt x="212" y="533" on="1"/>
        <pt x="257" y="533" on="0"/>
        <pt x="335" y="515" on="0"/>
        <pt x="391" y="479" on="0"/>
        <pt x="423" y="425" on="0"/>
        <pt x="423" y="389" on="1"/>
        <pt x="423" y="366" on="0"/>
        <pt x="407" y="328" on="0"/>
        <pt x="383" y="298" on="0"/>
        <pt x="354" y="277" on="0"/>
        <pt x="341" y="273" on="1"/>
        <pt x="387" y="259" on="0"/>
        <pt x="440" y="188" on="0"/>
        <pt x="440" y="134" on="1"/>
        <pt x="440" y="60" on="0"/>
        <pt x="320" y="-12" on="0"/>
        <pt x="217" y="-12" on="1"/>
        <pt x="154" y="-12" on="0"/>
        <pt x="63" y="8" on="0"/>
        <pt x="44" y="17" on="1"/>
        <pt x="60" y="96" on="1"/>
        <pt x="76" y="90" on="0"/>
        <pt x="159" y="69" on="0"/>
        <pt x="217" y="69" on="1"/>
        <pt x="280" y="69" on="0"/>
        <pt x="346" y="108" on="0"/>
        <pt x="346" y="147" on="1"/>
        <pt x="346" y="175" on="0"/>
        <pt x="321" y="210" on="0"/>
        <pt x="283" y="228" on="0"/>
        <pt x="239" y="234" on="0"/>
        <pt x="220" y="234" on="1"/>
        <pt x="133" y="234" on="1"/>
        <pt x="133" y="308" on="1"/>
        <pt x="217" y="308" on="1"/>
        <pt x="235" y="308" on="0"/>
        <pt x="274" y="313" on="0"/>
        <pt x="307" y="329" on="0"/>
        <pt x="329" y="358" on="0"/>
        <pt x="329" y="382" on="1"/>
        <pt x="329" y="401" on="0"/>
        <pt x="310" y="428" on="0"/>
        <pt x="278" y="446" on="0"/>
        <pt x="235" y="455" on="0"/>
        <pt x="212" y="455" on="1"/>
        <pt x="194" y="455" on="0"/>
        <pt x="152" y="449" on="0"/>
        <pt x="112" y="440" on="0"/>
        <pt x="80" y="430" on="0"/>
        <pt x="73" y="426" on="1"/>
        <pt x="56" y="506" on="1"/>
        <pt x="64" y="509" on="0"/>
        <pt x="98" y="519" on="0"/>
        <pt x="141" y="527" on="0"/>
        <pt x="189" y="533" on="0"/>
      </contour>
    </TTGlyph>
    <TTGlyph name="afii10074" xMin="80" yMin="0" xMax="517" yMax="520">
      <contour>
        <pt x="517" y="520" on="1"/>
        <pt x="517" y="0" on="1"/>
        <pt x="427" y="0" on="1"/>
        <pt x="427" y="396" on="1"/>
        <pt x="397" y="358" on="0"/>
        <pt x="325" y="256" on="0"/>
        <pt x="253" y="147" on="0"/>
        <pt x="187" y="41" on="0"/>
        <pt x="163" y="0" on="1"/>
        <pt x="80" y="0" on="1"/>
        <pt x="80" y="520" on="1"/>
        <pt x="170" y="520" on="1"/>
        <pt x="170" y="146" on="1"/>
        <pt x="196" y="189" on="0"/>
        <pt x="262" y="292" on="0"/>
        <pt x="333" y="393" on="0"/>
        <pt x="404" y="486" on="0"/>
        <pt x="435" y="520" on="1"/>
      </contour>
    </TTGlyph>
    <TTGlyph name="afii10075" xMin="80" yMin="0" xMax="517" yMax="744">
      <component glyphName="afii10074" x="0" y="0" flags="0x214"/>
      <component glyphName="kratka" x="107" y="0" flags="0x4"/>
    </TTGlyph>
    <TTGlyph name="afii10076" xMin="80" yMin="0" xMax="523" yMax="520">
      <component glyphName="kgreenlandic" x="0" y="0" flags="0x214"/>
    </TTGlyph>
    <TTGlyph name="afii10077" xMin="13" yMin="-10" xMax="518" yMax="520">
      <contour>
        <pt x="261" y="442" on="1"/>
        <pt x="261" y="409" on="0"/>
        <pt x="258" y="334" on="0"/>
        <pt x="250" y="259" on="0"/>
        <pt x="236" y="186" on="0"/>
        <pt x="225" y="154" on="1"/>
        <pt x="214" y="122" on="0"/>
        <pt x="181" y="66" on="0"/>
        <pt x="133" y="23" on="0"/>
        <pt x="69" y="-6" on="0"/>
        <pt x="26" y="-10" on="1"/>
        <pt x="13" y="68" on="1"/>
        <pt x="62" y="78" on="0"/>
        <pt x="119" y="132" on="0"/>
        <pt x="136" y="171" on="1"/>
        <pt x="151" y="205" on="0"/>
        <pt x="165" y="291" on="0"/>
        <pt x="171" y="384" on="0"/>
        <pt x="172" y="478" on="0"/>
        <pt x="172" y="520" on="1"/>
        <pt x="518" y="520" on="1"/>
        <pt x="518" y="0" on="1"/>
        <pt x="425" y="0" on="1"/>
        <pt x="425" y="442" on="1"/>
      </contour>
    </TTGlyph>
    <TTGlyph name="afii10078" xMin="67" yMin="0" xMax="664" yMax="520">
      <contour>
        <pt x="179" y="383" on="1"/>
        <pt x="169" y="284" on="0"/>
        <pt x="159" y="87" on="0"/>
        <pt x="156" y="0" on="1"/>
        <pt x="67" y="0" on="1"/>
        <pt x="69" y="61" on="0"/>
        <pt x="77" y="194" on="0"/>
        <pt x="87" y="329" on="0"/>
        <pt x="99" y="460" on="0"/>
        <pt x="106" y="520" on="1"/>
        <pt x="191" y="520" on="1"/>
        <pt x="223" y="468" on="0"/>
        <pt x="309" y="287" on="0"/>
        <pt x="365" y="169" on="1"/>
        <pt x="421" y="287" on="0"/>
        <pt x="507" y="468" on="0"/>
        <pt x="539" y="520" on="1"/>
        <pt x="625" y="520" on="1"/>
        <pt x="632" y="460" on="0"/>
        <pt x="644" y="329" on="0"/>
        <pt x="654" y="194" on="0"/>
        <pt x="662" y="61" on="0"/>
        <pt x="664" y="0" on="1"/>
        <pt x="572" y="0" on="1"/>
        <pt x="569" y="87" on="0"/>
        <pt x="559" y="284" on="0"/>
        <pt x="549" y="383" on="1"/>
        <pt x="533" y="352" on="0"/>
        <pt x="491" y="265" on="0"/>
        <pt x="450" y="175" on="0"/>
        <pt x="414" y="93" on="0"/>
        <pt x="404" y="69" on="1"/>
        <pt x="326" y="69" on="1"/>
        <pt x="315" y="94" on="0"/>
        <pt x="278" y="176" on="0"/>
        <pt x="237" y="267" on="0"/>
        <pt x="195" y="354" on="0"/>
      </contour>
    </TTGlyph>
    <TTGlyph name="afii10079" xMin="80" yMin="0" xMax="506" yMax="520">
      <contour>
        <pt x="506" y="0" on="1"/>
        <pt x="413" y="0" on="1"/>
        <pt x="413" y="230" on="1"/>
        <pt x="173" y="230" on="1"/>
        <pt x="173" y="0" on="1"/>
        <pt x="80" y="0" on="1"/>
        <pt x="80" y="520" on="1"/>
        <pt x="173" y="520" on="1"/>
        <pt x="173" y="308" on="1"/>
        <pt x="413" y="308" on="1"/>
        <pt x="413" y="520" on="1"/>
        <pt x="506" y="520" on="1"/>
      </contour>
    </TTGlyph>
    <TTGlyph name="afii10080" xMin="51" yMin="-13" xMax="539" yMax="533">
      <component glyphName="o" x="0" y="0" flags="0x214"/>
    </TTGlyph>
    <TTGlyph name="afii10081" xMin="80" yMin="0" xMax="498" yMax="520">
      <contour>
        <pt x="498" y="0" on="1"/>
        <pt x="405" y="0" on="1"/>
        <pt x="405" y="442" on="1"/>
        <pt x="173" y="442" on="1"/>
        <pt x="173" y="0" on="1"/>
        <pt x="80" y="0" on="1"/>
        <pt x="80" y="520" on="1"/>
        <pt x="498" y="520" on="1"/>
      </contour>
    </TTGlyph>
    <TTGlyph name="afii10082" xMin="80" yMin="-185" xMax="538" yMax="531">
      <component glyphName="p" x="0" y="0" flags="0x214"/>
    </TTGlyph>
    <TTGlyph name="afii10083" xMin="51" yMin="-12" xMax="445" yMax="533">
      <component glyphName="c" x="0" y="0" flags="0x214"/>
    </TTGlyph>
    <TTGlyph name="afii10084" xMin="16" yMin="0" xMax="447" yMax="520">
      <contour>
        <pt x="447" y="520" on="1"/>
        <pt x="447" y="442" on="1"/>
        <pt x="278" y="442" on="1"/>
        <pt x="278" y="0" on="1"/>
        <pt x="185" y="0" on="1"/>
        <pt x="185" y="442" on="1"/>
        <pt x="16" y="442" on="1"/>
        <pt x="16" y="520" on="1"/>
      </contour>
    </TTGlyph>
    <TTGlyph name="afii10085" xMin="2" yMin="-188" xMax="479" yMax="520">
      <component glyphName="y" x="0" y="0" flags="0x214"/>
    </TTGlyph>
    <TTGlyph name="afii10086" xMin="50" yMin="-185" xMax="716" yMax="776">
      <contour>
        <pt x="145" y="260" on="1"/>
        <pt x="145" y="216" on="0"/>
        <pt x="174" y="148" on="0"/>
        <pt x="226" y="101" on="0"/>
        <pt x="297" y="76" on="0"/>
        <pt x="338" y="75" on="1"/>
        <pt x="338" y="445" on="1"/>
        <pt x="297" y="444" on="0"/>
        <pt x="226" y="418" on="0"/>
        <pt x="174" y="371" on="0"/>
        <pt x="145" y="303" on="0"/>
      </contour>
      <contour>
        <pt x="428" y="75" on="1"/>
        <pt x="469" y="76" on="0"/>
        <pt x="540" y="101" on="0"/>
        <pt x="592" y="148" on="0"/>
        <pt x="621" y="216" on="0"/>
        <pt x="621" y="260" on="1"/>
        <pt x="621" y="303" on="0"/>
        <pt x="592" y="371" on="0"/>
        <pt x="540" y="418" on="0"/>
        <pt x="469" y="444" on="0"/>
        <pt x="428" y="445" on="1"/>
      </contour>
      <contour>
        <pt x="428" y="-185" on="1"/>
        <pt x="338" y="-185" on="1"/>
        <pt x="338" y="-3" on="1"/>
        <pt x="279" y="-2" on="0"/>
        <pt x="175" y="34" on="0"/>
        <pt x="96" y="101" on="0"/>
        <pt x="50" y="198" on="0"/>
        <pt x="50" y="260" on="1"/>
        <pt x="50" y="322" on="0"/>
        <pt x="96" y="419" on="0"/>
        <pt x="175" y="486" on="0"/>
        <pt x="279" y="522" on="0"/>
        <pt x="338" y="523" on="1"/>
        <pt x="338" y="760" on="1"/>
        <pt x="428" y="776" on="1"/>
        <pt x="428" y="523" on="1"/>
        <pt x="486" y="522" on="0"/>
        <pt x="591" y="486" on="0"/>
        <pt x="670" y="419" on="0"/>
        <pt x="716" y="322" on="0"/>
        <pt x="716" y="260" on="1"/>
        <pt x="716" y="198" on="0"/>
        <pt x="670" y="101" on="0"/>
        <pt x="591" y="34" on="0"/>
        <pt x="486" y="-2" on="0"/>
        <pt x="428" y="-3" on="1"/>
      </contour>
    </TTGlyph>
    <TTGlyph name="afii10087" xMin="16" yMin="0" xMax="493" yMax="520">
      <component glyphName="x" x="0" y="0" flags="0x214"/>
    </TTGlyph>
    <TTGlyph name="afii10088" xMin="80" yMin="-145" xMax="565" yMax="520">
      <contour>
        <pt x="495" y="77" on="1"/>
        <pt x="565" y="77" on="1"/>
        <pt x="565" y="-145" on="1"/>
        <pt x="477" y="-145" on="1"/>
        <pt x="477" y="0" on="1"/>
        <pt x="80" y="0" on="1"/>
        <pt x="80" y="520" on="1"/>
        <pt x="173" y="520" on="1"/>
        <pt x="173" y="77" on="1"/>
        <pt x="402" y="77" on="1"/>
        <pt x="402" y="520" on="1"/>
        <pt x="495" y="520" on="1"/>
      </contour>
    </TTGlyph>
    <TTGlyph name="afii10089" xMin="46" yMin="0" xMax="453" yMax="520">
      <contour>
        <pt x="139" y="520" on="1"/>
        <pt x="139" y="367" on="1"/>
        <pt x="139" y="308" on="0"/>
        <pt x="199" y="261" on="0"/>
        <pt x="251" y="261" on="1"/>
        <pt x="289" y="261" on="0"/>
        <pt x="340" y="269" on="0"/>
        <pt x="360" y="274" on="1"/>
        <pt x="360" y="520" on="1"/>
        <pt x="453" y="520" on="1"/>
        <pt x="453" y="0" on="1"/>
        <pt x="360" y="0" on="1"/>
        <pt x="360" y="202" on="1"/>
        <pt x="352" y="200" on="0"/>
        <pt x="326" y="194" on="0"/>
        <pt x="293" y="189" on="0"/>
        <pt x="257" y="185" on="0"/>
        <pt x="240" y="185" on="1"/>
        <pt x="197" y="185" on="0"/>
        <pt x="126" y="203" on="0"/>
        <pt x="75" y="245" on="0"/>
        <pt x="46" y="314" on="0"/>
        <pt x="46" y="366" on="1"/>
        <pt x="46" y="520" on="1"/>
      </contour>
    </TTGlyph>
    <TTGlyph name="afii10090" xMin="80" yMin="0" xMax="743" yMax="520">
      <contour>
        <pt x="80" y="0" on="1"/>
        <pt x="80" y="520" on="1"/>
        <pt x="173" y="520" on="1"/>
        <pt x="173" y="77" on="1"/>
        <pt x="365" y="77" on="1"/>
        <pt x="365" y="520" on="1"/>
        <pt x="458" y="520" on="1"/>
        <pt x="458" y="77" on="1"/>
        <pt x="650" y="77" on="1"/>
        <pt x="650" y="520" on="1"/>
        <pt x="743" y="520" on="1"/>
        <pt x="743" y="0" on="1"/>
      </contour>
    </TTGlyph>
    <TTGlyph name="afii10091" xMin="80" yMin="-145" xMax="813" yMax="520">
      <contour>
        <pt x="80" y="0" on="1"/>
        <pt x="80" y="520" on="1"/>
        <pt x="173" y="520" on="1"/>
        <pt x="173" y="77" on="1"/>
        <pt x="365" y="77" on="1"/>
        <pt x="365" y="520" on="1"/>
        <pt x="458" y="520" on="1"/>
        <pt x="458" y="77" on="1"/>
        <pt x="650" y="77" on="1"/>
        <pt x="650" y="520" on="1"/>
        <pt x="743" y="520" on="1"/>
        <pt x="743" y="77" on="1"/>
        <pt x="813" y="77" on="1"/>
        <pt x="813" y="-145" on="1"/>
        <pt x="725" y="-145" on="1"/>
        <pt x="725" y="0" on="1"/>
      </contour>
    </TTGlyph>
    <TTGlyph name="afii10092" xMin="16" yMin="-11" xMax="568" yMax="520">
      <contour>
        <pt x="150" y="442" on="1"/>
        <pt x="16" y="442" on="1"/>
        <pt x="16" y="520" on="1"/>
        <pt x="243" y="520" on="1"/>
        <pt x="243" y="321" on="1"/>
        <pt x="251" y="323" on="0"/>
        <pt x="278" y="327" on="0"/>
        <pt x="309" y="331" on="0"/>
        <pt x="343" y="333" on="0"/>
        <pt x="358" y="333" on="1"/>
        <pt x="401" y="333" on="0"/>
        <pt x="477" y="314" on="0"/>
        <pt x="534" y="273" on="0"/>
        <pt x="568" y="208" on="0"/>
        <pt x="568" y="163" on="1"/>
        <pt x="568" y="116" on="0"/>
        <pt x="536" y="50" on="0"/>
        <pt x="476" y="8" on="0"/>
        <pt x="393" y="-11" on="0"/>
        <pt x="342" y="-11" on="1"/>
        <pt x="292" y="-11" on="0"/>
        <pt x="196" y="0" on="0"/>
        <pt x="150" y="11" on="1"/>
      </contour>
      <contour>
        <pt x="347" y="65" on="1"/>
        <pt x="406" y="65" on="0"/>
        <pt x="474" y="111" on="0"/>
        <pt x="474" y="162" on="1"/>
        <pt x="474" y="187" on="0"/>
        <pt x="454" y="223" on="0"/>
        <pt x="419" y="246" on="0"/>
        <pt x="373" y="257" on="0"/>
        <pt x="347" y="257" on="1"/>
        <pt x="320" y="257" on="0"/>
        <pt x="263" y="254" on="0"/>
        <pt x="243" y="249" on="1"/>
        <pt x="243" y="70" on="1"/>
        <pt x="249" y="69" on="0"/>
        <pt x="273" y="67" on="0"/>
        <pt x="302" y="66" on="0"/>
        <pt x="333" y="65" on="0"/>
      </contour>
    </TTGlyph>
    <TTGlyph name="afii10093" xMin="80" yMin="-11" xMax="678" yMax="520">
      <contour>
        <pt x="271" y="257" on="1"/>
        <pt x="244" y="257" on="0"/>
        <pt x="193" y="254" on="0"/>
        <pt x="173" y="249" on="1"/>
        <pt x="173" y="70" on="1"/>
        <pt x="179" y="69" on="0"/>
        <pt x="202" y="67" on="0"/>
        <pt x="229" y="66" on="0"/>
        <pt x="257" y="65" on="0"/>
        <pt x="268" y="65" on="1"/>
        <pt x="329" y="65" on="0"/>
        <pt x="395" y="111" on="0"/>
        <pt x="395" y="162" on="1"/>
        <pt x="395" y="187" on="0"/>
        <pt x="374" y="223" on="0"/>
        <pt x="339" y="246" on="0"/>
        <pt x="295" y="257" on="0"/>
      </contour>
      <contour>
        <pt x="80" y="520" on="1"/>
        <pt x="173" y="520" on="1"/>
        <pt x="173" y="321" on="1"/>
        <pt x="190" y="325" on="0"/>
        <pt x="255" y="333" on="0"/>
        <pt x="285" y="333" on="1"/>
        <pt x="326" y="333" on="0"/>
        <pt x="400" y="314" on="0"/>
        <pt x="456" y="273" on="0"/>
        <pt x="489" y="208" on="0"/>
        <pt x="489" y="163" on="1"/>
        <pt x="489" y="116" on="0"/>
        <pt x="457" y="50" on="0"/>
        <pt x="399" y="8" on="0"/>
        <pt x="317" y="-11" on="0"/>
        <pt x="268" y="-11" on="1"/>
        <pt x="221" y="-11" on="0"/>
        <pt x="125" y="0" on="0"/>
        <pt x="80" y="11" on="1"/>
      </contour>
      <contour>
        <pt x="678" y="0" on="1"/>
        <pt x="585" y="0" on="1"/>
        <pt x="585" y="520" on="1"/>
        <pt x="678" y="520" on="1"/>
      </contour>
    </TTGlyph>
    <TTGlyph name="afii10094" xMin="80" yMin="-11" xMax="498" yMax="520">
      <contour>
        <pt x="277" y="65" on="1"/>
        <pt x="336" y="65" on="0"/>
        <pt x="404" y="111" on="0"/>
        <pt x="404" y="162" on="1"/>
        <pt x="404" y="187" on="0"/>
        <pt x="384" y="223" on="0"/>
        <pt x="349" y="246" on="0"/>
        <pt x="303" y="257" on="0"/>
        <pt x="277" y="257" on="1"/>
        <pt x="250" y="257" on="0"/>
        <pt x="193" y="254" on="0"/>
        <pt x="173" y="249" on="1"/>
        <pt x="173" y="70" on="1"/>
        <pt x="179" y="69" on="0"/>
        <pt x="203" y="67" on="0"/>
        <pt x="232" y="66" on="0"/>
        <pt x="263" y="65" on="0"/>
      </contour>
      <contour>
        <pt x="80" y="11" on="1"/>
        <pt x="80" y="520" on="1"/>
        <pt x="173" y="520" on="1"/>
        <pt x="173" y="321" on="1"/>
        <pt x="181" y="323" on="0"/>
        <pt x="208" y="327" on="0"/>
        <pt x="239" y="331" on="0"/>
        <pt x="273" y="333" on="0"/>
        <pt x="288" y="333" on="1"/>
        <pt x="331" y="333" on="0"/>
        <pt x="407" y="314" on="0"/>
        <pt x="464" y="273" on="0"/>
        <pt x="498" y="208" on="0"/>
        <pt x="498" y="163" on="1"/>
        <pt x="498" y="116" on="0"/>
        <pt x="466" y="50" on="0"/>
        <pt x="406" y="8" on="0"/>
        <pt x="323" y="-11" on="0"/>
        <pt x="272" y="-11" on="1"/>
        <pt x="222" y="-11" on="0"/>
        <pt x="126" y="0" on="0"/>
      </contour>
    </TTGlyph>
    <TTGlyph name="afii10095" xMin="34" yMin="-12" xMax="447" yMax="533">
      <contour>
        <pt x="447" y="262" on="1"/>
        <pt x="447" y="202" on="0"/>
        <pt x="416" y="102" on="0"/>
        <pt x="352" y="29" on="0"/>
        <pt x="256" y="-12" on="0"/>
        <pt x="192" y="-12" on="1"/>
        <pt x="136" y="-12" on="0"/>
        <pt x="50" y="6" on="0"/>
        <pt x="34" y="15" on="1"/>
        <pt x="47" y="94" on="1"/>
        <pt x="56" y="89" on="0"/>
        <pt x="86" y="81" on="0"/>
        <pt x="123" y="74" on="0"/>
        <pt x="163" y="70" on="0"/>
        <pt x="183" y="70" on="1"/>
        <pt x="264" y="70" on="0"/>
        <pt x="345" y="155" on="0"/>
        <pt x="351" y="230" on="1"/>
        <pt x="139" y="230" on="1"/>
        <pt x="139" y="305" on="1"/>
        <pt x="349" y="305" on="1"/>
        <pt x="340" y="372" on="0"/>
        <pt x="263" y="451" on="0"/>
        <pt x="188" y="451" on="1"/>
        <pt x="147" y="451" on="0"/>
        <pt x="85" y="438" on="0"/>
        <pt x="68" y="430" on="1"/>
        <pt x="48" y="505" on="1"/>
        <pt x="58" y="510" on="0"/>
        <pt x="91" y="520" on="0"/>
        <pt x="130" y="528" on="0"/>
        <pt x="172" y="533" on="0"/>
        <pt x="192" y="533" on="1"/>
        <pt x="255" y="533" on="0"/>
        <pt x="350" y="491" on="0"/>
        <pt x="414" y="417" on="0"/>
        <pt x="447" y="319" on="0"/>
      </contour>
    </TTGlyph>
    <TTGlyph name="afii10096" xMin="80" yMin="-13" xMax="760" yMax="533">
      <contour>
        <pt x="173" y="305" on="1"/>
        <pt x="287" y="305" on="1"/>
        <pt x="293" y="357" on="0"/>
        <pt x="334" y="441" on="0"/>
        <pt x="396" y="501" on="0"/>
        <pt x="476" y="533" on="0"/>
        <pt x="522" y="533" on="1"/>
        <pt x="573" y="533" on="0"/>
        <pt x="660" y="494" on="0"/>
        <pt x="724" y="422" on="0"/>
        <pt x="760" y="321" on="0"/>
        <pt x="760" y="260" on="1"/>
        <pt x="760" y="198" on="0"/>
        <pt x="724" y="98" on="0"/>
        <pt x="660" y="26" on="0"/>
        <pt x="573" y="-13" on="0"/>
        <pt x="522" y="-13" on="1"/>
        <pt x="474" y="-13" on="0"/>
        <pt x="391" y="22" on="0"/>
        <pt x="329" y="85" on="0"/>
        <pt x="290" y="175" on="0"/>
        <pt x="286" y="230" on="1"/>
        <pt x="173" y="230" on="1"/>
        <pt x="173" y="0" on="1"/>
        <pt x="80" y="0" on="1"/>
        <pt x="80" y="520" on="1"/>
        <pt x="173" y="520" on="1"/>
      </contour>
      <contour>
        <pt x="664" y="260" on="1"/>
        <pt x="664" y="348" on="0"/>
        <pt x="587" y="451" on="0"/>
        <pt x="522" y="451" on="1"/>
        <pt x="457" y="451" on="0"/>
        <pt x="380" y="348" on="0"/>
        <pt x="380" y="260" on="1"/>
        <pt x="380" y="172" on="0"/>
        <pt x="457" y="69" on="0"/>
        <pt x="522" y="69" on="1"/>
        <pt x="587" y="69" on="0"/>
        <pt x="664" y="172" on="0"/>
      </contour>
    </TTGlyph>
    <TTGlyph name="afii10097" xMin="31" yMin="0" xMax="468" yMax="533">
      <contour>
        <pt x="295" y="202" on="1"/>
        <pt x="280" y="202" on="0"/>
        <pt x="252" y="203" on="0"/>
        <pt x="239" y="204" on="1"/>
        <pt x="207" y="156" on="0"/>
        <pt x="148" y="47" on="0"/>
        <pt x="125" y="0" on="1"/>
        <pt x="31" y="0" on="1"/>
        <pt x="43" y="29" on="0"/>
        <pt x="75" y="90" on="0"/>
        <pt x="108" y="148" on="0"/>
        <pt x="142" y="200" on="0"/>
        <pt x="157" y="221" on="1"/>
        <pt x="129" y="231" on="0"/>
        <pt x="93" y="260" on="0"/>
        <pt x="71" y="296" on="0"/>
        <pt x="62" y="337" on="0"/>
        <pt x="62" y="358" on="1"/>
        <pt x="62" y="402" on="0"/>
        <pt x="95" y="468" on="0"/>
        <pt x="153" y="511" on="0"/>
        <pt x="232" y="533" on="0"/>
        <pt x="279" y="533" on="1"/>
        <pt x="345" y="533" on="0"/>
        <pt x="437" y="521" on="0"/>
        <pt x="468" y="513" on="1"/>
        <pt x="468" y="0" on="1"/>
        <pt x="376" y="0" on="1"/>
        <pt x="376" y="202" on="1"/>
      </contour>
      <contour>
        <pt x="376" y="451" on="1"/>
        <pt x="365" y="453" on="0"/>
        <pt x="314" y="457" on="0"/>
        <pt x="281" y="457" on="1"/>
        <pt x="224" y="457" on="0"/>
        <pt x="154" y="410" on="0"/>
        <pt x="154" y="359" on="1"/>
        <pt x="154" y="309" on="0"/>
        <pt x="226" y="271" on="0"/>
        <pt x="283" y="271" on="1"/>
        <pt x="376" y="271" on="1"/>
      </contour>
    </TTGlyph>
    <TTGlyph name="afii10098" xMin="80" yMin="0" xMax="412" yMax="650">
      <contour>
        <pt x="328" y="520" on="1"/>
        <pt x="328" y="650" on="1"/>
        <pt x="412" y="650" on="1"/>
        <pt x="412" y="442" on="1"/>
        <pt x="173" y="442" on="1"/>
        <pt x="173" y="0" on="1"/>
        <pt x="80" y="0" on="1"/>
        <pt x="80" y="520" on="1"/>
      </contour>
    </TTGlyph>
    <TTGlyph name="afii10099" xMin="6" yMin="-187" xMax="500" yMax="776">
      <contour>
        <pt x="80" y="0" on="1"/>
        <pt x="80" y="614" on="1"/>
        <pt x="6" y="614" on="1"/>
        <pt x="6" y="683" on="1"/>
        <pt x="80" y="683" on="1"/>
        <pt x="80" y="760" on="1"/>
        <pt x="173" y="776" on="1"/>
        <pt x="173" y="683" on="1"/>
        <pt x="350" y="683" on="1"/>
        <pt x="350" y="614" on="1"/>
        <pt x="173" y="614" on="1"/>
        <pt x="173" y="507" on="1"/>
        <pt x="199" y="517" on="0"/>
        <pt x="258" y="528" on="0"/>
        <pt x="287" y="528" on="1"/>
        <pt x="349" y="528" on="0"/>
        <pt x="431" y="493" on="0"/>
        <pt x="480" y="430" on="0"/>
        <pt x="500" y="342" on="0"/>
        <pt x="500" y="289" on="1"/>
        <pt x="500" y="0" on="1"/>
        <pt x="500" y="-46" on="0"/>
        <pt x="487" y="-116" on="0"/>
        <pt x="454" y="-163" on="0"/>
        <pt x="396" y="-187" on="0"/>
        <pt x="351" y="-187" on="1"/>
        <pt x="337" y="-187" on="0"/>
        <pt x="300" y="-182" on="0"/>
        <pt x="289" y="-179" on="1"/>
        <pt x="298" y="-106" on="1"/>
        <pt x="306" y="-109" on="0"/>
        <pt x="333" y="-111" on="0"/>
        <pt x="341" y="-111" on="1"/>
        <pt x="378" y="-111" on="0"/>
        <pt x="407" y="-62" on="0"/>
        <pt x="407" y="-17" on="1"/>
        <pt x="407" y="269" on="1"/>
        <pt x="407" y="317" on="0"/>
        <pt x="394" y="385" on="0"/>
        <pt x="364" y="427" on="0"/>
        <pt x="314" y="446" on="0"/>
        <pt x="277" y="446" on="1"/>
        <pt x="262" y="446" on="0"/>
        <pt x="230" y="442" on="0"/>
        <pt x="201" y="437" on="0"/>
        <pt x="178" y="431" on="0"/>
        <pt x="173" y="429" on="1"/>
        <pt x="173" y="0" on="1"/>
      </contour>
    </TTGlyph>
    <TTGlyph name="afii10100" xMin="80" yMin="0" xMax="402" yMax="776">
      <component glyphName="afii10068" x="0" y="0" flags="0x214"/>
      <component glyphName="acute" x="74" y="0" flags="0x4"/>
    </TTGlyph>
    <TTGlyph name="afii10101" xMin="51" yMin="-12" xMax="464" yMax="533">
      <contour>
        <pt x="51" y="262" on="1"/>
        <pt x="51" y="319" on="0"/>
        <pt x="84" y="417" on="0"/>
        <pt x="148" y="491" on="0"/>
        <pt x="243" y="533" on="0"/>
        <pt x="306" y="533" on="1"/>
        <pt x="325" y="533" on="0"/>
        <pt x="368" y="528" on="0"/>
        <pt x="407" y="520" on="0"/>
        <pt x="440" y="510" on="0"/>
        <pt x="450" y="505" on="1"/>
        <pt x="430" y="430" on="1"/>
        <pt x="413" y="438" on="0"/>
        <pt x="352" y="451" on="0"/>
        <pt x="310" y="451" on="1"/>
        <pt x="235" y="451" on="0"/>
        <pt x="158" y="372" on="0"/>
        <pt x="149" y="305" on="1"/>
        <pt x="359" y="305" on="1"/>
        <pt x="359" y="230" on="1"/>
        <pt x="147" y="230" on="1"/>
        <pt x="153" y="155" on="0"/>
        <pt x="234" y="70" on="0"/>
        <pt x="315" y="70" on="1"/>
        <pt x="334" y="70" on="0"/>
        <pt x="375" y="74" on="0"/>
        <pt x="412" y="80" on="0"/>
        <pt x="442" y="89" on="0"/>
        <pt x="451" y="94" on="1"/>
        <pt x="464" y="15" on="1"/>
        <pt x="448" y="6" on="0"/>
        <pt x="363" y="-12" on="0"/>
        <pt x="306" y="-12" on="1"/>
        <pt x="241" y="-12" on="0"/>
        <pt x="146" y="29" on="0"/>
        <pt x="82" y="102" on="0"/>
        <pt x="51" y="202" on="0"/>
      </contour>
    </TTGlyph>
    <TTGlyph name="afii10102" xMin="40" yMin="-12" xMax="407" yMax="533">
      <component glyphName="s" x="0" y="0" flags="0x214"/>
    </TTGlyph>
    <TTGlyph name="afii10103" xMin="66" yMin="0" xMax="186" yMax="736">
      <component glyphName="i" x="0" y="0" flags="0x214"/>
    </TTGlyph>
    <TTGlyph name="afii10104" xMin="-25" yMin="0" xMax="281" yMax="734">
      <component glyphName="dotlessi" x="0" y="0" flags="0x214"/>
      <component glyphName="dieresis" x="-60" y="0" flags="0x4"/>
    </TTGlyph>
    <TTGlyph name="afii10105" xMin="-68" yMin="-187" xMax="186" yMax="736">
      <component glyphName="j" x="0" y="0" flags="0x214"/>
    </TTGlyph>
    <TTGlyph name="afii10106" xMin="13" yMin="-11" xMax="833" yMax="520">
      <contour>
        <pt x="615" y="257" on="1"/>
        <pt x="588" y="257" on="0"/>
        <pt x="537" y="254" on="0"/>
        <pt x="517" y="249" on="1"/>
        <pt x="517" y="70" on="1"/>
        <pt x="523" y="69" on="0"/>
        <pt x="546" y="67" on="0"/>
        <pt x="573" y="66" on="0"/>
        <pt x="601" y="65" on="0"/>
        <pt x="612" y="65" on="1"/>
        <pt x="673" y="65" on="0"/>
        <pt x="739" y="111" on="0"/>
        <pt x="739" y="162" on="1"/>
        <pt x="739" y="187" on="0"/>
        <pt x="718" y="223" on="0"/>
        <pt x="683" y="246" on="0"/>
        <pt x="639" y="257" on="0"/>
      </contour>
      <contour>
        <pt x="517" y="321" on="1"/>
        <pt x="534" y="325" on="0"/>
        <pt x="599" y="333" on="0"/>
        <pt x="629" y="333" on="1"/>
        <pt x="670" y="333" on="0"/>
        <pt x="744" y="314" on="0"/>
        <pt x="800" y="273" on="0"/>
        <pt x="833" y="208" on="0"/>
        <pt x="833" y="163" on="1"/>
        <pt x="833" y="116" on="0"/>
        <pt x="801" y="50" on="0"/>
        <pt x="743" y="8" on="0"/>
        <pt x="661" y="-11" on="0"/>
        <pt x="612" y="-11" on="1"/>
        <pt x="565" y="-11" on="0"/>
        <pt x="470" y="0" on="0"/>
        <pt x="425" y="11" on="1"/>
        <pt x="425" y="442" on="1"/>
        <pt x="261" y="442" on="1"/>
        <pt x="261" y="409" on="0"/>
        <pt x="258" y="334" on="0"/>
        <pt x="250" y="259" on="0"/>
        <pt x="236" y="186" on="0"/>
        <pt x="225" y="154" on="1"/>
        <pt x="214" y="122" on="0"/>
        <pt x="181" y="66" on="0"/>
        <pt x="133" y="23" on="0"/>
        <pt x="69" y="-6" on="0"/>
        <pt x="26" y="-10" on="1"/>
        <pt x="13" y="68" on="1"/>
        <pt x="62" y="78" on="0"/>
        <pt x="119" y="132" on="0"/>
        <pt x="136" y="171" on="1"/>
        <pt x="151" y="205" on="0"/>
        <pt x="165" y="291" on="0"/>
        <pt x="171" y="384" on="0"/>
        <pt x="172" y="478" on="0"/>
        <pt x="172" y="520" on="1"/>
        <pt x="517" y="520" on="1"/>
      </contour>
    </TTGlyph>
    <TTGlyph name="afii10107" xMin="80" yMin="-11" xMax="821" yMax="520">
      <contour>
        <pt x="617" y="333" on="1"/>
        <pt x="658" y="333" on="0"/>
        <pt x="732" y="314" on="0"/>
        <pt x="788" y="273" on="0"/>
        <pt x="821" y="208" on="0"/>
        <pt x="821" y="163" on="1"/>
        <pt x="821" y="116" on="0"/>
        <pt x="789" y="50" on="0"/>
        <pt x="731" y="8" on="0"/>
        <pt x="649" y="-11" on="0"/>
        <pt x="600" y="-11" on="1"/>
        <pt x="553" y="-11" on="0"/>
        <pt x="458" y="0" on="0"/>
        <pt x="413" y="11" on="1"/>
        <pt x="413" y="232" on="1"/>
        <pt x="173" y="232" on="1"/>
        <pt x="173" y="0" on="1"/>
        <pt x="80" y="0" on="1"/>
        <pt x="80" y="520" on="1"/>
        <pt x="173" y="520" on="1"/>
        <pt x="173" y="310" on="1"/>
        <pt x="413" y="310" on="1"/>
        <pt x="413" y="520" on="1"/>
        <pt x="505" y="520" on="1"/>
        <pt x="505" y="321" on="1"/>
        <pt x="522" y="325" on="0"/>
        <pt x="587" y="333" on="0"/>
      </contour>
      <contour>
        <pt x="603" y="257" on="1"/>
        <pt x="576" y="257" on="0"/>
        <pt x="525" y="254" on="0"/>
        <pt x="505" y="249" on="1"/>
        <pt x="505" y="70" on="1"/>
        <pt x="511" y="69" on="0"/>
        <pt x="534" y="67" on="0"/>
        <pt x="561" y="66" on="0"/>
        <pt x="589" y="65" on="0"/>
        <pt x="600" y="65" on="1"/>
        <pt x="661" y="65" on="0"/>
        <pt x="727" y="111" on="0"/>
        <pt x="727" y="162" on="1"/>
        <pt x="727" y="187" on="0"/>
        <pt x="706" y="223" on="0"/>
        <pt x="671" y="246" on="0"/>
        <pt x="627" y="257" on="0"/>
      </contour>
    </TTGlyph>
    <TTGlyph name="afii10108" xMin="6" yMin="0" xMax="500" yMax="776">
      <component glyphName="hbar" x="0" y="0" flags="0x214"/>
    </TTGlyph>
    <TTGlyph name="afii10109" xMin="80" yMin="0" xMax="523" yMax="776">
      <component glyphName="kgreenlandic" x="0" y="0" flags="0x214"/>
      <component glyphName="acute" x="91" y="0" flags="0x4"/>
    </TTGlyph>
    <TTGlyph name="afii10110" xMin="2" yMin="-188" xMax="479" yMax="744">
      <component glyphName="y" x="0" y="0" flags="0x214"/>
      <component glyphName="kratka" x="70" y="0" flags="0x4"/>
    </TTGlyph>
    <TTGlyph name="afii10145" xMin="86" yMin="-185" xMax="613" yMax="693">
      <contour>
        <pt x="86" y="0" on="1"/>
        <pt x="86" y="693" on="1"/>
        <pt x="183" y="693" on="1"/>
        <pt x="183" y="83" on="1"/>
        <pt x="516" y="83" on="1"/>
        <pt x="516" y="693" on="1"/>
        <pt x="613" y="693" on="1"/>
        <pt x="613" y="0" on="1"/>
        <pt x="396" y="0" on="1"/>
        <pt x="396" y="-185" on="1"/>
        <pt x="304" y="-185" on="1"/>
        <pt x="304" y="0" on="1"/>
      </contour>
    </TTGlyph>
    <TTGlyph name="afii10193" xMin="80" yMin="-145" xMax="495" yMax="520">
      <contour>
        <pt x="495" y="0" on="1"/>
        <pt x="332" y="0" on="1"/>
        <pt x="332" y="-145" on="1"/>
        <pt x="244" y="-145" on="1"/>
        <pt x="244" y="0" on="1"/>
        <pt x="80" y="0" on="1"/>
        <pt x="80" y="520" on="1"/>
        <pt x="173" y="520" on="1"/>
        <pt x="173" y="77" on="1"/>
        <pt x="402" y="77" on="1"/>
        <pt x="402" y="520" on="1"/>
        <pt x="495" y="520" on="1"/>
      </contour>
    </TTGlyph>
    <TTGlyph name="afii61289" xMin="6" yMin="-15" xMax="427" yMax="776">
      <contour>
        <pt x="108" y="255" on="1"/>
        <pt x="108" y="544" on="1"/>
        <pt x="108" y="613" on="0"/>
        <pt x="135" y="703" on="0"/>
        <pt x="181" y="755" on="0"/>
        <pt x="240" y="776" on="0"/>
        <pt x="273" y="776" on="1"/>
        <pt x="315" y="776" on="0"/>
        <pt x="368" y="744" on="0"/>
        <pt x="398" y="695" on="0"/>
        <pt x="408" y="634" on="0"/>
        <pt x="408" y="605" on="1"/>
        <pt x="408" y="552" on="0"/>
        <pt x="378" y="455" on="0"/>
        <pt x="324" y="366" on="0"/>
        <pt x="247" y="283" on="0"/>
        <pt x="200" y="244" on="1"/>
        <pt x="200" y="200" on="1"/>
        <pt x="200" y="131" on="0"/>
        <pt x="247" y="66" on="0"/>
        <pt x="298" y="66" on="1"/>
        <pt x="330" y="66" on="0"/>
        <pt x="373" y="90" on="0"/>
        <pt x="390" y="103" on="1"/>
        <pt x="427" y="34" on="1"/>
        <pt x="402" y="12" on="0"/>
        <pt x="330" y="-15" on="0"/>
        <pt x="282" y="-15" on="1"/>
        <pt x="232" y="-15" on="0"/>
        <pt x="166" y="15" on="0"/>
        <pt x="125" y="65" on="0"/>
        <pt x="108" y="131" on="0"/>
        <pt x="108" y="167" on="1"/>
        <pt x="108" y="175" on="1"/>
        <pt x="42" y="128" on="1"/>
        <pt x="6" y="181" on="1"/>
      </contour>
      <contour>
        <pt x="200" y="327" on="1"/>
        <pt x="263" y="385" on="0"/>
        <pt x="336" y="521" on="0"/>
        <pt x="336" y="606" on="1"/>
        <pt x="336" y="623" on="0"/>
        <pt x="332" y="656" on="0"/>
        <pt x="318" y="683" on="0"/>
        <pt x="294" y="700" on="0"/>
        <pt x="275" y="700" on="1"/>
        <pt x="260" y="700" on="0"/>
        <pt x="233" y="688" on="0"/>
        <pt x="212" y="655" on="0"/>
        <pt x="200" y="596" on="0"/>
        <pt x="200" y="548" on="1"/>
      </contour>
    </TTGlyph>
    <TTGlyph name="afii61352" xMin="86" yMin="0" xMax="1074" yMax="708">
      <contour>
        <pt x="529" y="0" on="1"/>
        <pt x="509" y="37" on="0"/>
        <pt x="455" y="130" on="0"/>
        <pt x="395" y="230" on="0"/>
        <pt x="329" y="334" on="0"/>
        <pt x="265" y="431" on="0"/>
        <pt x="204" y="516" on="0"/>
        <pt x="178" y="548" on="1"/>
        <pt x="178" y="0" on="1"/>
        <pt x="86" y="0" on="1"/>
        <pt x="86" y="693" on="1"/>
        <pt x="173" y="693" on="1"/>
        <pt x="217" y="643" on="0"/>
        <pt x="316" y="508" on="0"/>
        <pt x="412" y="365" on="0"/>
        <pt x="497" y="227" on="0"/>
        <pt x="527" y="174" on="1"/>
        <pt x="527" y="693" on="1"/>
        <pt x="620" y="693" on="1"/>
        <pt x="620" y="0" on="1"/>
      </contour>
      <contour>
        <pt x="1074" y="518" on="1"/>
        <pt x="1074" y="475" on="0"/>
        <pt x="1047" y="405" on="0"/>
        <pt x="999" y="355" on="0"/>
        <pt x="933" y="328" on="0"/>
        <pt x="894" y="328" on="1"/>
        <pt x="855" y="328" on="0"/>
        <pt x="789" y="355" on="0"/>
        <pt x="741" y="405" on="0"/>
        <pt x="714" y="475" on="0"/>
        <pt x="714" y="518" on="1"/>
        <pt x="714" y="561" on="0"/>
        <pt x="741" y="632" on="0"/>
        <pt x="789" y="681" on="0"/>
        <pt x="855" y="708" on="0"/>
        <pt x="894" y="708" on="1"/>
        <pt x="933" y="708" on="0"/>
        <pt x="999" y="681" on="0"/>
        <pt x="1047" y="632" on="0"/>
        <pt x="1074" y="561" on="0"/>
      </contour>
      <contour>
        <pt x="1000" y="518" on="1"/>
        <pt x="1000" y="575" on="0"/>
        <pt x="945" y="641" on="0"/>
        <pt x="894" y="641" on="1"/>
        <pt x="843" y="641" on="0"/>
        <pt x="788" y="575" on="0"/>
        <pt x="788" y="518" on="1"/>
        <pt x="788" y="463" on="0"/>
        <pt x="843" y="395" on="0"/>
        <pt x="894" y="395" on="1"/>
        <pt x="945" y="395" on="0"/>
        <pt x="1000" y="463" on="0"/>
      </contour>
      <contour>
        <pt x="724" y="227" on="1"/>
        <pt x="1064" y="227" on="1"/>
        <pt x="1064" y="150" on="1"/>
        <pt x="724" y="150" on="1"/>
      </contour>
    </TTGlyph>
    <TTGlyph name="agrave" xMin="43" yMin="-11" xMax="448" yMax="776">
      <component glyphName="a" x="0" y="0" flags="0x204"/>
      <component glyphName="grave" x="82" y="0" flags="0x4"/>
    </TTGlyph>
    <TTGlyph name="alpha" xMin="51" yMin="-11" xMax="585" yMax="531">
      <contour>
        <pt x="315" y="531" on="1"/>
        <pt x="343" y="531" on="0"/>
        <pt x="400" y="525" on="0"/>
        <pt x="450" y="516" on="0"/>
        <pt x="491" y="505" on="0"/>
        <pt x="504" y="500" on="1"/>
        <pt x="504" y="165" on="1"/>
        <pt x="504" y="136" on="0"/>
        <pt x="513" y="101" on="0"/>
        <pt x="532" y="80" on="0"/>
        <pt x="563" y="71" on="0"/>
        <pt x="585" y="68" on="1"/>
        <pt x="572" y="-10" on="1"/>
        <pt x="527" y="-10" on="0"/>
        <pt x="466" y="17" on="0"/>
        <pt x="447" y="41" on="1"/>
        <pt x="422" y="22" on="0"/>
        <pt x="344" y="-11" on="0"/>
        <pt x="290" y="-11" on="1"/>
        <pt x="231" y="-11" on="0"/>
        <pt x="142" y="29" on="0"/>
        <pt x="82" y="101" on="0"/>
        <pt x="51" y="200" on="0"/>
        <pt x="51" y="259" on="1"/>
        <pt x="51" y="322" on="0"/>
        <pt x="88" y="423" on="0"/>
        <pt x="157" y="493" on="0"/>
        <pt x="255" y="531" on="0"/>
      </contour>
      <contour>
        <pt x="297" y="70" on="1"/>
        <pt x="338" y="70" on="0"/>
        <pt x="401" y="97" on="0"/>
        <pt x="417" y="109" on="1"/>
        <pt x="411" y="136" on="0"/>
        <pt x="411" y="169" on="1"/>
        <pt x="411" y="436" on="1"/>
        <pt x="403" y="439" on="0"/>
        <pt x="350" y="448" on="0"/>
        <pt x="319" y="448" on="1"/>
        <pt x="239" y="448" on="0"/>
        <pt x="148" y="350" on="0"/>
        <pt x="148" y="259" on="1"/>
        <pt x="148" y="219" on="0"/>
        <pt x="164" y="150" on="0"/>
        <pt x="200" y="99" on="0"/>
        <pt x="257" y="70" on="0"/>
      </contour>
    </TTGlyph>
    <TTGlyph name="alphatonos" xMin="51" yMin="-11" xMax="585" yMax="783">
      <component glyphName="alpha" x="0" y="0" flags="0x204"/>
      <component glyphName="tonos" x="91" y="0" flags="0x4"/>
    </TTGlyph>
    <TTGlyph name="amacron" xMin="43" yMin="-11" xMax="448" yMax="711">
      <component glyphName="a" x="0" y="0" flags="0x204"/>
      <component glyphName="macron" x="75" y="0" flags="0x4"/>
    </TTGlyph>
    <TTGlyph name="ampersand" xMin="46" yMin="-9" xMax="655" yMax="709">
      <contour>
        <pt x="46" y="184" on="1"/>
        <pt x="46" y="223" on="0"/>
        <pt x="70" y="284" on="0"/>
        <pt x="111" y="333" on="0"/>
        <pt x="165" y="370" on="0"/>
        <pt x="194" y="384" on="1"/>
        <pt x="120" y="458" on="0"/>
        <pt x="120" y="537" on="1"/>
        <pt x="120" y="577" on="0"/>
        <pt x="147" y="641" on="0"/>
        <pt x="194" y="685" on="0"/>
        <pt x="259" y="709" on="0"/>
        <pt x="298" y="709" on="1"/>
        <pt x="338" y="709" on="0"/>
        <pt x="401" y="685" on="0"/>
        <pt x="444" y="645" on="0"/>
        <pt x="466" y="589" on="0"/>
        <pt x="466" y="558" on="1"/>
        <pt x="466" y="523" on="0"/>
        <pt x="443" y="467" on="0"/>
        <pt x="404" y="421" on="0"/>
        <pt x="354" y="383" on="0"/>
        <pt x="326" y="368" on="1"/>
        <pt x="488" y="203" on="1"/>
        <pt x="522" y="266" on="0"/>
        <pt x="532" y="343" on="1"/>
        <pt x="609" y="333" on="1"/>
        <pt x="605" y="292" on="0"/>
        <pt x="572" y="195" on="0"/>
        <pt x="542" y="147" on="1"/>
        <pt x="577" y="109" on="0"/>
        <pt x="636" y="35" on="0"/>
        <pt x="655" y="0" on="1"/>
        <pt x="557" y="0" on="1"/>
        <pt x="545" y="20" on="0"/>
        <pt x="510" y="62" on="0"/>
        <pt x="491" y="83" on="1"/>
        <pt x="450" y="42" on="0"/>
        <pt x="342" y="-9" on="0"/>
        <pt x="272" y="-9" on="1"/>
        <pt x="207" y="-9" on="0"/>
        <pt x="121" y="28" on="0"/>
        <pt x="68" y="85" on="0"/>
        <pt x="46" y="153" on="0"/>
      </contour>
      <contour>
        <pt x="139" y="186" on="1"/>
        <pt x="139" y="168" on="0"/>
        <pt x="153" y="126" on="0"/>
        <pt x="185" y="91" on="0"/>
        <pt x="236" y="68" on="0"/>
        <pt x="274" y="68" on="1"/>
        <pt x="323" y="68" on="0"/>
        <pt x="406" y="104" on="0"/>
        <pt x="438" y="137" on="1"/>
        <pt x="243" y="334" on="1"/>
        <pt x="225" y="325" on="0"/>
        <pt x="188" y="301" on="0"/>
        <pt x="158" y="266" on="0"/>
        <pt x="139" y="218" on="0"/>
      </contour>
      <contour>
        <pt x="382" y="555" on="1"/>
        <pt x="382" y="589" on="0"/>
        <pt x="337" y="636" on="0"/>
        <pt x="298" y="636" on="1"/>
        <pt x="254" y="636" on="0"/>
        <pt x="207" y="583" on="0"/>
        <pt x="207" y="544" on="1"/>
        <pt x="207" y="479" on="0"/>
        <pt x="275" y="417" on="1"/>
        <pt x="297" y="428" on="0"/>
        <pt x="336" y="454" on="0"/>
        <pt x="365" y="488" on="0"/>
        <pt x="382" y="529" on="0"/>
      </contour>
    </TTGlyph>
    <TTGlyph name="aogonek" xMin="43" yMin="-187" xMax="448" yMax="533">
      <contour>
        <pt x="256" y="67" on="1"/>
        <pt x="289" y="67" on="0"/>
        <pt x="340" y="70" on="0"/>
        <pt x="357" y="74" on="1"/>
        <pt x="357" y="229" on="1"/>
        <pt x="347" y="234" on="0"/>
        <pt x="302" y="241" on="0"/>
        <pt x="270" y="241" on="1"/>
        <pt x="249" y="241" on="0"/>
        <pt x="202" y="235" on="0"/>
        <pt x="163" y="216" on="0"/>
        <pt x="137" y="183" on="0"/>
        <pt x="137" y="156" on="1"/>
        <pt x="137" y="106" on="0"/>
        <pt x="201" y="67" on="0"/>
      </contour>
      <contour>
        <pt x="248" y="533" on="1"/>
        <pt x="304" y="533" on="0"/>
        <pt x="381" y="504" on="0"/>
        <pt x="428" y="451" on="0"/>
        <pt x="448" y="378" on="0"/>
        <pt x="448" y="334" on="1"/>
        <pt x="448" y="9" on="1"/>
        <pt x="436" y="0" on="0"/>
        <pt x="407" y="-23" on="0"/>
        <pt x="392" y="-39" on="1"/>
        <pt x="378" y="-55" on="0"/>
        <pt x="360" y="-79" on="0"/>
        <pt x="360" y="-93" on="1"/>
        <pt x="360" y="-122" on="0"/>
        <pt x="400" y="-122" on="1"/>
        <pt x="407" y="-122" on="0"/>
        <pt x="430" y="-119" on="0"/>
        <pt x="441" y="-115" on="1"/>
        <pt x="448" y="-176" on="1"/>
        <pt x="437" y="-181" on="0"/>
        <pt x="402" y="-187" on="0"/>
        <pt x="382" y="-187" on="1"/>
        <pt x="326" y="-187" on="0"/>
        <pt x="272" y="-146" on="0"/>
        <pt x="272" y="-111" on="1"/>
        <pt x="272" y="-88" on="0"/>
        <pt x="300" y="-45" on="0"/>
        <pt x="317" y="-27" on="1"/>
        <pt x="322" y="-21" on="0"/>
        <pt x="336" y="-10" on="0"/>
        <pt x="341" y="-5" on="1"/>
        <pt x="318" y="-7" on="0"/>
        <pt x="269" y="-11" on="0"/>
        <pt x="245" y="-11" on="1"/>
        <pt x="201" y="-11" on="0"/>
        <pt x="127" y="7" on="0"/>
        <pt x="73" y="46" on="0"/>
        <pt x="43" y="110" on="0"/>
        <pt x="43" y="155" on="1"/>
        <pt x="43" y="198" on="0"/>
        <pt x="78" y="260" on="0"/>
        <pt x="138" y="298" on="0"/>
        <pt x="218" y="316" on="0"/>
        <pt x="262" y="316" on="1"/>
        <pt x="276" y="316" on="0"/>
        <pt x="306" y="313" on="0"/>
        <pt x="333" y="308" on="0"/>
        <pt x="353" y="304" on="0"/>
        <pt x="357" y="303" on="1"/>
        <pt x="357" y="329" on="1"/>
        <pt x="357" y="352" on="0"/>
        <pt x="347" y="397" on="0"/>
        <pt x="321" y="432" on="0"/>
        <pt x="276" y="453" on="0"/>
        <pt x="240" y="453" on="1"/>
        <pt x="194" y="453" on="0"/>
        <pt x="125" y="440" on="0"/>
        <pt x="108" y="433" on="1"/>
        <pt x="97" y="510" on="1"/>
        <pt x="115" y="518" on="0"/>
        <pt x="199" y="533" on="0"/>
      </contour>
    </TTGlyph>
    <TTGlyph name="apostrophe" xMin="116" yMin="566" xMax="246" yMax="776">
      <contour>
        <pt x="246" y="776" on="1"/>
        <pt x="246" y="765" on="0"/>
        <pt x="246" y="750" on="0"/>
        <pt x="245" y="740" on="1"/>
        <pt x="241" y="689" on="0"/>
        <pt x="207" y="604" on="0"/>
        <pt x="183" y="566" on="1"/>
        <pt x="116" y="589" on="1"/>
        <pt x="135" y="627" on="0"/>
        <pt x="152" y="700" on="0"/>
        <pt x="152" y="738" on="1"/>
        <pt x="152" y="748" on="0"/>
        <pt x="151" y="770" on="0"/>
        <pt x="150" y="776" on="1"/>
      </contour>
    </TTGlyph>
    <TTGlyph name="approxequal" xMin="42" yMin="111" xMax="520" yMax="490">
      <component glyphName="asciitilde" x="0" y="108" flags="0x214"/>
      <component glyphName="asciitilde" x="0" y="-106" flags="0x4"/>
    </TTGlyph>
    <TTGlyph name="aring" xMin="43" yMin="-11" xMax="448" yMax="779">
      <component glyphName="a" x="0" y="0" flags="0x204"/>
      <component glyphName="ring" x="75" y="0" flags="0x4"/>
    </TTGlyph>
    <TTGlyph name="aringacute" xMin="43" yMin="-11" xMax="448" yMax="910">
      <component glyphName="a" x="0" y="0" flags="0x204"/>
      <component glyphName="ring_acute" x="75" y="0" flags="0x4"/>
    </TTGlyph>
    <TTGlyph name="asciicircum" xMin="47" yMin="315" xMax="517" yMax="693">
      <contour>
        <pt x="323" y="693" on="1"/>
        <pt x="517" y="353" on="1"/>
        <pt x="443" y="315" on="1"/>
        <pt x="282" y="597" on="1"/>
        <pt x="121" y="315" on="1"/>
        <pt x="47" y="353" on="1"/>
        <pt x="241" y="693" on="1"/>
      </contour>
    </TTGlyph>
    <TTGlyph name="asciitilde" xMin="42" yMin="217" xMax="520" yMax="382">
      <contour>
        <pt x="520" y="357" on="1"/>
        <pt x="516" y="337" on="0"/>
        <pt x="499" y="289" on="0"/>
        <pt x="467" y="246" on="0"/>
        <pt x="418" y="217" on="0"/>
        <pt x="383" y="217" on="1"/>
        <pt x="353" y="217" on="0"/>
        <pt x="302" y="241" on="0"/>
        <pt x="279" y="255" on="1"/>
        <pt x="252" y="271" on="0"/>
        <pt x="202" y="302" on="0"/>
        <pt x="174" y="302" on="1"/>
        <pt x="158" y="302" on="0"/>
        <pt x="136" y="287" on="0"/>
        <pt x="120" y="264" on="0"/>
        <pt x="110" y="237" on="0"/>
        <pt x="106" y="224" on="1"/>
        <pt x="42" y="242" on="1"/>
        <pt x="46" y="261" on="0"/>
        <pt x="64" y="310" on="0"/>
        <pt x="95" y="353" on="0"/>
        <pt x="144" y="382" on="0"/>
        <pt x="179" y="382" on="1"/>
        <pt x="209" y="382" on="0"/>
        <pt x="260" y="358" on="0"/>
        <pt x="283" y="344" on="1"/>
        <pt x="310" y="328" on="0"/>
        <pt x="360" y="297" on="0"/>
        <pt x="388" y="297" on="1"/>
        <pt x="404" y="297" on="0"/>
        <pt x="426" y="312" on="0"/>
        <pt x="442" y="335" on="0"/>
        <pt x="452" y="362" on="0"/>
        <pt x="456" y="375" on="1"/>
      </contour>
    </TTGlyph>
    <TTGlyph name="asterisk" xMin="37" yMin="311" xMax="443" yMax="693">
      <contour>
        <pt x="285" y="685" on="1"/>
        <pt x="285" y="643" on="0"/>
        <pt x="270" y="566" on="0"/>
        <pt x="262" y="525" on="1"/>
        <pt x="298" y="545" on="0"/>
        <pt x="368" y="583" on="0"/>
        <pt x="409" y="597" on="1"/>
        <pt x="415" y="599" on="1"/>
        <pt x="443" y="515" on="1"/>
        <pt x="435" y="512" on="1"/>
        <pt x="395" y="497" on="0"/>
        <pt x="315" y="488" on="0"/>
        <pt x="273" y="485" on="1"/>
        <pt x="306" y="457" on="0"/>
        <pt x="364" y="404" on="0"/>
        <pt x="389" y="369" on="1"/>
        <pt x="394" y="362" on="1"/>
        <pt x="321" y="311" on="1"/>
        <pt x="317" y="317" on="1"/>
        <pt x="293" y="353" on="0"/>
        <pt x="258" y="424" on="0"/>
        <pt x="240" y="462" on="1"/>
        <pt x="222" y="424" on="0"/>
        <pt x="187" y="353" on="0"/>
        <pt x="163" y="317" on="1"/>
        <pt x="159" y="311" on="1"/>
        <pt x="86" y="362" on="1"/>
        <pt x="91" y="369" on="1"/>
        <pt x="116" y="404" on="0"/>
        <pt x="174" y="457" on="0"/>
        <pt x="207" y="485" on="1"/>
        <pt x="165" y="488" on="0"/>
        <pt x="85" y="497" on="0"/>
        <pt x="45" y="512" on="1"/>
        <pt x="37" y="515" on="1"/>
        <pt x="65" y="599" on="1"/>
        <pt x="71" y="597" on="1"/>
        <pt x="112" y="583" on="0"/>
        <pt x="182" y="545" on="0"/>
        <pt x="218" y="525" on="1"/>
        <pt x="210" y="566" on="0"/>
        <pt x="195" y="643" on="0"/>
        <pt x="195" y="685" on="1"/>
        <pt x="195" y="693" on="1"/>
        <pt x="285" y="693" on="1"/>
      </contour>
    </TTGlyph>
</ttFont>
